<svg width="250" height="70" viewBox="0 0 250 70" fill="none" xmlns="http://www.w3.org/2000/svg">
<path d="M108.873 42.1186H108.958L108.994 42.1962L112.699 50.282L119.384 50.2821L105.709 20.4871H103.008L88.7588 50.2821H92.9385L96.8314 42.1939L96.8677 42.1186H96.9516H108.873ZM97.9709 39.8776L102.93 29.4255L103.053 29.1678L103.172 29.427L107.972 39.8791L108.058 40.0675H107.851H98.0912H97.8808L97.9709 39.8776Z" fill="#6FCFEB"/>
<path d="M136.574 41.7267C136.169 41.0244 135.626 40.3747 134.96 39.796C134.284 39.2086 133.498 38.6736 132.623 38.2061C131.737 37.7327 130.805 37.297 129.853 36.9114C129.212 36.6411 128.609 36.3527 128.061 36.0538C127.501 35.7491 127.011 35.4209 126.603 35.0784C126.18 34.7241 125.841 34.3354 125.597 33.9235C125.34 33.4902 125.21 33.0173 125.21 32.5178C125.21 32.1102 125.319 31.7384 125.534 31.4124C125.738 31.1012 126.015 30.8401 126.357 30.6366C126.683 30.443 127.057 30.2947 127.469 30.1956C127.874 30.0984 128.306 30.0492 128.753 30.0492C129.007 30.0492 129.302 30.0715 129.632 30.1151C129.998 30.1642 130.366 30.3019 130.724 30.5248C131.077 30.7443 131.422 31.0751 131.749 31.5078C132.021 31.8679 132.26 32.3505 132.46 32.9439L135.613 31.8381C135.283 31.3257 134.926 30.8546 134.549 30.436C134.087 29.9209 133.54 29.4752 132.924 29.1113C132.308 28.7476 131.583 28.4649 130.768 28.2714C129.946 28.0763 128.985 27.9774 127.913 27.9774C126.752 27.9774 125.675 28.1272 124.712 28.4227C123.759 28.7155 122.934 29.1323 122.258 29.6615C121.59 30.1848 121.062 30.821 120.689 31.5525C120.319 32.2804 120.131 33.0993 120.131 33.9868C120.131 34.9246 120.333 35.7563 120.734 36.4586C121.144 37.1792 121.692 37.8303 122.362 38.3939C123.046 38.9689 123.826 39.487 124.68 39.9339C125.555 40.3915 126.439 40.8189 127.307 41.2037C127.877 41.4603 128.419 41.7382 128.919 42.0303C129.433 42.3312 129.881 42.6632 130.249 43.0172C130.63 43.3825 130.935 43.7992 131.156 44.2561C131.383 44.7247 131.498 45.259 131.498 45.8442C131.498 46.2267 131.405 46.5903 131.221 46.9248C131.042 47.2496 130.789 47.5364 130.467 47.7772C130.156 48.0108 129.78 48.1992 129.35 48.3369C128.922 48.4743 128.445 48.544 127.934 48.544C126.721 48.544 125.696 48.1609 124.886 47.4054C124.179 46.746 123.61 45.8537 123.194 44.7519L120.062 45.9522C120.341 46.435 120.656 46.9266 120.999 47.4155C121.416 48.0108 121.954 48.5583 122.599 49.0426C123.242 49.5265 124.044 49.9278 124.982 50.2352C125.92 50.5436 127.083 50.7 128.438 50.7C130.044 50.7 131.424 50.522 132.54 50.1711C133.64 49.8247 134.546 49.3448 135.233 48.7449C135.912 48.1518 136.407 47.4498 136.706 46.6581C137.011 45.8498 137.166 44.9687 137.166 44.0394C137.166 43.1865 136.966 42.4085 136.574 41.7267Z" fill="#6FCFEB"/>
<path d="M146.251 21.368C145.95 21.0987 145.592 20.8817 145.187 20.7231C144.784 20.5659 144.348 20.4862 143.893 20.4862C143.438 20.4862 143.002 20.5659 142.599 20.7232C142.194 20.8817 141.836 21.0986 141.534 21.368C141.238 21.6333 141.003 21.9496 140.835 22.3081C140.67 22.6622 140.587 23.0474 140.587 23.4529C140.587 23.8588 140.67 24.2441 140.835 24.5981C141.002 24.9548 141.236 25.2666 141.531 25.5247C141.835 25.7898 142.194 26.0041 142.599 26.1621C142.994 26.3161 143.441 26.3975 143.893 26.3975C144.345 26.3975 144.792 26.3161 145.187 26.1621C145.592 26.0039 145.951 25.7894 146.254 25.5247C146.551 25.2657 146.79 24.9524 146.963 24.5933C147.134 24.2397 147.221 23.8561 147.221 23.4529C147.221 23.0504 147.134 22.6669 146.963 22.3127C146.789 21.9527 146.549 21.6349 146.251 21.368Z" fill="#6FCFEB"/>
<path d="M140.881 50.2817H146.968V29.4161L140.881 31.1658V50.2817Z" fill="#6FCFEB"/>
<path d="M167.393 29.5903C166.677 29.0871 165.746 28.6894 164.627 28.4086C163.492 28.1235 162.12 27.979 160.547 27.979C159.263 27.979 158.029 28.1133 156.879 28.3786C155.735 28.6426 154.713 29.0156 153.842 29.4871C152.987 29.9508 152.3 30.5016 151.801 31.1245C151.325 31.7184 151.084 32.3713 151.084 33.0654C151.084 33.4166 151.154 33.7501 151.293 34.0565C151.433 34.3669 151.626 34.6374 151.868 34.8608C152.111 35.085 152.412 35.2642 152.764 35.3936C153.12 35.5248 153.518 35.5914 153.949 35.5914C154.523 35.5914 154.991 35.5108 155.339 35.352C155.681 35.1962 155.952 34.9902 156.145 34.7394C156.342 34.4825 156.482 34.1804 156.561 33.8419C156.645 33.4784 156.688 33.0899 156.688 32.6874C156.688 32.288 156.743 31.9056 156.851 31.5513C156.964 31.1794 157.154 30.8456 157.415 30.5596C157.678 30.273 158.022 30.0467 158.439 29.8867C158.844 29.7311 159.348 29.6521 159.937 29.6521C160.442 29.6521 160.907 29.7307 161.318 29.8858C161.75 30.0486 162.12 30.3155 162.419 30.6789C162.71 31.0329 162.939 31.4902 163.098 32.0384C163.254 32.5737 163.334 33.2228 163.334 33.9677V36.4034V36.51L163.23 36.5333L162.287 36.7426C161.41 37.0268 160.486 37.3277 159.548 37.6354C158.621 37.9397 157.714 38.2752 156.854 38.6326C156 38.9876 155.188 39.3898 154.442 39.8273C153.708 40.2578 153.061 40.7472 152.518 41.2826C151.984 41.8099 151.556 42.4065 151.248 43.0559C150.944 43.6944 150.79 44.4283 150.79 45.2374C150.79 46.0081 150.935 46.7355 151.222 47.3993C151.507 48.0602 151.925 48.6419 152.464 49.1284C153.006 49.6175 153.678 50.0057 154.461 50.2819C155.251 50.5604 156.153 50.7015 157.143 50.7015C157.884 50.7015 158.531 50.6473 159.067 50.5409C159.596 50.4348 160.074 50.2849 160.486 50.0952C160.904 49.9033 161.289 49.6795 161.631 49.4297C161.985 49.1716 162.352 48.8809 162.723 48.5655L163.114 48.232L163.334 48.045V48.3332V50.2817H169.463V33.7577C169.463 32.8814 169.292 32.081 168.954 31.3789C168.618 30.6841 168.093 30.0822 167.393 29.5903ZM163.619 38.5726V45.4883V45.5423L163.582 45.581C163.375 45.7934 163.168 45.9935 162.966 46.176C162.762 46.3608 162.533 46.5339 162.287 46.6901C162.04 46.8469 161.755 46.9863 161.44 47.1045C161.126 47.2218 160.751 47.3192 160.323 47.394C160.005 47.4495 159.699 47.4776 159.414 47.4776C159.18 47.4776 158.953 47.4587 158.741 47.4209C158.267 47.3366 157.857 47.1708 157.525 46.9284C157.189 46.6843 156.929 46.3681 156.752 45.9881C156.576 45.6111 156.487 45.1819 156.487 44.7124C156.487 44.2212 156.581 43.7563 156.768 43.3309C156.953 42.9099 157.208 42.5095 157.525 42.1407C157.84 41.7748 158.215 41.4258 158.638 41.1037C159.059 40.7833 159.516 40.4769 159.997 40.1934C160.475 39.9111 160.979 39.6363 161.494 39.3772C162.008 39.1191 162.514 38.8657 163.013 38.6177L163.437 38.449L163.619 38.3766L163.619 38.5726Z" fill="#6FCFEB"/>
<path d="M191.993 20.4866L182.199 33.7601L182.095 33.901L181.987 33.7632L171.564 20.4866L164.759 20.4882L176.368 35.4734L176.427 35.5472L177.595 37.0577L177.623 50.2817H184.236V36.7019L196.029 20.4866H191.993Z" fill="#6FCFEB"/>
<path d="M210.465 31.1606C209.391 30.1731 208.095 29.3869 206.613 28.8243C205.129 28.261 203.494 27.9752 201.754 27.9752C200.017 27.9752 198.39 28.2675 196.92 28.8439C195.453 29.4196 194.168 30.2292 193.102 31.2498C192.036 32.2704 191.191 33.5035 190.591 34.9155C189.991 36.3287 189.686 37.8978 189.686 39.5793C189.686 41.1333 189.99 42.6051 190.589 43.9535C191.189 45.3047 192.033 46.4927 193.098 47.4841C194.165 48.4785 195.453 49.2711 196.929 49.8401C198.406 50.4104 200.036 50.6997 201.775 50.6997C203.51 50.6997 205.137 50.3871 206.612 49.7705C208.088 49.1535 209.381 48.302 210.455 47.2394C211.529 46.1776 212.382 44.9177 212.991 43.4951C213.599 42.0747 213.907 40.5376 213.907 38.9266C213.907 37.4029 213.6 35.9609 212.995 34.6409C212.388 33.3179 211.537 32.1469 210.465 31.1606ZM201.996 48.6706C201.908 48.6706 201.821 48.6668 201.732 48.6591C198.872 48.4083 196.545 44.0836 196.545 39.0182C196.545 34.1038 198.718 30.2538 201.492 30.2536C201.58 30.2536 201.667 30.2574 201.756 30.2652C204.616 30.5158 206.943 34.8408 206.943 39.9061C206.943 44.8207 204.77 48.6706 201.996 48.6706Z" fill="#6FCFEB"/>
<path fill-rule="evenodd" clip-rule="evenodd" d="M56.3182 14C45.4774 15.0339 37 24.1115 37 35.1583C37 39.2007 38.1353 42.9794 40.106 46.197C49.9224 38.8234 56.2862 27.1377 56.3182 14Z" fill="#57C2E9"/>
<path fill-rule="evenodd" clip-rule="evenodd" d="M64.0456 38.5079C61.7695 35.1442 59.9544 31.4536 58.694 27.5227C56.8477 33.2806 53.8143 38.5245 49.8789 42.9773L64.0456 38.5079Z" fill="#F9BE00"/>
<path fill-rule="evenodd" clip-rule="evenodd" d="M64.781 39.7576L42.8275 49.5613C42.823 49.5566 42.8189 49.5516 42.8145 49.5468C42.8082 49.5516 42.8018 49.5566 42.7954 49.5613C46.7003 53.8244 52.3219 56.5 58.5719 56.5C64.8218 56.5 70.4433 53.8244 74.3484 49.5613C70.6795 46.8008 67.4492 43.4917 64.781 39.7576Z" fill="#F9BE00"/>
<path fill-rule="evenodd" clip-rule="evenodd" d="M60.8257 14L60.8273 14.0002C60.8483 22.6408 63.6084 30.6527 68.2879 37.2235L76.0391 34.7527L68.8306 37.9655C71.1582 41.0822 73.9234 43.8573 77.0381 46.197C79.0087 42.9794 80.1439 39.2008 80.1439 35.1584C80.1439 24.1112 71.6665 15.033 60.8257 14Z" fill="#57C2E9"/>
</svg>
