<?xml version="1.0" encoding="UTF-8"?><svg id="_層_1" xmlns="http://www.w3.org/2000/svg" viewBox="0 0 225.17 33.04"><defs><style>.cls-1{fill:#5d6732;}.cls-2{fill:#040000;}</style></defs><path class="cls-2" d="M3.96,10.8V6.16c0-2.09-.11-3.96-.29-5.62,1.08,.14,2.45,.32,4.18,.61,1.33,.22,2.02,.43,2.02,.65,0,.4-.4,.76-1.15,1.04-.58,.18-.83,.5-.83,.94v7.02h.29s.29-.29,.79-.86c.58-.61,.9-.94,1.04-.94,.29,0,.76,.36,1.4,1.01,.65,.68,.97,1.08,.97,1.22,0,.4-.14,.58-.4,.58H7.88v9.68c1.51-.36,2.95-.76,4.36-1.26l.14,.43c-2.77,2.59-5.69,4.43-8.78,5.58-.36,.07-.5,.22-.5,.47-.04,.14-.07,.29-.11,.5-.07,.32-.14,.47-.29,.47-.5,0-1.08-.83-1.76-2.52-.18-.43-.5-1.19-.94-2.27,1.37-.14,2.66-.32,3.96-.58V11.81c-1.55,.04-2.66,.07-3.38,.14l-.58-1.4c.97,.14,2.3,.25,3.96,.25ZM13.32,31.5c-1.51,.54-3.28,.97-5.29,1.26l-.14-.86c1.66-.76,3.06-1.66,4.25-2.66,1.15-.9,2.27-2.12,3.35-3.64,1.4,.61,2.45,1.12,3.13,1.48,1.08,.58,1.66,1.08,1.66,1.48,0,.36-.32,.54-.97,.54l-1.15-.14c-1.76,1.22-3.38,2.09-4.82,2.56ZM15.33,3.92h3.53c.29-1.55,.54-2.81,.68-3.82,.86,.14,2.12,.4,3.71,.79,1.08,.29,1.66,.61,1.66,.9,0,.22-.29,.43-.79,.58-.72,.14-1.12,.4-1.19,.83l-.14,.72h2.7c.07-.04,.43-.5,1.15-1.4,.83-1.01,1.33-1.55,1.51-1.55,.43,0,1.12,.5,2.05,1.51,.94,1.01,1.44,1.66,1.44,1.87,0,.36-.25,.54-.68,.54h-8.39l-.65,3.24h1.44c.43-.43,.83-.83,1.19-1.26,.54-.54,.94-.83,1.19-.83,.4,0,1.08,.4,2.09,1.19,1.15,.86,1.73,1.4,1.73,1.62,0,.36-.25,.72-.76,1.01-.5,.32-.79,.65-.79,.94v13.25c.22-.22,.5-.58,.9-1.04,.72-.9,1.19-1.37,1.33-1.37,.36,0,.97,.47,1.76,1.33,.79,.9,1.19,1.44,1.19,1.62,0,.4-.18,.58-.54,.58H13.79c-2.05,0-3.49,.07-4.36,.14l-.54-1.4c1.01,.14,2.41,.25,4.21,.25V13.21c0-2.84-.14-5-.43-6.48,1.15,.29,2.52,.76,4.07,1.4h1.26c.25-1.19,.47-2.27,.68-3.24h-3.35c-2.05,0-3.49,.07-4.36,.14l-.54-1.4c1.12,.22,2.74,.29,4.9,.29Zm8.85,8.28v-3.1h-7.45v3.1h7.45Zm0,4.1v-3.09h-7.45v3.09h7.45Zm0,3.92v-2.95h-7.45v2.95h7.45Zm0,3.92v-2.95h-7.45v2.95h7.45Zm3.38,2.99c1.08,.29,2.09,.68,3.02,1.19,.79,.54,1.19,1.15,1.19,1.87,0,.47-.29,1.04-.79,1.73-.47,.43-.94,.68-1.44,.68-.54,0-1.04-.29-1.55-.86-1.76-1.94-3.89-3.53-6.33-4.75l.14-.72c1.58,.07,3.49,.36,5.76,.86Z"/><path class="cls-2" d="M54.68,.65c.94,.07,1.44,.32,1.44,.76,0,.18-.29,.4-.86,.65-.65,.29-.97,.65-.97,1.04v1.12h8.46c.43-.4,.83-.72,1.15-1.01,.47-.43,.83-.68,1.08-.68,.32,0,1.12,.54,2.38,1.55,1.12,.94,1.69,1.58,1.69,1.98,0,.29-.29,.47-.83,.54-.65,0-1.04,.07-1.12,.14-1.01,.47-2.2,.94-3.53,1.37,.94,.76,1.4,1.22,1.4,1.44,0,.36-.25,.72-.68,1.04-.47,.36-.72,.72-.72,1.08v.14c0,.79,0,1.73,.07,2.77,.04,2.16,.07,3.38,.07,3.67,0,.47-.65,.83-1.91,1.04-.54,.07-.94,.11-1.19,.11-.65,0-.97-.36-.97-1.15v-.68h-7.31c-1.19,1.26-2.27,2.3-3.24,3.09h13.79c.4-.43,.72-.83,.97-1.15,.43-.54,.83-.83,1.12-.83,.43,0,1.22,.43,2.38,1.26,.94,.76,1.44,1.33,1.44,1.69,0,.18-.22,.43-.65,.76-.47,.36-.72,.65-.76,.94-.11,1.44-.36,3.17-.79,5.15-.43,1.58-.97,2.66-1.55,3.2-.5,.43-1.19,.76-1.98,.97-.9,.25-1.58,.4-2.02,.4-.25,0-.47-.4-.68-1.12-.32-.9-1.55-1.8-3.67-2.7l.14-.68c1.58,.36,2.77,.54,3.49,.54s1.19-.11,1.55-.36c.32-.25,.65-1.08,.94-2.52,.4-1.58,.61-3.13,.61-4.57h-15.66c-1.37,.86-2.88,1.66-4.57,2.3-1.8,.72-3.78,1.3-5.9,1.76l-.29-.68c2.02-.83,3.96-1.91,5.76-3.2,1.66-1.26,3.06-2.66,4.21-4.25h-1.26v.43c0,.47-.58,.79-1.69,1.01-.5,.07-.9,.11-1.12,.11-.76,0-1.12-.36-1.12-1.12,.07-1.22,.14-2.45,.14-3.67v-2.52c0-1.73-.11-3.42-.29-5.08,1.44,.43,2.92,.97,4.43,1.66,.22-.14,.43-.25,.61-.36,1.12-.72,2.02-1.58,2.7-2.56,1.01,.58,1.87,1.08,2.52,1.51,.83,.5,1.26,.86,1.26,1.15s-.25,.43-.68,.43l-1.01-.14c-1.33,.43-2.38,.72-3.13,.86-.58,.14-1.48,.29-2.63,.36v2.84h2.12s.29-.29,.79-.86c.65-.79,1.08-1.22,1.3-1.22s.83,.47,1.87,1.4c.61,.61,.94,.97,.94,1.12,0,.4-.18,.58-.54,.58h-6.48v3.1h13.93v-3.24h-1.15c-1.69,0-3.06,.07-4.07,.14l-.54-1.4c1.26,.18,2.81,.25,4.61,.25h1.15v-2.81h-1.69c-1.58,0-2.84,.07-3.82,.14l-.54-1.4c1.48,.22,2.92,.29,4.36,.29h1.12c.43-.36,.79-.72,1.12-1.08,.5-.5,.9-.76,1.15-.76,.22,0,.54,.14,.97,.4,.36-.61,.68-1.26,.97-1.94h-21.85c-.07,1.01-.14,1.73-.25,2.2-.29,.94-.72,1.62-1.33,1.98-.36,.22-.76,.32-1.15,.32-.79,0-1.48-.22-1.98-.68-.5-.4-.72-.97-.72-1.69,0-.29,.43-.68,1.3-1.15,.86-.43,1.58-.9,2.09-1.48,.5-.5,.94-1.26,1.26-2.3l.86,.14c0,.65-.04,1.19-.04,1.69h8.6v-.86c0-1.08-.11-2.2-.29-3.35,1.66,.14,3.31,.36,4.9,.65Zm-10.65,23.94c0,2.48-.14,4.18-.4,5.08-.29,.94-.79,1.62-1.51,2.05-.43,.22-.86,.32-1.33,.32-.79,0-1.44-.25-1.94-.68-.5-.43-.72-.97-.72-1.69,0-.32,.43-.72,1.37-1.19,1.01-.43,1.76-.97,2.34-1.58,.54-.5,1.01-1.33,1.37-2.45l.83,.14Zm6.19,1.12c.72,.72,1.12,1.4,1.12,1.98,0,1.01-.22,1.73-.58,2.09-.5,.58-1.08,.86-1.66,.86-.61,0-1.08-.18-1.44-.47-.29-.25-.43-.9-.43-1.98,0-1.15-.29-2.56-.79-4.14l.54-.29c1.37,.61,2.45,1.26,3.24,1.94Zm5.47-1.19c.76,.58,1.15,1.04,1.15,1.48,0,.83-.22,1.48-.58,1.94-.47,.5-.97,.72-1.55,.72-.43,0-.72-.07-.86-.22-.22-.14-.4-.65-.54-1.55-.14-1.12-.54-2.27-1.26-3.42l.43-.43c1.55,.58,2.63,1.04,3.2,1.48Zm5.18-.9c.58,.43,.86,.97,.86,1.55s-.25,1.15-.76,1.69c-.36,.36-.79,.54-1.33,.54-.36,0-.65-.4-.86-1.19-.32-1.12-.9-2.23-1.69-3.31l.29-.54c1.66,.4,2.84,.83,3.49,1.26Z"/><path class="cls-1" d="M88.38,8.71V3.78c0-.68-.11-1.91-.29-3.67,1.94,.29,3.24,.54,3.85,.72,1.55,.29,2.34,.61,2.34,.97s-.36,.65-1.01,.86c-.65,.18-.97,.47-.97,.83v5.22s.29-.29,.72-.79c.54-.58,.86-.9,.97-.9,.25,0,.65,.32,1.22,.94,.58,.65,.86,1.04,.86,1.15,0,.4-.14,.58-.4,.58h-3.38v6.23c1.22-.14,2.41-.29,3.53-.47l.25,.58c-1.3,.79-2.56,1.51-3.78,2.12v10.8c0,1.44-.5,2.48-1.44,3.06-1.08,.68-2.16,1.04-3.2,1.04-.29,0-.47-.32-.54-.97-.14-1.08-1.19-2.12-3.13-3.13l.14-.68c1.51,.29,2.66,.4,3.38,.4,.58,0,.86-.18,.86-.54v-8.24c-.4,.14-.76,.29-1.08,.4-.22,.07-.4,.25-.47,.54-.11,.14-.22,.36-.29,.58-.22,.36-.43,.54-.72,.54s-.68-.9-1.12-2.74c-.11-.5-.29-1.33-.58-2.48,1.44-.11,2.88-.25,4.25-.4v-6.62c-1.87,0-3.17,.07-3.96,.14l-.54-1.4c1.04,.22,2.56,.29,4.5,.29Zm12.45-.29h2.99V3.35c0-1.04-.11-2.12-.29-3.24,1.66,.18,3.24,.4,4.75,.68,.94,.04,1.44,.29,1.44,.76,0,.14-.29,.36-.86,.61-.65,.25-.94,.58-.94,.94v5.33h2.52c.4-.43,.76-.86,1.12-1.22,.5-.58,.9-.9,1.12-.9,.4,0,1.12,.4,2.2,1.12,1.26,1.01,1.91,1.66,1.91,1.98,0,.29-.29,.65-.86,1.01-.47,.4-.68,.76-.68,1.12v12.92l.25,6.91c0,.43-.65,.79-1.87,1.01-.58,.07-.97,.11-1.19,.11-.68,0-1.01-.4-1.01-1.12v-1.69h-10.94v1.94c0,.47-.61,.83-1.84,1.04-.54,.07-.94,.11-1.15,.11-.86,0-1.26-.4-1.26-1.15,.18-2.7,.29-5.07,.29-7.16V13.35c0-1.76-.11-3.92-.29-6.48,1.66,.4,3.17,.9,4.61,1.55Zm2.99,9.68V9.39h-3.35v8.71h3.35Zm0,10.55v-9.54h-3.35v9.54h3.35Zm4.1-10.55h3.49V9.39h-3.49v8.71Zm0,10.55h3.49v-9.54h-3.49v9.54Z"/><path class="cls-1" d="M126.18,22.61h7.09c.36-1.33,.65-2.88,.79-4.61,1.22,.29,2.3,.61,3.17,.9,1.37,.43,2.05,.83,2.05,1.19s-.29,.61-.83,.72c-.47,.11-.72,.29-.72,.54-.07,.47-.18,.9-.29,1.26h9.14c.07,0,.4-.43,1.04-1.22,.72-.94,1.19-1.44,1.33-1.44,.36,0,.97,.47,1.84,1.4,.83,.94,1.26,1.48,1.26,1.69,0,.4-.22,.58-.58,.58h-12.89c.58,.65,1.3,1.26,2.12,1.8,1.12,.76,2.63,1.4,4.5,1.94,2.3,.68,4.86,1.22,7.7,1.58l-.14,.72c-1.12,.4-1.84,.94-2.12,1.66-.4,.86-.72,1.3-.97,1.3-.43,0-1.26-.25-2.45-.68-1.37-.47-2.77-1.12-4.28-1.94-1.19-.61-2.27-1.44-3.2-2.52-.9-.9-1.66-2.2-2.23-3.85h-.4c-.43,1.3-1.04,2.45-1.76,3.46-1.01,1.3-2.52,2.41-4.54,3.35-2.09,.86-5.54,1.69-10.4,2.48l-.14-.43c3.92-1.3,6.66-2.48,8.24-3.53,1.58-.97,2.81-2.16,3.64-3.56,.29-.5,.58-1.12,.79-1.76h-6.77c-2.05,0-3.49,.07-4.36,.14l-.54-1.4c1.12,.18,2.74,.25,4.9,.25ZM133.02,.97c1.15,.14,1.76,.4,1.76,.68,0,.43-.36,.76-1.01,.97-.47,.14-.68,.43-.68,.86v15.48c0,.47-.58,.79-1.73,1.01-.5,.07-.86,.11-1.08,.11-.86,0-1.3-.36-1.3-1.12,.18-2.23,.29-4.32,.29-6.19v-.43h-1.66c-.22,1.08-.47,2.09-.83,3.02-.36,.94-.72,1.69-1.12,2.23-.43,.61-.97,1.15-1.58,1.58-.79,.58-1.62,1.01-2.56,1.33l-.25-.58c.43-.5,.79-1.01,1.12-1.55,.25-.47,.5-1.04,.72-1.69,.14-.43,.29-1.12,.43-1.98,.14-.72,.25-1.48,.32-2.34-.97,0-1.8,.04-2.45,.11l-.58-1.4c1.26,.22,2.81,.29,4.64,.29h3.78v-3.78h-2.81v.97c0,.4-.54,.68-1.62,.86-.5,.07-.83,.11-1.04,.11-.65,0-.97-.22-.97-.68,.07-.58,.14-.97,.14-1.26V3.92c0-1.08-.14-2.02-.43-2.81,.97,.14,2.16,.29,3.53,.47,1.3,.14,1.94,.36,1.94,.65,0,.43-.32,.72-.9,.94-.43,.18-.65,.47-.65,.9v2.52h2.81c0-2.38-.14-4.43-.4-6.19,1.08,.11,2.45,.29,4.14,.58Zm9.9-.22c1.01,.29,1.55,.54,1.55,.79,0,.29-.32,.5-.94,.58-.5,.11-.83,.25-.9,.4-.22,.18-.36,.32-.5,.43h3.35c.32-.29,.65-.58,.94-.86,.5-.43,.86-.68,1.15-.68s1.04,.43,2.2,1.26c1.08,.94,1.62,1.55,1.62,1.84,0,.22-.4,.4-1.15,.61-.76,.14-1.19,.25-1.26,.36-1.12,.86-2.2,1.58-3.2,2.16,1.12,.18,1.87,.32,2.27,.43,1.37,.25,2.05,.58,2.05,.94,0,.29-.29,.58-.83,.79-.58,.14-.83,.4-.83,.76v1.12h.83c.22-.29,.47-.76,.76-1.37,.4-.79,.65-1.19,.79-1.19,.22,0,.68,.47,1.33,1.37,.58,.79,.9,1.33,.9,1.62,0,.36-.14,.54-.4,.54h-4.21v3.53c0,1.26-.36,2.12-1.08,2.63-.83,.58-1.66,.86-2.45,.86-.25,0-.4-.25-.47-.83-.14-.86-1.08-1.76-2.77-2.66l.14-.58c1.08,.22,1.87,.29,2.38,.29,.47,0,.72-.18,.72-.58v-2.66h-7.74c-.72,0-1.66,.07-2.81,.14l-.58-1.4c1.44,.22,2.59,.29,3.38,.29h7.74v-1.01c0-.5-.07-1.33-.22-2.48-1.26,.61-2.52,1.08-3.78,1.44-1.98,.61-4.07,1.12-6.26,1.48l-.29-.54c1.04-.36,2.05-.72,3.06-1.15-.22-.22-.36-.47-.47-.79-.25-.79-.68-1.58-1.26-2.3-.43,.14-.9,.29-1.33,.43l-.29-.43c1.04-.65,2.16-1.55,3.38-2.74,1.01-.94,1.87-2.12,2.66-3.56,1.08,.29,2.02,.54,2.81,.76Zm-4.14,5.76c.5,.29,.76,.65,.76,1.08,0,.36-.11,.68-.29,1.01,.43-.22,.83-.4,1.26-.61,.29-.14,.54-.29,.79-.43-.29-.11-.54-.36-.76-.79-.29-.65-.79-1.3-1.44-1.91-.65,.36-1.4,.68-2.23,1.01,.86,.22,1.48,.43,1.91,.65Zm1.55,7.63c.5,.36,.76,.72,.76,1.15,0,.61-.25,1.19-.76,1.69-.36,.4-.79,.58-1.33,.58-.29,0-.54-.32-.72-1.01-.29-.97-.76-1.91-1.4-2.81l.29-.54c1.51,.29,2.56,.61,3.17,.94Zm2.74,4.72c.58,.32,.86,.68,.86,1.08,0,.61-.29,1.19-.79,1.69-.36,.4-.79,.58-1.33,.58-.36,0-.65-.32-.86-1.01-.32-.9-.86-1.8-1.66-2.66l.25-.54c1.66,.29,2.84,.58,3.53,.86Zm-.68-14.04c.54,.29,.83,.58,.83,.94,0,.29-.07,.5-.14,.72,.22-.14,.43-.32,.61-.47,.72-.65,1.33-1.33,1.91-2.09h-4.82c-.22,.14-.4,.25-.58,.32,1.01,.22,1.73,.4,2.2,.58Z"/><path class="cls-1" d="M167.97,6.59c-2.02,2.09-4.03,3.78-6.01,5-1.37,.76-2.02,1.19-2.02,1.33v1.01c-.07,.58-.22,.83-.43,.83-.32,0-.86-.65-1.66-1.98-.43-.65-.97-1.55-1.58-2.66,3.1-.68,6.88-2.02,11.41-3.96l.29,.43Zm-5.94-3.09c.07,0,.47-.43,1.12-1.22,.79-.94,1.3-1.44,1.44-1.44,.4,0,1.04,.47,1.91,1.4,.86,.94,1.33,1.48,1.33,1.69,0,.4-.22,.58-.58,.58h-5.22c-2.09,0-3.6,.04-4.5,.11l-.54-1.4c1.15,.22,2.84,.29,5.04,.29Zm7.52,24.94c.97,.54,1.48,.94,1.48,1.22s-.25,.43-.72,.5c-.58,0-.86,.11-.94,.32-1.3,.43-2.7,.86-4.14,1.22-1.66,.4-4.28,.83-7.81,1.33l-.29-.58c2.2-.79,4.14-1.62,5.79-2.48,1.94-1.04,3.28-2.05,4.03-2.99,.97,.58,1.84,1.04,2.59,1.44Zm-3.17-14.11h12.38c.4-.36,.76-.68,1.08-.97,.32-.32,.58-.54,.79-.65-.58-.4-1.08-.83-1.55-1.26-.76-.79-1.44-1.58-2.02-2.45-.5,.79-1.01,1.37-1.58,1.8-.94,.72-2.05,1.33-3.35,1.76-1.4,.58-3.35,.97-5.87,1.19l-.14-.54c1.58-.43,3.06-1.04,4.36-1.8,1.01-.54,1.84-1.22,2.52-2.09,.68-.72,1.3-2.12,1.83-4.14,1.15,.25,2.09,.43,2.74,.58,1.15,.22,1.76,.5,1.76,.83s-.22,.54-.61,.65c-.58,.11-.86,.25-.94,.47-.04,.07-.07,.14-.11,.18,1.33,1.08,2.81,1.91,4.39,2.45,1.94,.68,3.89,1.19,5.83,1.48v.68c-.86,.29-1.48,.83-1.91,1.69-.22,.65-.4,.97-.61,.97s-.58-.11-1.08-.32c.22,.29,.36,.47,.36,.61,0,.32-.25,.68-.68,1.08-.4,.43-.58,.83-.58,1.19v1.69l.29,7.16c0,.47-.68,.79-1.98,1.01-.58,.07-1.01,.11-1.26,.11-.65,0-.97-.36-.97-1.12v-.14h-13.79v.43c0,.47-.61,.79-1.8,1.01-.54,.07-.94,.11-1.15,.11-.86,0-1.26-.36-1.26-1.12,.18-2.74,.29-5.11,.29-7.2v-.54c0-1.76-.11-3.92-.29-6.48,1.73,.43,3.38,.97,4.89,1.69Zm13.1,3.67v-2.7h-13.79v2.7h13.79Zm0,3.64v-2.66h-13.79v2.66h13.79Zm0,3.82v-2.84h-13.79v2.84h13.79ZM174.13,.86c.94,.29,1.4,.61,1.4,.94,0,.29-.29,.47-.79,.54-.54,.07-.83,.18-.86,.32-.22,.43-.47,.86-.72,1.26h8.71c.43-.4,.83-.72,1.19-.97,.47-.47,.83-.72,1.08-.72,.29,0,1.04,.5,2.27,1.51,1.08,.86,1.66,1.51,1.66,1.87,0,.29-.29,.47-.83,.54-.65,0-1.04,.07-1.15,.14-1.12,.86-2.52,1.73-4.21,2.56l-.54-.29c.43-1.15,.79-2.38,1.12-3.67h-9.93c-.43,.58-.86,1.12-1.3,1.55-.97,1.01-2.23,2.05-3.82,3.1l-.43-.43c1.12-1.51,1.98-2.92,2.56-4.21,.58-1.37,1.08-2.99,1.51-4.9,1.08,.29,2.09,.58,3.1,.86Zm7.16,27.36c1.44,.29,2.56,.68,3.42,1.22,.65,.43,.97,1.01,.97,1.76,0,.58-.18,1.04-.47,1.4-.4,.29-.86,.43-1.37,.43-.58,0-1.62-.54-3.06-1.62-1.44-1.08-3.6-2.05-6.51-3.02l.29-.72c2.81,.07,5.04,.25,6.73,.54Z"/><path class="cls-1" d="M196.92,12.92h1.4V6.3c0-2.3-.11-4.32-.29-6.05,1.08,.11,2.41,.29,4.07,.58,1.15,.14,1.73,.4,1.73,.72,0,.36-.36,.65-1.08,.86-.5,.14-.76,.43-.76,.79V12.92h.83c.07-.04,.36-.4,.94-1.04,.65-.79,1.04-1.22,1.19-1.22,.32,0,.86,.43,1.66,1.22,.76,.79,1.15,1.3,1.15,1.48,0,.36-.22,.54-.58,.54h-5.18v2.02c1.87,.72,3.24,1.33,4.1,1.87,1.01,.65,1.51,1.26,1.51,1.76,0,.72-.22,1.3-.65,1.76-.36,.5-.83,.76-1.33,.76-.43,0-.79-.07-1.12-.25-.29-.18-.61-.79-.97-1.84-.25-.72-.76-1.51-1.55-2.45v14.36c0,.43-.58,.79-1.66,1.04-.5,.07-.83,.11-1.01,.11-.86,0-1.3-.4-1.3-1.15,.18-2.16,.29-4.1,.29-5.9v-5.76c-1.12,2.02-2.12,3.53-2.99,4.54-.86,1.12-1.84,2.09-2.92,2.92l-.54-.29c2.7-4.68,4.57-9.18,5.62-13.5h-.58c-2.05,0-3.49,.07-4.36,.14l-.58-1.4c1.15,.22,2.77,.29,4.93,.29Zm-.58-7.31c.76,.97,1.15,1.87,1.15,2.66,0,.86-.32,1.51-.9,2.02-.36,.36-.83,.5-1.37,.5-.22,0-.4-.11-.54-.4-.18-.25-.32-.86-.43-1.8-.14-1.4-.54-3.06-1.12-4.97l.4-.29c1.22,.76,2.16,1.51,2.81,2.27Zm10.91-1.19c1.26,.43,1.91,.9,1.91,1.33,0,.25-.29,.43-.83,.5-.58,.11-.94,.25-1.01,.47-1.04,1.48-2.45,2.84-4.21,4.07l-.58-.54c.86-2.09,1.4-4.46,1.69-7.05,1.08,.4,2.09,.79,3.02,1.22Zm16.41,14.54c1.01,.79,1.51,1.3,1.51,1.55,0,.4-.11,.58-.25,.58l-5.22,.94v9.86c0,.43-.58,.79-1.73,1.04-.5,.07-.86,.11-1.08,.11-.86,0-1.26-.4-1.26-1.15,.18-2.27,.29-4.32,.29-6.19v-2.99l-6.48,1.19c-.58,.07-1.15,.22-1.69,.4l-.83-1.55c.97,.11,1.73,.14,2.23,.14l6.77-1.3V6.59c0-2.38-.14-4.5-.43-6.33,1.08,.11,2.48,.29,4.18,.58,1.15,.14,1.73,.4,1.73,.72,0,.4-.32,.72-.97,.94-.5,.14-.72,.43-.72,.86V20.88l.18-.04c.29-.76,.58-1.44,.86-2.02,.32-.72,.58-1.12,.79-1.12,.36,0,1.04,.43,2.12,1.26Zm-10.87-4.71c.76,.76,1.15,1.62,1.15,2.59,0,.68-.29,1.33-.86,1.91-.4,.43-.9,.65-1.55,.65-.5,0-.9-.58-1.22-1.8-.47-1.69-1.26-3.35-2.41-4.97l.29-.54c2.2,.68,3.74,1.4,4.61,2.16Zm1.12-8.57c.76,.76,1.15,1.62,1.15,2.59,0,.65-.29,1.22-.79,1.8-.4,.4-.86,.58-1.44,.58-.5,0-.97-.58-1.33-1.73-.47-1.66-1.3-3.28-2.48-4.86l.29-.58c2.2,.72,3.74,1.44,4.61,2.2Z"/></svg>