<?xml version="1.0" encoding="UTF-8"?><svg id="_離模式" xmlns="http://www.w3.org/2000/svg" viewBox="0 0 130.92 15.83"><defs><style>.cls-1{fill:#fff;}</style></defs><path class="cls-1" d="M28.72,6.94c-.05,.08-.07,.21-.07,.39-.05,1.1-.19,1.89-.41,2.36-.24,.52-.64,1.07-1.19,1.65-.65,.66-1.16,.97-1.53,.94-.21-.03-.36-.17-.45-.41-.1-.33,.04-.64,.41-.93,.76-.59,1.32-1.12,1.67-1.58,.55-.75,.69-1.47,.45-2.16-.04-.08-.1-.13-.16-.13-.56-.03-.95-.03-1.16,0-.53,.15-.95,.08-1.25-.19-.24-.22-.22-.42,.04-.61,.5-.36,.92-.49,1.27-.38,.37,.06,.9,.12,1.61,.17,.36,.1,.6,.21,.74,.36,.13,.16,.14,.34,.02,.53m-2.52-2.22c-.31-.02-.5-.12-.57-.31-.03-.18,.09-.37,.33-.56,.51-.37,1.03-.44,1.56-.22,.32,.1,.55,.17,.66,.2,.33,.02,.57,.12,.71,.29,.14,.17,.15,.31,.04,.42-.17,.15-.46,.21-.88,.18-.68,0-1.29,0-1.85,0m7.71,2.44c-.04,.59,0,1.86,.16,3.81,.05,.85,.02,1.39-.11,1.64-.16,.27-.35,.4-.57,.4-.23-.02-.4-.17-.51-.45-.09-.26-.1-.87-.05-1.82,.02-2.11,0-3.35-.05-3.73-.85-.04-1.62,.1-2.3,.42-.41,.21-.71,.19-.93-.04-.21-.23-.17-.54,.1-.91,.12-.15,.28-.22,.47-.2,.16-.01,.55-.05,1.15-.11,.68-.09,1.35-.13,2.03-.09,.03,0,.06,0,.09,0,.3-.04,1.32,.07,3.08,.3,.26,.04,.33,.15,.2,.37-.22,.34-.42,.61-.65,.8-.27,.21-.55,.23-.87,.06-.41-.25-.83-.41-1.26-.46m-1.84-3.74c.39,.06,.8,.1,1.26,.13,.96,0,1.47,.08,1.56,.21,.1,.18,.1,.36-.01,.55-.15,.19-.43,.27-.82,.24-1.03-.03-1.71,0-2.06,.11-.52,.16-.85,.13-1.01-.08-.12-.21-.08-.45,.14-.72,.31-.35,.62-.5,.95-.45"/><path class="cls-1" d="M39.41,11.01c-.02-.43-.04-1.48-.08-1.98-.03-.26-.05-.47-.06-.63-.12-.58-.14-.93-.05-1.06,.09-.17,.22-.26,.41-.26,.17,0,.34,.09,.5,.26,.14,.13,.2,.32,.17,.59-.02,.26,0,1.57,.03,2.78,.05-.01,.11-.01,.17,0,.17-.01,.03-.04,.2-.05,0-.02,.02-.05,.03-.07,.07-.29,.11-1.57,.12-2.69,0-1.14-.01-2.45-.05-2.75-.01-.02-.02-.03-.02-.05-.36-.04-.4,0-.77,.14-.51,.15-.86,.12-1.04-.09-.12-.22-.07-.46,.14-.74,.31-.37,.64-.52,.98-.47,.58,.08,1.31,.11,2.2,.11,.93-.06,1.14-.01,1.27,.17,.1,.19,.1,.38-.01,.56-.15,.21-.44,.29-.86,.27-.24-.01-.46-.01-.68,0-.05,.71-.09,1.94-.11,2.63,0,0,0,0,.01,0,.38-.22,.59-.34,.61-.37,.15-.2,.27-.3,.35-.29,.11,.03,.24,.16,.39,.3,.2,.19,.29,.36,.29,.49,0,.12-.12,.23-.39,.35-.52,.06-.95,.09-1.28,.09,0,.73,0,1.85,.01,2.17,.38-.13,.75-.21,1.13-.28,.45,0,.7,.12,.73,.4,.02,.17-.14,.3-.46,.38-1,.31-1.61,.61-2.46,.86-.53,.15-.97,.31-1.35,.47-.41,.13-.72,.09-.94-.13-.15-.21-.1-.42,.17-.63,.25-.21,.49-.38,.71-.49m7.82-.15c-.23,.32-.38,.48-.64,.69-.05,.02-.09,.06-.13,.09-1.15,.72-1.78,.76-2.59,.44-.25-.1-.39-.27-.45-.49-.03-.15,.02-.31,.16-.47,.18-.16,.43-.24,.76-.23,.38,.04,.35,.08,.73,.05,.75-.12,1-.16,1.55-.87-.27-.34-.75-1.14-1.38-1.64-.33-.27-.66-.18-.7-.41-.04-.2,.34-.48,.58-.52,.47-.06,1.7,1,2.17,1.66,.46-.66,.57-1.5,.66-1.78,.14-.41,.05-.59,.17-.73,.14-.18,.29-.25,.45-.23,.19,.04,.34,.11,.45,.21,.1,.12,.17,.26,.21,.46,.02,.18,0,.34-.09,.48-.08,.14-.39,1.06-.65,1.46-.1,.15-.31,.48-.5,.75,1.29,1.22,2.64,1.67,3.77,2.02,.24,.07,.19,.25-.07,.35-.66,.26-1.07,.37-1.6,.43-.38,.04-.8,.13-1.23-.05-.55-.41-1.64-1.64-1.62-1.66m-1.39-4.59c-.12,.3-.66,.92-.96,1.09-.3,.16-.5,.18-.62,.08-.15-.14-.1-.46,.18-.92,.59-1,.79-1.87,.75-2.76-.01-.28,.02-.45,.21-.53,.16-.07,.37-.01,.62,.15,.22,.15,.38,.32,.47,.52,.07,.16,.08,.31,.01,.44-.32,.69-.23,.52-.28,.83,.06-.04,.43-.05,1.12-.05,1.74,0,2.66,.03,2.75,.08,.14,.09,.18,.22,.14,.41-.2,.67-.6,.88-1.19,.64-.14-.07-.33-.1-.58-.11-1.02-.12-1.89-.07-2.62,.14"/><path class="cls-1" d="M58.32,6.79c.15,0,.31-.05,.46-.17,.14-.13,.19-.41,.17-.83,0-.38,.14-.59,.43-.63,.32-.15,1.2-.21,2.66-.14,.25,0,.46,0,.66,0,.45,0,.72,.05,.82,.12,.03,0,.07,.05,.12,.15,.05,.1,.09,.23,.12,.38,.14,.55,.25,.87,.34,.95,.09,.09,.19,.14,.3,.14,.11-.01,.22-.07,.33-.2,.15-.18,.21-.51,.15-.99,0-.19,0-.29,0-.34,.01-.15,0-.3-.06-.44-.06-.14-.21-.27-.45-.4-.35-.19-1.22-.27-2.6-.24,0-.09,.03-.23,.09-.42,.1-.11,.12-.26,.04-.42-.09-.18-.27-.3-.56-.35-.25-.04-.45,0-.63,.13-.14,.11-.17,.31-.09,.61,.03,.19,.05,.34,.06,.47-1.38-.03-2.19,.08-2.44,.32-.03,.01-.15,.42-.37,1.22-.02,.42,0,.7,.08,.84,.09,.14,.21,.22,.37,.26"/><path class="cls-1" d="M62.22,5.93c-.45,0-.8-.02-1.01-.04-.22,0-.43-.04-.64-.08-.3-.03-.57,.1-.83,.39-.19,.22-.22,.42-.12,.61,.16,.22,.42,.24,.8,.1,.23-.11,.83-.15,1.77-.12,.35,.02,.57-.04,.7-.21,.11-.15,.12-.31,.03-.47-.09-.14-.32-.19-.69-.17"/><path class="cls-1" d="M57.56,8.33c.06-.43-.08-.94-.43-1.54-.27-.24-.25-.57,.05-.98,.65-.53,.78-1,.37-1.41-.22-.19-.54-.29-1-.3-.39,0-.77-.09-1.13-.25-.31-.09-.63-.11-.95-.07-.25,.02-.43,.11-.56,.26-.19,.17-.26,.34-.23,.5,0,.08,.08,.16,.2,.24,.16,.42,.17,2.13,.04,6.45-.03,.42,.04,.79,.18,1.09,.14,.29,.3,.43,.48,.45,.16,0,.29-.1,.39-.31,.11-.24,.17-.51,.17-.84-.02-.88-.04-1.02-.06-1.76,.74,.15,1.35,0,1.86-.47,.37-.21,.58-.56,.62-1.04m-1.36,.27c-.29,.34-.63,.54-1.02,.59-.04,0-.07,0-.1,.02-.03-1.63-.04-2.86-.03-3.67,0-.3,.04-.57,.13-.82,.47-.03,.82,.01,1.05,.15,.13,.03,.22,.1,.24,.2,.05,.48-.15,.92-.61,1.29-.3,.19-.43,.41-.39,.65,.04,.18,.15,.21,.36,.09,.47-.23,.71,.06,.72,.85-.03,.22-.14,.43-.35,.64"/><path class="cls-1" d="M65.74,10.83c-1.02,.73-1.81,.92-2.75,.58-.19-.08-.33-.16-.42-.26-.13-.13-.2-.31-.22-.55,.05-.93-.03-1.62-.02-1.74,.03-.17,0-.31,.01-.48,.14,0,.3,.01,.49,.03,.43,.06,.72,.04,.89-.08,.35-.23,.54-.44,.58-.6,.03-.17-.16-.26-.6-.26-2.92-.03-4.42-.04-4.51-.02-.34,0-.63,.18-.86,.52-.11,.24-.11,.45,.01,.65,.16,.22,.55,.22,1.15,0,.09-.03,.19-.06,.3-.09,.1,.83-.19,1.56-.89,2.17-.24,.21-.46,.35-.66,.42-.41,.15-.72,.34-.92,.57-.15,.15-.22,.34-.17,.58,.05,.13,.17,.22,.37,.3,.19,.1,.44,.09,.75-.02,1.03-.49,1.76-1.28,2.19-2.35,.11-.31,.17-.46,.21-.85,.02-.24,.04-.37,.05-.51,.02-.14-.08-.46,.02-.48,.19-.02,.43,0,.63,.02,0,.03,0,.11,0,.18,.01,.27-.02,1.04-.05,1.99-.01,.55,.07,.99,.26,1.3,.27,.45,1.26,.86,2.93,1.25,.48,.04,.87-.18,1.2-.63,.21-.35,.36-.79,.44-1.34,.02-.41-.11-.51-.41-.31"/><path class="cls-1" d="M71.71,7.18c-.16,0,.31,0,.47,.01,.08,0,2.39,.01,5.15,.01,.39,0,.57,.08,.54,.22-.01,.01-.02,.04-.02,.07-.27,.45-.7,.58-1.28,.49-1.25-.15-3.17-.17-3.99-.07-.68,.13-1.05,.24-1.13,.32v.16c.17-.04,2.03-.04,3.77-.01,1.46,0,2.23,.06,2.34,.14,.06,.09,.07,.14,.04,.25-.04,.13-.18,.18-.46,.18-2.41-.1-4.91-.06-5.73,.09,0,.06-.02,.24-.02,.33,.38-.01,1.97-.01,2.97-.01,.65,0,1.25-.01,1.8-.01,1.22-.03,1.93,0,2.11,.09,.1,.09,.14,.2,.1,.34-.07,.2-.17,.26-.34,.4-.16,.13-.39,.13-.68,.02-.27-.1-.62-.17-1.08-.21,.08,.09,.12,.25,.12,.47,.41,.4,.85,.54,1.33,.73,.9,.34,1.47,.48,2.11,.4,.48-.03,.63,.11,.44,.39-.15,.24-.65,.54-1.46,.89-.38,.18-.78,.09-1.21-.26-.92-.95-1.29-1.32-1.79-1.45-.06-.01-.1-.03-.11-.04-.68,.24-1.14,.3-1.38,.16-.17-.12-.1-.25,.23-.39,.43-.21,.75-.45,.97-.7,.08-.11,.16-.18,.25-.21-.55-.05-2.12-.04-2.9,0,.06,.1,.07,.22,.02,.36-.09,.43-.12,.59-.12,.83-.07,.32,.04,.46,.33,.43,.3-.02,.58-.04,.86-.08,.42-.04,.63,.03,.65,.21,.03,.16-.21,.31-.73,.45-1.03,.28-1.69,.5-2,.66-.4,.2-.69,.18-.85-.06-.15-.21-.04-.47,.33-.79,.31-.26,.49-.56,.51-.88,.05-.34,0-.51-.1-.86-.06-.07-.09-.12-.1-.16-.21,.03-.4,.06-.54,.1-.2,.41-.32,.84-.6,1.19-.28,.35-.44,.56-1.18,1.14-.2,.15-.43,.17-.72,.07-.55-.23-.82-.45-.83-.67,0-.1,.13-.21,.38-.31,1.94-.76,2.34-1.67,2.34-3.06-.1-.46-.12-.74-.04-.85,.11-.19,.3-.34,.56-.43,0,0,.38-.11,.69-.09"/><path class="cls-1" d="M71.06,6.76c-.21,0-.35-.01-.43-.07-.25-.16-.37-.34-.37-.76-.05-.8-.07-1.19-.07-1.4-.06-.5,0-.78,.2-.96,.13-.12,.96-.18,1.9-.18,0-.25,.07-.42,.18-.5,.22-.19,.42-.2,.59-.02,.12,.14,.19,.29,.21,.48,.35-.01,1.23-.02,1.53-.02,.02-.23,.1-.38,.21-.48,.24-.16,.44-.15,.6,.04,.08,.12,.15,.27,.17,.44,.89-.04,1.77,.03,2.05,.25,.23,.2,.33,.44,.27,.81-.07,.36-.11,.63-.12,1.02,.01,.55-.09,.79-.31,.96-.25,.22-.6,.29-1.06,.21-.22-.04-1.39-.05-2.43-.05-.82,0-2.25,.08-2.47,.15-.22,.07-.66,.08-.66,.08m1.29-2.42c0-.11-.01-.19-.01-.25-.51,.02-1.08,.08-1.16,.16-.04,.03-.05,.14-.05,.31,.23,.03,.82,.04,1.23,.05v-.27Zm0,.93v-.06c-.42,0-1,.03-1.18,.06,.03,.3,.08,.47,.14,.51,.09,.07,.29,.1,.58,.09,.08,0,.42,0,.49,0-.03-.16-.03-.36-.03-.6m2.46-.93v-.31c-.49-.02-1.38-.02-1.55,.02,0,.2,0,.38,0,.57h.87c.13-.01,.54-.01,.67,0,0-.1,0-.19,.02-.27m-.05,.93v-.11c-.17,0-1.03,0-1.48,.02,.02,.25,.01,.47-.02,.66,.34-.02,1.21-.04,1.48-.04,0-.15,0-.33,.03-.53m.92-.11c0,.23,0,.44-.04,.63,.64-.08,1.23-.11,1.24-.11,.06-.08,.1-.22,.11-.46-.24-.04-.86-.06-1.31-.05m.08-1.11c-.03,.17-.04,.34-.05,.54,.44-.03,1.05-.05,1.28-.06-.03-.2-.06-.32-.1-.36-.1-.07-.66-.12-1.13-.13"/><path class="cls-1" d="M99.09,10.99c-.18-.09-.35-.18-.51-.26-.97-.49-1.45-.8-1.45-.93-.69,.13-1.42,.38-2.18,.79-.43,.22-.77,.21-1-.04-.21-.26-.17-.58,.12-.97,.19-.25,.45-.37,.8-.37,.29,0,.93-.06,1.95-.18,.2-.03,.4-.04,.59-.05,.09-.13,.4-.42,.95-.87,.36-.26,.59-.47,.67-.63,.16-.24,.34-.36,.57-.36,.03,0,.05,0,.06,.01-.28-.3-.39-.89-.34-1.77-.55,0-1.99,.12-2.64,.36-.63,.24-1.03,.24-1.2,0-.14-.2-.15-.31-.02-.56,.16-.26,.44-.45,.82-.54,.32-.06,1.75-.07,2.6-.02,.15,0,.3,0,.46,0-.02-.16-.04-.41-.08-.52-.97-.1-1.55-.19-1.73-.26-.29-.08-.42-.17-.38-.28,.03-.09,.2-.16,.5-.19,0,0,.03,0,.05,0,1.76-.19,2.73-.33,2.91-.42,.27-.18,.46-.24,.54-.21,.13,.07,.25,.22,.38,.46,.15,.29,.2,.53,.14,.69-.04,.15-.25,.24-.61,.27-.24,0-.46,0-.67,0-.05,.11-.08,.33-.08,.46,.82,0,2.51-.01,3.38-.01,.45,0,.66,.07,.63,.26-.04,.18-.24,.28-.59,.52-.19,.13-.5,.16-.95,.09-.59-.07-1.97-.1-2.45-.1,0,.23,.03,.5,.05,.82,0,.29-.05,.55-.16,.77-.09,.19-.2,.27-.34,.27,.03,.02,.06,.05,.08,.08h0s.09,.03,.14,.06c1.1,.56,1.81,1.1,2.12,1.63,.98,.1,2.12,.23,3.41,.39,.28,.04,.36,.17,.22,.42-.13,.17-.25,.33-.37,.49-.41,.49-.87,.61-1.37,.37-.88-.49-1.57-.73-2.06-.73-.18,.26-.47,.54-.83,.87,1.02,.37,1.65,.74,1.86,1.14,.09,.19,.1,.36,.04,.49-.12,.19-.32,.3-.58,.33-.23,.04-.67-.18-1.32-.63-.36-.2-.69-.39-1.02-.55-.71,.48-1.4,.87-2.09,1.16-.66,.26-1.13,.34-1.4,.24-.25-.1-.38-.25-.4-.44-.02-.25,.04-.48,.21-.67,.16-.19,.66-.38,1.47-.54,.28-.05,.42-.08,.42-.08,0,0,.22-.08,.67-.24m-1.53-4.68c.15-.18,.38-.2,.7-.06,.29,.14,.37,.35,.26,.61-.12,.26-.37,.42-.75,.5-.31,.09-.63,.2-.98,.34-.3,.12-.57,.2-.81,.23-.14,.02-.2-.05-.22-.2-.01-.14,.16-.31,.51-.52,.44-.21,.87-.51,1.29-.91m3.04,3.87c.22-.2,.37-.34,.46-.43-.74-.13-1.55-.16-2.46-.11,.19,.26,.66,.51,1.42,.72,.08,.02,.15,.05,.21,.08,.13-.09,.25-.17,.37-.26m.28-1.31c-.3-.23-.62-.47-.96-.71-.12,.14-.29,.26-.53,.33-.27,.12-.44,.24-.5,.37,.65-.02,1.32-.02,1.99,0m.46-2.83c.89,.34,1.58,.57,2.05,.7,.27,.12,.31,.25,.13,.41-.15,.14-.36,.28-.63,.4-.25,.09-.51,.02-.79-.19-.44-.33-.81-.66-1.13-.99-.15-.17-.19-.29-.13-.37,.06-.08,.23-.07,.5,.04"/><path class="cls-1" d="M111.14,10.69c-.56,0-.99,.03-1.29,.07-.39,.04-.67-.09-.83-.36-.15-.21-.24-.54-.25-1-.03-1.87-.04-2.92-.02-3.14,.06-.25,.17-.41,.31-.5,.2-.15,.45-.21,.72-.17,.22,.03,.69,.03,1.44,0,3.07-.1,4.72,0,4.96,.29,.15,.16,.2,.42,.17,.78,0,.23,0,.5,0,.82,0,.55,0,1.01,0,1.38,0,.16,0,.34,.01,.52,0,.54-.09,.89-.3,1.07-.26,.21-.6,.3-1,.28-1.19-.05-2.2-.07-3.02-.05,0,0-.01,.01-.01,.03-.62,.97-1.44,1.67-2.43,2.09-.61,.17-1.01,.15-1.21-.06-.2-.22-.25-.44-.17-.66,.08-.23,.33-.39,.72-.47,.88-.19,1.62-.5,2.19-.92m-.46-7.52c2.79-.07,5.41,.01,5.62,.25,.19,.18,.26,.4,.19,.64-.16,.48-.39,.81-.68,.99-.16,.1-.42,.14-.77,.1-.53-.03-2.49-.02-3.62,.03-.91,.04-1.49,.09-1.75,.14-.18,.05-.31,.04-.39-.04-.12-.11-.2-.29-.25-.54-.04-.26-.11-.49-.2-.68-.08-.19-.05-.39,.08-.61,.11-.16,.33-.24,.64-.25,.3-.02,.68-.03,1.13-.04m1.81,5.24c1.43-.01,2.36-.05,2.78-.08v-.44c-.21-.07-.54-.1-.98-.1-2.21-.05-3.74-.02-4.58,.1,0,0,0,.02,.01,.05,0,.14,0,.27,.01,.41,.54,.06,1.46,.07,2.76,.07m-.03-1.31c1.45-.02,2.38-.04,2.81-.08,0-.25-.04-.38-.1-.42-.21-.16-1.23-.24-3.05-.23-1.46,.01-2.24,.07-2.32,.18-.05,.03-.07,.19-.08,.47,.52,.05,1.43,.07,2.74,.06m.03,2c-1.35,0-2.25,.05-2.71,.11,.03,.23,.06,.37,.09,.39,.15,.15,1.02,.22,2.63,.21,1.55-.02,2.44-.08,2.66-.22,.05-.04,.08-.17,.09-.37-.37-.08-1.29-.12-2.76-.11m-2.38-4.58c1.6-.05,4-.08,4.97-.09,.13-.06,.19-.1,.19-.13,0-.1,.02-.21,.02-.33,.02-.05-.02-.09-.09-.12-1.53-.14-3.98-.13-5.12,.02-.02,.05-.02,.08,0,.09-.05,.16-.05,.3-.01,.43-.02,.03,0,.06,.07,.12m6.16,7.43c.3,.06,.44,.2,.4,.41-.03,.24-.17,.44-.4,.58-.28,.18-.54,.18-.78,0-.14-.13-.62-.46-1.46-.98-.24-.15-.42-.3-.53-.43-.13-.15-.13-.24,0-.31,.11-.03,.37,.02,.81,.16,.81,.27,1.46,.47,1.96,.58"/><path class="cls-1" d="M126.55,4.84c.01,.06,.01,.14-.02,.22-.04,.14-.22,.22-.55,.22-1.34-.03-2.23,0-2.69,.07-.42,.1-.69,.03-.81-.18-.03-.07-.04-.12-.05-.15-.06,.03-.11,.05-.14,.09-1.55,.97-2.58,1.37-3.1,1.21-.2-.06-.37-.21-.51-.45-.12-.23-.13-.41-.01-.56,.14-.12,.39-.22,.76-.24,.24-.03,.77-.18,1.61-.44,1.53-.58,2.49-1.08,2.88-1.51,.06-.08,.12-.15,.17-.17,.06-.12,.13-.19,.21-.19,.17-.09,.34-.04,.54,.16,.51,.52,1.26,.95,2.26,1.3,1.49,.51,2.58,.75,3.29,.69,.47-.03,.62,.09,.46,.36-.14,.24-.58,.55-1.35,.93-.34,.18-.74,.12-1.16-.2-.7-.5-1.3-.89-1.8-1.16m-4.84,.92c.52-.06,1.03-.08,1.52-.08,2.93-.17,4.6,0,4.99,.53,.07,.14,.05,.33-.09,.57-.06,.14-.11,.35-.14,.62-.14,.84-.38,1.34-.74,1.5-.21,.1-.47,.12-.78,.04-.55-.14-1.25-.22-2.1-.21-.95,.04-1.59,.13-1.94,.27-.25,.12-.44,.13-.59,.02-.19-.13-.33-.42-.41-.84-.16-.91-.26-1.45-.32-1.6-.11-.25-.14-.43-.08-.54,.11-.16,.33-.25,.68-.29m4.17,7.06c-1.03-.09-1.87-.05-2.53,.12-.51,.1-.85,.1-1.01,0-.26-.16-.38-.46-.38-.92-.04-.56-.06-1-.07-1.55-.07-.53,0-.88,.2-1.07,.13-.12,.33-.18,.6-.18,2.65-.11,4.14-.05,4.45,.19,.26,.2,.35,.51,.29,.9-.07,.4-.11,.72-.12,1.18,.02,.55-.09,.93-.33,1.11-.26,.23-.63,.3-1.1,.21m-1.72-5.67c0-.36-.02-.58-.02-.67-.77,0-1.35,.04-1.72,.09-.18,.05-.27,.1-.31,.16-.08,.11-.05,.45,.08,1.01,.04,.16,.11,.25,.2,.29,.08,.04,.26,.04,.53,0,.43-.03,.83-.05,1.21-.05,0-.06,.01-.12,.02-.17,.01-.09,.02-.31,.01-.66m-1.57,.32c-.12-.09-.17-.21-.16-.38,.02-.21,.11-.33,.28-.34,.12-.02,.25,0,.39,.05,.13,.08,.24,.11,.33,.13,.25,.08,.37,.16,.37,.24,0,.12-.1,.19-.28,.23-.21,.03-.38,.08-.53,.13-.15,.02-.28,0-.4-.05m1.75,2.41c-.86,.03-1.33,.09-1.42,.17-.05,.02-.08,.27-.08,.51,.71,.08,1.85,.08,3.42,.02,0-.3-.04-.58-.1-.62-.13-.09-.74-.11-1.82-.09m1.82,1.97c.06-.07,.1-.34,.1-.58-.27-.05-.83-.07-1.67-.06-.87,0-1.43,.02-1.7,.08,.04,.35,.1,.65,.16,.69,.07,.04,.2,.06,.39,.05,1.8-.11,2.71-.17,2.72-.17m-1.39-7.89c-.22-.07-.4-.13-.54-.16-.24,.17-.58,.41-1.04,.72,.11-.01,.22-.02,.37-.01,1.64,.04,2.48,.06,2.51,.06-.34-.24-.77-.44-1.3-.61m.43,3.95v.04c1.06-.01,1.6-.02,1.63-.03,.08-.05,.13-.13,.17-.25,.1-.6,.1-.95,0-1.06-.26-.13-.87-.18-1.82-.14-.05,.54-.05,1.02,.02,1.44m1.39-1.05c.12,.06,.17,.15,.19,.29,.02,.2-.04,.31-.19,.34-.15,.06-.31,.07-.51,.03-.18-.05-.33-.06-.45-.05-.22-.01-.34-.06-.35-.14,0-.11,.07-.19,.21-.24,.24-.08,.44-.16,.6-.24,.2-.08,.36-.08,.5,0"/><path class="cls-1" d="M88.93,4.61c.23-.37,.46-.72,.69-1.07,.14-.21,.34-.22,.58-.02,.24,.18,.36,.38,.34,.59-.02,.21-.16,.36-.41,.45-.07,.01-.14,.04-.2,.07,1.62,.04,2.58,.05,2.85,.04,.33,0,.42,.14,.26,.42-.23,.38-.5,.69-.8,.93-.26,.19-.56,.21-.91,.08-.67-.3-1.29-.5-1.88-.61-2.42-.39-4.85-.21-7.26,.53-.46,.13-.79,.08-.97-.18-.14-.23-.06-.49,.24-.75,.36-.28,1.03-.42,1.98-.45,.11,0,.21,0,.31,0-.05-.06-.1-.11-.15-.17-.23-.16-.34-.34-.34-.54,.02-.11,.08-.21,.2-.3,.13-.06,.26-.09,.42-.08,.21,.02,.35,.08,.44,.19,.1,.11,.14,.22,.14,.32,.01,.17,.06,.35,.15,.56,.29-.02,.58-.02,.88-.01-.02-.78,.03-1.29,.13-1.52,.09-.13,.21-.2,.38-.18,.12,0,.21,.07,.3,.19,.07,.1,.11,.61,.11,1.5,.23-.02,.45-.02,.67-.01-.02-.81,.04-1.34,.17-1.6,.09-.13,.22-.19,.39-.18,.11,.02,.21,.08,.3,.2,0,.02,.02,.03,.03,.04,.02,.06,.04,.59,.04,1.56,.33,0,.64,.01,.93,.02m-2.55,5.54c-.63-.06-1.49,.07-2.57,.39-.42,.11-.7,.07-.85-.15-.14-.21-.07-.43,.19-.67,.11-.08,.22-.14,.33-.18,.29-.15,1.27-.22,2.93-.22,0-.16,0-.31,.01-.45-.65,0-1.23,.05-1.73,.14-.47,.09-.77,.03-.87-.19-.09-.18-.05-.35,.11-.51,.21-.18,1.03-.25,2.48-.21-.03-.29-.08-.5-.16-.64-.8,.04-1.45,.16-1.96,.34-.36,.12-.58,.05-.66-.23-.05-.18,.02-.37,.18-.56,.24-.28,.58-.4,1.02-.33,.12,.02,.26,.03,.45,.04-.17-.18-.34-.32-.5-.39-.17-.13-.2-.29-.12-.48,.07-.16,.23-.24,.47-.25,.33-.02,.57,.07,.71,.29,.09,.28,.19,.56,.28,.83,.6-.04,1.01-.04,1.21-.02,.04-.13,.11-.31,.19-.51,.1-.31,.14-.51,.15-.56,.08-.22,.26-.28,.52-.17,.26,.11,.41,.26,.45,.46,.02,.19-.07,.36-.26,.5-.09,.03-.2,.12-.34,.26,.33-.02,.58-.03,.73-.05,.87-.07,1.33,0,1.37,.25,.01,.16-.08,.35-.26,.57-.31,.31-.69,.4-1.15,.23-.39-.12-.74-.19-1.05-.23-.04-.01-.06-.01-.07,0-.09,.18-.14,.4-.17,.63,1.48-.04,2.31,.01,2.47,.16,.09,.09,.12,.23,.06,.39-.06,.16-.27,.24-.62,.24-.69-.02-1.33-.03-1.92-.01v.47c.85,.02,1.45,.03,1.79,.04,.71,.03,1.21,.03,1.51,.03,.29-.01,.37,.1,.22,.35-.5,.8-.99,1.1-1.5,.89-.73-.31-1.4-.47-2-.47,.02,.47,.04,1,.06,1.6,0,.33-.05,.61-.17,.84-.11,.21-.24,.31-.39,.31-.18,0-.33-.16-.47-.44-.14-.3-.21-.65-.19-1.09,.02-.39,.03-.8,.04-1.23m-2.04,2.07c-.24,.22-.48,.33-.69,.29-.22-.05-.36-.2-.43-.47-.04-.17,.02-.33,.16-.47,.1-.12,.33-.23,.68-.37,.45-.16,.89-.32,1.35-.48,.12-.03,.21-.01,.29,.01,.06,.04,.06,.08,.03,.15-.17,.28-.63,.73-1.39,1.34"/><path class="cls-1" d="M88.66,10.75c.8,.51,1.43,.87,1.88,1.1,.24,.16,.25,.31,.03,.42-.17,.11-.4,.2-.7,.27-.26,.03-.51-.08-.73-.35-.36-.41-.67-.81-.91-1.19-.11-.2-.13-.32-.06-.39,.08-.07,.24-.03,.48,.14"/><path class="cls-1" d="M18.82,3.12c-.1-.07-.21-.07-.31-.01-.06,.04-.11,.1-.14,.17,0,0-.08,.21,.11,.4,.08,.09,.19,.14,.26,.19,.06,.04,.16,.12,.21,.15,.05,.03,.12,.1,.14,.11h0s-.02-.12-.02-.17c-.01-.05-.02-.19-.02-.25,0-.08,0-.19-.03-.32-.04-.14-.12-.22-.19-.25"/><path class="cls-1" d="M17.46,2.54s.24,.19,.29,.56c.04,.31-.11,.54-.11,.54,0,0-.24-.28-.3-.58-.08-.38,.12-.52,.12-.52"/><path class="cls-1" d="M1.59,12.85C-.24,9.68,2,4.96,6.59,2.31,10.63-.02,15.13,.02,17.41,2.2c-2.28-2.51-7.16-2.62-11.51-.11C1.11,4.86-1.24,9.77,.66,13.05c1.79,3.1,6.71,3.65,11.28,1.39-4.25,1.9-8.69,1.29-10.35-1.59"/><path class="cls-1" d="M16.18,1.1s.22,.13,.52,.08c.43-.09,.63-.41,.79-.54-.2,0-.56-.13-.95,.08-.28,.14-.36,.38-.36,.38"/><path class="cls-1" d="M17.2,1.66s.17,.16,.44,.19c.39,.02,.64-.22,.82-.29-.18-.04-.47-.24-.85-.15-.27,.06-.41,.26-.41,.26"/><path class="cls-1" d="M17.97,2.54s.15,.12,.41,.12c.37-.01,.63-.23,.81-.3-.17-.02-.43-.17-.81-.06-.26,.07-.41,.24-.41,.24"/><path class="cls-1" d="M14.7,.55s.25,.14,.58,.08c.47-.1,.68-.45,.87-.59-.23,0-.63-.13-1.06,.09-.29,.16-.39,.42-.39,.42"/><path class="cls-1" d="M15.39,1.11s.34,.11,.46,.54c.09,.36-.08,.72-.08,.72,0,0-.34-.21-.46-.55-.15-.43,.07-.71,.07-.71"/><path class="cls-1" d="M16.63,1.75s.27,.18,.27,.58c0,.33-.23,.61-.23,.61,0,0-.25-.27-.28-.59-.03-.41,.23-.61,.23-.61"/><path class="cls-1" d="M14.16,.67s.38,.12,.5,.61c.11,.39-.07,.79-.07,.79,0,0-.38-.24-.51-.62-.16-.47,.09-.78,.09-.78"/><path class="cls-1" d="M10.48,12.68s-.01,.02-.02,.02c-.57,.6-1.42,1.07-2.4,1.28-2.08,.44-4.02-.43-4.35-1.94-.08-.35-.05-.71,.04-1.05,.31-1.08,1.53-2.39,3.25-3.39,.94-.54,1.9-.85,2.73-1.08,1.34-.38,2.22-.8,2.85-1.52l.11-.14c.17-.23,.33-.56,.37-.88,.1-.76-.45-1.26-1.29-1.24-.16,0-.46,.04-.64,.08-1.08,.25-1.88,1.05-2.42,1.68-.12,.14-.23,.32-.42,.43-.45,.25-.97,.17-1.18-.18-.1-.18-.11-.39-.03-.59,.13-.36,.4-.71,.76-1.02-.4,.17-.8,.37-1.19,.59C2.94,5.86,1.15,9.71,2.66,12.32c1.38,2.4,5.08,2.91,8.56,1.3-.37-.18-.65-.53-.74-.94"/><path class="cls-1" d="M16.12,4.56c-.23-.39-.53-.73-.86-1.02,.04,.17,.07,.34,.07,.53,0,.32-.06,.62-.18,.89-.47,1.12-1.08,2.61-1.68,4.29-.42,1.12-.78,2.18-1.08,3.12-.01,.03-.02,.08-.02,.12,0,.17,.1,.3,.24,.37,3.38-2.19,4.95-5.81,3.52-8.3"/><path class="cls-1" d="M11.38,7.13c.15-.04,.28-.06,.34-.06,.06,0,.12,.08,.15,.11,.03,.03,.07,.24,.13,.26,.06,.01,.18,.04,.19,.11,.01,.06,.05,.07,.06,.11,.02,.05-.07,.21-.07,.32,0,.12-.07,.21-.12,.32-.04,.09-.4,.56-.44,.64-.04,.09-.35,.53-.39,.68-.04,.15-.18,.16-.25,.44-.08,.28-.14,.46-.24,.61-.1,.13-.72,.78-.91,.93-.2,.15-.61,.43-.67,.57-.06,.15-.1,.21-.19,.38-.08,.17-.08,.43-.17,.42-.09,0-.19,.04-.21-.04-.01-.07,.03-.31-.04-.63-.06-.32-.55-.72-.58-1.1-.02-.39,.09-.89,.11-1.19,.02-.3,.13-.68,.48-1.03,.35-.34,.91-.74,1.27-1.05,.36-.33,.73-.6,.94-.63,.13-.02,.37-.11,.6-.18"/></svg>