<svg width="30" height="30" viewBox="0 0 30 30" fill="none" xmlns="http://www.w3.org/2000/svg">
<path fill-rule="evenodd" clip-rule="evenodd" d="M15 30C23.2843 30 30 23.2843 30 15C30 6.71573 23.2843 0 15 0C6.71573 0 0 6.71573 0 15C0 23.2843 6.71573 30 15 30ZM15 28C22.1797 28 28 22.1797 28 15C28 7.8203 22.1797 2 15 2C7.8203 2 2 7.8203 2 15C2 22.1797 7.8203 28 15 28Z" fill="white"/>
<path d="M6.58591 22H5.78083L5.26776 19.7583H4V14.4354C4 13.9509 4.14689 13.5123 4.44068 13.1197C4.73448 12.7271 5.12904 12.5031 5.62436 12.4478H6.3652V8.95644C6.3652 8.41038 6.55339 7.94779 6.92975 7.56868C7.30612 7.18956 7.77008 7 8.32164 7H21.6079C22.1355 7 22.5935 7.18956 22.9819 7.56868C23.3702 7.94779 23.5644 8.41038 23.5644 8.95644V12.4478H24.3222C24.776 12.5031 25.1556 12.7204 25.461 13.0995C25.7663 13.4786 25.9189 13.908 25.9189 14.3878V19.7583H24.6927L24.125 22H23.3178L22.7895 19.7583H7.17413L6.58591 22ZM15.7812 12.4478H21.9486V8.95644C21.9486 8.85708 21.9149 8.77547 21.8474 8.71159C21.78 8.64772 21.7002 8.61578 21.6079 8.61578H15.7812V12.4478ZM7.98098 12.4478H14.1654V8.61578H8.32164C8.22228 8.61578 8.14067 8.64772 8.07679 8.71159C8.01292 8.77547 7.98098 8.85708 7.98098 8.95644V12.4478ZM5.61581 18.1425H24.3031V14.4042C24.3031 14.3119 24.2712 14.2321 24.2073 14.1647C24.1434 14.0973 24.0618 14.0636 23.9625 14.0636H5.95646C5.85711 14.0636 5.77549 14.0973 5.71162 14.1647C5.64774 14.2321 5.61581 14.3119 5.61581 14.4042V18.1425Z" fill="white"/>
</svg>
