<svg width="30" height="30" viewBox="0 0 30 30" fill="none" xmlns="http://www.w3.org/2000/svg">
<path d="M13.9307 25.7721H15.9703V23.8374C17.4213 23.6781 18.5926 23.2241 19.4843 22.4754C20.3759 21.7267 20.8217 20.6646 20.8217 19.2891C20.8217 18.0449 20.4691 17.0209 19.764 16.2172C19.0589 15.4135 17.807 14.6552 16.0084 13.9423C14.4834 13.3265 13.4125 12.7902 12.7957 12.3333C12.179 11.8764 11.8706 11.2457 11.8706 10.441C11.8706 9.69052 12.158 9.07632 12.7327 8.59847C13.3074 8.12061 14.0884 7.88169 15.0758 7.88169C15.8705 7.88169 16.53 8.05991 17.0544 8.41635C17.5787 8.77279 18.0225 9.28804 18.3858 9.96211L20.1894 9.14336C19.7601 8.26146 19.1953 7.56215 18.495 7.04543C17.7948 6.52874 16.9784 6.22889 16.046 6.14589V4.25115H14.0064V6.14801C12.6991 6.35003 11.6788 6.84095 10.9455 7.62078C10.2122 8.4006 9.84559 9.34131 9.84559 10.4429C9.84559 11.6725 10.2185 12.653 10.9645 13.3843C11.7104 14.1157 12.8623 14.7844 14.4202 15.3904C16.1024 16.0781 17.2548 16.6893 17.8774 17.2241C18.4999 17.7588 18.8112 18.4462 18.8112 19.2861C18.8112 20.1684 18.4616 20.8484 17.7622 21.326C17.0629 21.8037 16.2202 22.0426 15.2341 22.0426C14.2926 22.0426 13.4447 21.7682 12.6904 21.2194C11.936 20.6707 11.3908 19.9136 11.0548 18.9482L9.16669 19.6038C9.66202 20.7634 10.3001 21.6715 11.081 22.3281C11.8619 22.9847 12.8118 23.4543 13.9307 23.737V25.7721ZM14.9827 30C12.9287 30 10.9927 29.6025 9.17472 28.8075C7.35669 28.0125 5.77056 26.9379 4.41634 25.5837C3.06209 24.2294 1.98748 22.6417 1.1925 20.8203C0.397501 18.999 0 17.0589 0 15C0 12.9283 0.398246 10.9805 1.19474 9.15665C1.9912 7.33283 3.07017 5.74037 4.43164 4.37925C5.79313 3.01816 7.37998 1.94802 9.19218 1.16883C11.0044 0.389609 12.9347 0 14.9832 0C17.0564 0 19.0088 0.389609 20.8403 1.16883C22.6719 1.94802 24.2654 3.01834 25.621 4.37978C26.9766 5.7412 28.0453 7.3359 28.8272 9.16389C29.6091 10.9918 30 12.9441 30 15.0205C30 17.0814 29.6104 19.0146 28.8312 20.8199C28.052 22.6253 26.9818 24.2084 25.6207 25.5693C24.2596 26.9301 22.6653 28.0088 20.8378 28.8053C19.0103 29.6018 17.0586 30 14.9827 30ZM15 27.7885C18.5405 27.7885 21.5571 26.5383 24.0496 24.038C26.5422 21.5376 27.7885 18.525 27.7885 15C27.7885 11.4595 26.5422 8.44291 24.0496 5.95036C21.5571 3.4578 18.5405 2.21152 15 2.21152C11.475 2.21152 8.46236 3.4578 5.96202 5.95036C3.46169 8.44291 2.21152 11.4595 2.21152 15C2.21152 18.525 3.46169 21.5376 5.96202 24.038C8.46236 26.5383 11.475 27.7885 15 27.7885Z" fill="white"/>
</svg>
