<svg width="20" height="20" viewBox="0 0 20 20" fill="none" xmlns="http://www.w3.org/2000/svg">
<path d="M9.99513 14.9806C10.2489 14.9806 10.4489 14.9092 10.5949 14.7664C10.7409 14.6237 10.8139 14.4254 10.8139 14.1716C10.8139 13.9177 10.7425 13.7178 10.5997 13.5718C10.457 13.4258 10.2587 13.3528 10.0049 13.3528C9.75105 13.3528 9.55113 13.4241 9.40512 13.5669C9.25911 13.7097 9.18611 13.908 9.18611 14.1618C9.18611 14.4156 9.25749 14.6155 9.40025 14.7616C9.54301 14.9076 9.7413 14.9806 9.99513 14.9806ZM9.33179 11.1908H10.8061V4.81352H9.33179V11.1908ZM9.99684 20C8.61406 20 7.31844 19.7354 6.10999 19.2061C4.90154 18.6768 3.84585 17.9609 2.94294 17.0583C2.04001 16.1558 1.32378 15.0988 0.79427 13.8874C0.264757 12.676 0 11.3766 0 9.98907C0 8.60984 0.265144 7.31343 0.795431 6.09984C1.32572 4.88627 2.04454 3.82573 2.9519 2.91821C3.85928 2.01072 4.91562 1.29748 6.12092 0.778486C7.32623 0.259495 8.61917 0 9.99975 0C11.38 0 12.6794 0.259386 13.8981 0.778158C15.1169 1.29691 16.1781 2.00996 17.082 2.91731C17.9858 3.82465 18.6981 4.88757 19.2189 6.10608C19.7396 7.3246 20 8.62433 20 10.0053C20 11.3927 19.7406 12.6864 19.2218 13.8864C18.7031 15.0864 17.9901 16.1386 17.083 17.0428C16.1759 17.947 15.1132 18.666 13.895 19.1996C12.6768 19.7332 11.3774 20 9.99684 20ZM10.0126 18.5257C12.3646 18.5257 14.3714 17.6922 16.0331 16.0253C17.6948 14.3584 18.5257 12.3458 18.5257 9.98737C18.5257 7.63543 17.6964 5.62861 16.0378 3.9669C14.3793 2.3052 12.3667 1.47435 10 1.47435C7.65001 1.47435 5.64157 2.30363 3.97468 3.96218C2.30779 5.62072 1.47435 7.63333 1.47435 10C1.47435 12.35 2.30779 14.3584 3.97468 16.0253C5.64157 17.6922 7.65422 18.5257 10.0126 18.5257Z" fill="white"/>
</svg>
