<?xml version="1.0" encoding="UTF-8"?><svg id="a" xmlns="http://www.w3.org/2000/svg" viewBox="0 0 88.31 74.94"><defs><style>.b{fill:#da4747;}.c{fill:#fff;font-family:Arial-BoldMT, Arial;font-size:24.68px;letter-spacing:-.05em;}</style></defs><polygon class="b" points="36.54 67.38 42.33 73.09 45.65 64.25 56.78 74.94 53.6 59.69 69.23 69.02 58.9 52.33 88.31 64.52 64.46 44.64 78.51 42.52 64.2 35.37 77.71 29.54 64.73 27.68 72.76 18.14 59.43 19.73 62.87 9.13 54.67 11.6 53.34 3.58 46.07 7.22 42.33 0 36.54 5.71 30.76 0 27.02 7.22 19.75 3.58 18.42 11.6 10.38 10.38 11.6 18.42 3.58 19.75 7.22 27.02 0 30.76 5.71 36.55 0 42.33 7.22 46.08 3.58 53.34 11.6 54.67 10.38 62.71 18.42 61.49 19.75 69.51 27.02 65.87 30.76 73.09 36.54 67.38"/><text class="c" transform="translate(7.49 48.7)"><tspan x="0" y="0">NEW</tspan></text></svg>