<svg width="31" height="31" viewBox="0 0 31 31" fill="none" xmlns="http://www.w3.org/2000/svg">
<path d="M20.679 13.1837C21.2289 13.1837 21.6998 12.9874 22.0917 12.5947C22.4836 12.202 22.6796 11.7307 22.6796 11.1808C22.6796 10.6309 22.4832 10.16 22.0905 9.76813C21.6978 9.37623 21.2265 9.18028 20.6766 9.18028C20.1267 9.18028 19.6558 9.37662 19.2639 9.7693C18.872 10.162 18.6761 10.6333 18.6761 11.1832C18.6761 11.7331 18.8724 12.204 19.2651 12.5959C19.6578 12.9878 20.1291 13.1837 20.679 13.1837ZM9.72331 13.1837C10.2732 13.1837 10.7441 12.9874 11.136 12.5947C11.5279 12.202 11.7238 11.7307 11.7238 11.1808C11.7238 10.6309 11.5275 10.16 11.1348 9.76813C10.7421 9.37623 10.2708 9.18028 9.72088 9.18028C9.17101 9.18028 8.70011 9.37662 8.30819 9.7693C7.9163 10.162 7.72035 10.6333 7.72035 11.1832C7.72035 11.7331 7.9167 12.204 8.3094 12.5959C8.70211 12.9878 9.17341 13.1837 9.72331 13.1837ZM15.2 23.4227C16.8662 23.4227 18.3856 22.9744 19.7582 22.078C21.1308 21.1815 22.1279 19.9757 22.7495 18.4606H20.8031C20.2142 19.4493 19.4192 20.222 18.4181 20.7785C17.4169 21.335 16.3471 21.6132 15.2086 21.6132C14.0702 21.6132 12.9975 21.3389 11.9905 20.7902C10.9836 20.2414 10.1983 19.4649 9.63467 18.4606H7.65042C8.28757 19.9757 9.28856 21.1815 10.6534 22.078C12.0182 22.9744 13.5337 23.4227 15.2 23.4227ZM15.2025 30.2001C13.145 30.2001 11.1993 29.8068 9.36543 29.0201C7.53156 28.2335 5.93633 27.1659 4.57973 25.8174C3.22317 24.469 2.15406 22.8771 1.37242 21.0418C0.590773 19.2065 0.199951 17.2601 0.199951 15.2026C0.199951 13.1451 0.593273 11.1994 1.37992 9.36555C2.16653 7.53168 3.23409 5.93645 4.58258 4.57986C5.93106 3.22329 7.52296 2.15418 9.35827 1.37254C11.1936 0.590894 13.1399 0.200073 15.1974 0.200073C17.2549 0.200073 19.2006 0.593394 21.0345 1.38004C22.8683 2.16666 24.4636 3.23421 25.8202 4.5827C27.1767 5.93119 28.2458 7.52308 29.0275 9.35839C29.8091 11.1937 30.2 13.1401 30.2 15.1975C30.2 17.255 29.8066 19.2007 29.02 21.0346C28.2334 22.8685 27.1658 24.4637 25.8173 25.8203C24.4688 27.1769 22.8769 28.246 21.0416 29.0276C19.2063 29.8093 17.26 30.2001 15.2025 30.2001ZM15.2054 27.9886C18.7641 27.9886 21.7842 26.7459 24.2659 24.2606C26.7476 21.7753 27.9884 18.7533 27.9884 15.1947C27.9884 11.636 26.7458 8.61578 24.2605 6.1341C21.7752 3.65243 18.7532 2.41159 15.1945 2.41159C11.6358 2.41159 8.61565 3.65424 6.13398 6.13952C3.65231 8.6248 2.41147 11.6468 2.41147 15.2055C2.41147 18.7642 3.65411 21.7844 6.1394 24.266C8.62471 26.7477 11.6467 27.9886 15.2054 27.9886Z" fill="white"/>
</svg>
