<?xml version="1.0" encoding="UTF-8"?><svg id="a" xmlns="http://www.w3.org/2000/svg" viewBox="0 0 45.93 45.93"><defs><style>.b,.c{fill:#fff;}.c{opacity:.5;}.d{fill:none;}</style></defs><circle class="d" cx="22.97" cy="22.97" r="22.97"/><g><path class="b" d="M12.06,23.79v12.75c0,.49,.32,.79,.57,.94,.27,.15,.56,.22,.86,.22h5.78c.2,0,.4-.08,.54-.22,.14-.14,.22-.34,.22-.54v-6.14h5.76v6.14c0,.2,.08,.39,.22,.54,.14,.14,.34,.22,.54,.22h5.78c.31,0,.6-.07,.87-.22,.26-.15,.57-.45,.57-.94v-12.75l-10.85-9.93-10.85,9.93Z"/><path class="b" d="M32.94,15.65v-7.2c0-.44-.36-.79-.79-.79h-1.91c-.44,0-.79,.35-.79,.79v4l-5.16-4.72c-.78-.71-1.97-.71-2.75,0L7.84,20.28c-.83,.76-.89,2.05-.13,2.87,.4,.44,.95,.66,1.5,.66,.49,0,.98-.18,1.37-.53l12.33-11.28,12.33,11.28c.83,.76,2.12,.7,2.88-.13,.76-.83,.7-2.12-.13-2.87l-5.05-4.62Z"/><path class="c" d="M12.06,23.79v12.75c0,.49,.32,.79,.57,.94,.27,.15,.56,.22,.86,.22h5.78c.2,0,.4-.08,.54-.22,.14-.14,.22-.34,.22-.54v-6.14h5.76v6.14c0,.2,.08,.39,.22,.54,.14,.14,.34,.22,.54,.22h5.78c.31,0,.6-.07,.87-.22,.26-.15,.57-.45,.57-.94v-12.75l-10.85-9.93-10.85,9.93Z"/><path class="c" d="M32.94,15.65v-7.2c0-.44-.36-.79-.79-.79h-1.91c-.44,0-.79,.35-.79,.79v4l-5.16-4.72c-.78-.71-1.97-.71-2.75,0L7.84,20.28c-.83,.76-.89,2.05-.13,2.87,.4,.44,.95,.66,1.5,.66,.49,0,.98-.18,1.37-.53l12.33-11.28,12.33,11.28c.83,.76,2.12,.7,2.88-.13,.76-.83,.7-2.12-.13-2.87l-5.05-4.62Z"/></g></svg>