<?xml version="1.0" encoding="UTF-8"?><svg id="_層_1" xmlns="http://www.w3.org/2000/svg" viewBox="0 0 154.2 33.75"><defs><style>.cls-1{fill:#5e6832;}</style></defs><path d="M4.98,23.69H21.44v-.29c0-.65-.11-1.85-.29-3.52,1.89,.29,3.16,.51,3.74,.69,1.45,.29,2.22,.62,2.22,.98s-.33,.65-.91,.87c-.62,.18-.91,.47-.91,.84v.44h2.54c.07,0,.44-.44,1.13-1.27,.8-.94,1.27-1.42,1.42-1.42,.4,0,1.05,.47,1.96,1.38,.87,.94,1.31,1.53,1.31,1.74,0,.36-.18,.54-.54,.54h-7.81v4.4c0,1.53-.47,2.58-1.34,3.2-1.02,.73-2.03,1.09-3.05,1.09-.44,0-.69-.36-.76-1.02-.25-1.09-1.74-2.18-4.5-3.27l.15-.69c2.18,.29,3.78,.44,4.83,.44,.54,0,.83-.18,.83-.58v-3.56H4.98c-2.07,0-3.52,.07-4.4,.15l-.58-1.42c1.16,.22,2.8,.29,4.98,.29Zm.15-20.02H14.46c-.07-1.31-.22-2.47-.4-3.52,1.02,.11,2.36,.29,4.03,.58,1.27,.22,1.93,.44,1.93,.69,0,.36-.33,.69-.98,.94-.51,.15-.73,.47-.73,.91v.4h7.81c.07-.04,.51-.54,1.24-1.53,.87-1.16,1.42-1.74,1.6-1.74,.47,0,1.24,.58,2.29,1.67,1.02,1.13,1.56,1.82,1.56,2.03,0,.4-.25,.58-.73,.58h-13.77v2.69h5.7c.51-.58,.98-1.13,1.45-1.56,.33-.36,.65-.58,.94-.58s.94,.33,2,.98c1.2,.84,1.82,1.42,1.82,1.71,0,.36-.25,.69-.73,.98-.36,.29-.54,.65-.54,1.02v1.42c0,1.13,.04,2.65,.15,4.54,0,.47-.62,.8-1.82,1.02-.29,.07-.54,.07-.69,.07,1.02,.29,1.78,.58,2.33,.84,.87,.51,1.31,1.09,1.31,1.78,0,.51-.22,1.02-.65,1.49-.29,.33-.69,.47-1.16,.47-.69,0-1.27-.4-1.74-1.27-.29-.55-.69-1.09-1.13-1.6-5.99,1.53-12.93,2.62-20.85,3.31-.15,0-.22,.22-.25,.62-.11,.44-.25,.65-.44,.65-.47,0-.87-.54-1.16-1.63-.22-.58-.54-1.49-.98-2.76,4.14,0,8.36-.11,12.64-.33v-2.65H7.81v.58c0,.47-.58,.8-1.71,1.02-.51,.07-.91,.11-1.13,.11-.76,0-1.13-.36-1.13-1.13,.07-1.24,.15-2.47,.15-3.71v-1.96c0-1.74-.11-3.45-.29-5.12,1.53,.44,3.05,.98,4.65,1.71h6.14v-2.69H5.12c-2.07,0-3.52,.04-4.4,.11L.15,3.38c1.16,.22,2.8,.29,4.98,.29Zm6.58,22.92c.8,.51,1.24,1.13,1.24,1.78,0,.73-.33,1.38-.95,2.03-.44,.44-.94,.65-1.6,.65-.58,0-1.05-.47-1.42-1.38-.51-1.31-1.42-2.62-2.73-3.85l.44-.73c2.4,.47,4.07,.98,5.01,1.49Zm2.8-15.55v-2.69H7.81v2.69h6.68Zm0,3.85v-2.83H7.81v2.83h6.68Zm3.82-3.85h6.83v-2.69h-6.83v2.69Zm0,3.85h6.83v-2.83h-6.83v2.83Zm4.98,1.85l.29-.44c.65,.15,1.24,.25,1.78,.36-.15-.18-.22-.44-.22-.8h-6.83v2.43c2.11-.11,4.25-.25,6.39-.44-.44-.4-.91-.76-1.42-1.13Z"/><path d="M41.17,15.19h7.52c.07-.04,.36-.36,.87-.94,.62-.69,.98-1.05,1.13-1.05,.29,0,.8,.36,1.49,1.09,.69,.73,1.05,1.16,1.05,1.31,0,.4-.15,.58-.4,.58h-5.12v5.38h.44s.29-.25,.8-.8c.65-.76,1.09-1.16,1.31-1.16,.18,0,.76,.47,1.78,1.34,.58,.58,.91,.91,.91,1.05,0,.4-.15,.58-.4,.58h-4.83v6.14c.15,.04,.25,.07,.36,.07,2.91,.51,6.39,.73,10.46,.73,4.47,0,8.1-.4,10.9-1.27l.25,.58c-1.38,.8-2.11,1.78-2.25,2.94-.22,.76-.47,1.16-.73,1.16-6.07,0-10.94-.14-14.64-.4-3.23-.36-5.45-.87-6.65-1.53-1.45-.69-2.62-1.56-3.52-2.69-.44-.44-.83-1.05-1.27-1.85-.22,.76-.44,1.42-.65,1.93-.84,1.89-2.04,3.71-3.63,5.38l-.25-.25c.58-1.67,1.02-3.2,1.34-4.58,.22-1.09,.44-2.47,.58-4.11,.18-1.89,.29-4.21,.33-6.94,1.31,.33,2.47,.58,3.56,.76,.84,.29,1.27,.54,1.27,.8,0,.33-.25,.58-.73,.73-.47,.15-.69,.25-.69,.4-.22,1.74-.47,3.23-.76,4.43,.76,1.09,1.53,1.89,2.29,2.36,.22,.15,.44,.25,.73,.36v-11.55h-2.83c-2.07,0-3.52,.07-4.4,.15l-.58-1.42c1.16,.22,2.8,.29,4.98,.29Zm1.2-13.08h4.36c.36-.47,.69-.87,.98-1.2s.54-.51,.84-.51c.36,0,1.05,.36,2.03,1.09,1.09,.76,1.67,1.31,1.67,1.63,0,.22-.22,.47-.62,.73-.4,.22-.62,.47-.65,.69v7.67c0,.4-.54,.69-1.63,.87-.51,.07-.84,.11-1.05,.11-.69,0-1.02-.25-1.02-.84v-.29h-5.09v.4c0,.44-.58,.73-1.67,.91-.47,.07-.84,.11-1.05,.11-.65,0-.98-.33-.98-1.02,.07-.58,.15-1.24,.15-1.96V3.38c0-.73-.11-1.64-.29-2.69,1.31,.36,2.65,.84,4.03,1.42Zm4.9,4.4V3.12h-5.09v3.38h5.09Zm0,4.54v-3.52h-5.09v3.52h5.09Zm12.1,13.52c.91,.47,1.38,.84,1.38,1.13,0,.25-.25,.4-.73,.44-.58,0-.91,.11-.98,.25-.87,.44-1.82,.84-2.76,1.16-1.16,.44-2.91,.84-5.3,1.27l-.15-.44c1.34-.69,2.54-1.45,3.56-2.33,1.24-.98,2.07-1.93,2.54-2.8,.91,.51,1.71,.94,2.43,1.31Zm-1.74-21.73h5.96c.07-.04,.44-.44,1.09-1.2,.73-.91,1.2-1.38,1.34-1.38,.36,0,.95,.47,1.74,1.38,.8,.87,1.24,1.42,1.24,1.63,0,.36-.22,.55-.58,.55h-5.6c-.87,1.42-1.89,2.65-3.05,3.71h2.54c.4-.36,.76-.73,1.09-1.09,.47-.51,.83-.76,1.05-.76,.36,0,1.05,.36,2.07,1.02,1.16,.91,1.74,1.53,1.74,1.82s-.25,.62-.76,.98c-.44,.44-.65,.8-.65,1.16v4.8l.29,6.68c0,.44-.62,.73-1.82,.87-.54,.07-.94,.11-1.16,.11-.65,0-.98-.33-.98-.98v-.29h-5.96v.58c0,.4-.58,.69-1.67,.87-.51,.07-.84,.11-1.05,.11-.87,0-1.27-.33-1.27-.98,.18-2.51,.29-4.72,.29-6.69v-3.67c0-1.67-.11-3.71-.29-6.1,1.67,.36,3.2,.91,4.61,1.56h.07c.36-1.05,.69-2.29,.91-3.71h-1.2c-2.07,0-3.52,.07-4.4,.15l-.54-1.42c1.13,.22,2.76,.29,4.94,.29Zm5.56,8.79v-3.12h-5.96v3.12h5.96Zm0,4.54v-3.56h-5.96v3.56h5.96Zm0,4.69v-3.71h-5.96v3.71h5.96Zm2.54,3.2c.94,.33,1.67,.65,2.11,1.02,.36,.29,.58,.58,.58,.91,0,.62-.22,1.13-.65,1.56-.4,.58-.87,.84-1.45,.84-.29,0-.84-.54-1.63-1.67-.84-1.02-1.89-1.93-3.2-2.72l.29-.73c1.63,.25,2.94,.51,3.96,.8Z"/><path class="cls-1" d="M90.32,5.23h.4v-1.96c0-.98-.11-2-.25-3.02,1.53,.15,3.02,.36,4.47,.62,.87,.07,1.34,.29,1.34,.69,0,.15-.29,.36-.84,.62-.58,.25-.87,.58-.87,.94v2.11h.84c.07,0,.36-.33,.87-.98,.62-.73,.98-1.13,1.13-1.13,.33,0,.87,.4,1.6,1.13,.73,.8,1.09,1.27,1.09,1.42,0,.4-.15,.58-.4,.58h-5.12v4.4h1.42c.07-.04,.4-.44,1.05-1.2,.76-.91,1.2-1.38,1.34-1.38,.36,0,.98,.47,1.78,1.34,.8,.91,1.2,1.45,1.2,1.63,0,.4-.18,.58-.54,.58h-4.8c.69,.4,1.31,.73,1.85,1.02,1.02,.54,1.53,.94,1.53,1.24,0,.33-.25,.51-.73,.54-.58,0-.91,.11-.98,.33-.54,.8-1.09,1.49-1.67,2.11-.47,.51-1.13,1.05-1.92,1.56h1.89c.07,0,.36-.33,.87-.91,.62-.69,.98-1.05,1.13-1.05,.29,0,.8,.36,1.49,1.09,.69,.73,1.05,1.16,1.05,1.31,0,.4-.14,.58-.44,.58h-5.38v4.11h.84c.07,0,.44-.4,1.09-1.2,.73-.87,1.2-1.34,1.34-1.34,.36,0,.95,.47,1.74,1.34,.8,.91,1.24,1.45,1.24,1.63,0,.36-.22,.54-.58,.54h-5.67v7.96c0,.44-.65,.8-1.89,1.05-.58,.04-.98,.07-1.23,.07-.76,0-1.13-.4-1.13-1.13,.15-1.38,.25-3.34,.25-5.96v-2h-1.27c-2.07,0-3.52,.07-4.4,.15l-.54-1.42c1.13,.22,2.76,.29,4.94,.29h1.27v-4.11h-.4c-2.11,0-3.56,.07-4.4,.15l-.58-1.42c1.13,.18,2.8,.25,4.98,.25h2.33c.58-.98,1.09-2.03,1.53-3.2,.47-1.27,.8-2.47,1.02-3.6h-5.74c-2.07,0-3.52,.07-4.4,.15l-.54-1.42c1.13,.22,2.76,.29,4.94,.29h1.27V6.25h-.4c-2.11,0-3.56,.04-4.4,.11l-.58-1.42c1.13,.22,2.8,.29,4.98,.29Zm.58,8.43c.83,.65,1.27,1.2,1.27,1.67,0,.8-.22,1.45-.58,1.93-.47,.51-.98,.76-1.56,.76-.47,0-.8-.07-1.02-.29-.25-.11-.47-.65-.62-1.63-.18-1.16-.69-2.4-1.49-3.63l.44-.4c1.71,.62,2.91,1.16,3.56,1.6Zm15.22-10.68h5.05c.51-.58,.84-.98,1.05-1.24,.62-.58,1.02-.91,1.2-.91,.36,0,1.05,.44,2.14,1.27,1.02,.8,1.56,1.38,1.56,1.71s-.29,.62-.87,.87c-.58,.25-.83,.47-.83,.69-.62,3.27-1.09,5.3-1.45,6.1-.33,.73-.8,1.27-1.42,1.64-.62,.36-1.13,.51-1.53,.51-.29,0-.58-.4-.8-1.24-.33-.94-1.53-1.96-3.6-3.05l.14-.69c1.64,.22,2.83,.29,3.56,.29,.29,0,.51-.18,.65-.58,.15-.51,.4-1.96,.76-4.4h-6.25V15.44h6.25c.4-.44,.73-.84,.98-1.2,.54-.58,.91-.91,1.13-.91,.29,0,1.02,.44,2.18,1.27,1.09,.8,1.67,1.42,1.67,1.85,0,.22-.25,.44-.73,.58-.62,.22-.95,.51-.98,.84-.54,2.91-1.2,5.09-2,6.5-.36,.58-.73,1.16-1.13,1.71,1.53,1.31,3.16,2.36,4.98,3.12l-.29,.73c-1.05,.4-1.74,.94-2.04,1.6-.4,.8-.73,1.24-.94,1.24-.29,0-.84-.4-1.56-1.2-.8-.73-1.63-1.71-2.47-3.02-.18,.15-.33,.29-.47,.44-1.45,1.16-2.98,2.18-4.58,3.05v.44c0,.44-.58,.8-1.74,1.05-.51,.04-.87,.07-1.09,.07-.87,0-1.31-.4-1.31-1.13,.18-2.54,.29-4.83,.29-6.79V7.52c0-1.71-.11-3.78-.29-6.25,1.71,.44,3.31,.98,4.76,1.71Zm2.14,24.49c.33-.44,.62-.87,.91-1.31-.36-.73-.69-1.56-.98-2.51-.58-1.67-1.09-4.07-1.45-7.19h-1.24v14.17c1.05-1.02,1.96-2.07,2.76-3.16Zm.91-6.32c.4,.87,.87,1.67,1.38,2.4,.14-.36,.25-.69,.4-1.05,.69-2,1.09-4,1.2-6.03h-4.65c.44,1.71,1.02,3.27,1.67,4.69Z"/><path class="cls-1" d="M125.24,12.06c.4-.44,.76-.84,1.13-1.27,.51-.58,.87-.87,1.13-.87,.36,0,.98,.4,1.89,1.2,1.02,.87,1.53,1.42,1.53,1.63,0,.36-.29,.65-.8,.94-.51,.36-.76,.73-.76,1.05v2.14c1.02,.76,2.33,1.2,3.89,1.34,1.78,.15,5.23,.18,10.39,.18,3.12,0,6.58-.18,10.43-.54l.14,.54c-.87,.22-1.6,1.05-2.18,2.47-.07,.65-.25,.94-.54,.94h-5.99c.54,.11,.94,.22,1.2,.29,1.49,.29,2.25,.62,2.25,.98s-.33,.65-.91,.87c-.65,.18-.94,.47-.94,.84v.15h2c.07,0,.36-.4,.91-1.13,.69-.84,1.09-1.27,1.24-1.27,.36,0,.94,.44,1.74,1.27,.8,.87,1.24,1.38,1.24,1.56,0,.4-.22,.58-.58,.58h-6.54v3.38c0,1.38-.47,2.4-1.38,2.98-1.05,.65-2.11,1.02-3.16,1.02-.36,0-.62-.33-.69-.98-.22-1.09-1.6-2.14-4.14-3.16l.15-.69c2.03,.36,3.56,.54,4.54,.54,.58,0,.87-.18,.87-.54v-2.54h-16.46c-2.11,0-3.56,.04-4.4,.11l-.58-1.42c1.13,.22,2.8,.29,4.98,.29h16.46c0-.62-.11-1.67-.25-3.12h-.44c-2.03,0-4.61-.11-7.74-.33-3.12-.47-5.3-1.63-6.61-3.49-.15,0-.29,.11-.4,.25-.94,1.24-2.11,2.36-3.45,3.42,0,.87-.15,1.27-.4,1.27-.22,0-.47-.22-.69-.73-.58-1.05-1.24-2.36-1.89-3.92,1.89-.22,3.38-.4,4.4-.58v-4.69c-1.74,0-3.09,.11-3.96,.29l-.58-1.71c1.2,.29,2.54,.44,4,.44Zm.98-6.18c.65,.47,.98,1.02,.98,1.63,0,.58-.25,1.09-.73,1.6-.29,.36-.73,.51-1.24,.51-.44,0-.83-.4-1.13-1.2-.44-1.13-1.13-2.25-2.14-3.34l.29-.54c1.89,.44,3.2,.87,3.96,1.34Zm3.09-4.03c.65,.44,1.02,.94,1.02,1.53,0,.62-.25,1.2-.76,1.71-.36,.4-.8,.58-1.34,.58-.47,0-.87-.4-1.2-1.2-.44-1.16-1.16-2.25-2.22-3.34l.29-.58c2,.44,3.42,.87,4.21,1.31Zm4.58,25.87c.94,.47,1.42,1.02,1.42,1.63,0,.69-.33,1.38-.91,2.03-.44,.44-.98,.65-1.63,.65-.69,0-1.27-.44-1.74-1.31-.65-1.23-1.78-2.47-3.38-3.63l.44-.73c2.76,.44,4.72,.91,5.81,1.34Zm5.45-26.7c.73,.29,1.09,.62,1.09,.94,0,.65-.29,1.24-.83,1.82-.22,.25-.44,.4-.65,.47h3.74c.29-.65,.54-1.27,.76-1.82,.18-.65,.36-1.49,.51-2.43,1.02,.29,2.03,.54,3.02,.8,.91,.29,1.38,.58,1.38,.91s-.29,.54-.8,.62c-.54,.11-.83,.22-.87,.36-.44,.51-.94,.91-1.53,1.24-.22,.15-.4,.25-.58,.33h3.63c.07-.04,.36-.4,.94-1.13,.65-.87,1.05-1.31,1.2-1.31,.36,0,.94,.44,1.74,1.31,.8,.87,1.24,1.38,1.24,1.56,0,.36-.22,.54-.58,.54h-3.96c.36,.22,.76,.47,1.24,.8,1.16,.76,1.74,1.31,1.74,1.64,0,.22-.22,.47-.65,.73-.44,.22-.69,.47-.76,.69v7.81c0,.4-.58,.69-1.71,.87-.51,.07-.91,.11-1.13,.11-.65,0-.98-.29-.98-.87h-9.52c-.14,.44-.69,.73-1.63,.91-.51,.07-.84,.11-1.05,.11-.8,0-1.16-.36-1.16-1.13,.07-1.13,.15-2.25,.15-3.42v-3.12c0-1.67-.11-3.27-.25-4.83,1.45,.4,2.91,.91,4.4,1.56h1.16c.29-.58,.51-1.2,.65-1.85h-3.38c-2.11,0-3.56,.07-4.4,.15l-.58-1.42c1.13,.22,2.8,.29,4.98,.29h1.78c-.25-.15-.47-.4-.69-.84-.44-.87-1.16-1.71-2.25-2.58l.29-.58c2.07,.25,3.52,.51,4.32,.76Zm7.19,9.05v-2h-9.52v2h9.52Zm0,2.98v-2h-9.52v2h9.52Zm0,2.98v-2h-9.52v2h9.52Zm-.58-8.94c.4-.58,.76-1.09,1.09-1.53,.11-.15,.22-.25,.29-.33h-4.21c-.73,.73-1.53,1.34-2.4,1.85h5.23Z"/></svg>