<svg width="250" height="70" viewBox="0 0 250 70" fill="none" xmlns="http://www.w3.org/2000/svg">
<path fill-rule="evenodd" clip-rule="evenodd" d="M66.0767 32.9984C61.0633 30.9989 60.316 26.2232 54.0753 20.1455C50.8032 16.9578 46.8047 15.4037 42.8937 15.4037C41.651 15.4037 40.4184 15.5616 39.2194 15.8718C36.1879 16.6588 34.7073 18.2392 34.1174 19.0569C35.3879 19.3446 36.6247 19.9403 37.5693 21.4577C38.3453 22.7085 38.4733 24.4106 38.0109 25.9829C37.8594 26.4952 37.6477 26.8987 37.3863 27.3657C38.109 27.2526 38.8472 27.1782 39.6131 27.1782C43.754 27.1782 48.208 28.8066 52.622 31.8651C55.0962 33.5796 57.5896 35.4767 61.3033 35.4767C64.0767 35.4789 65.8437 34.2061 66.3098 33.6976C66.5306 33.4573 66.5146 33.1729 66.0767 32.9984" fill="white"/>
<path fill-rule="evenodd" clip-rule="evenodd" d="M23.5866 27.1389C22.3829 26.68 21.3781 25.6474 21.3781 25.6474C21.3909 25.0963 22.6597 24.4101 24.1355 24.4101C24.8475 24.4101 25.6059 24.5695 26.3003 24.9784C25.8982 25.9151 24.0112 26.9816 23.5866 27.1389M33.151 28.3401C35.0967 27.4411 36.7346 24.5727 35.6081 22.7429C34.6849 21.2417 33.1025 20.9907 31.2352 20.9907C30.7915 20.9907 30.3392 21.0408 29.6421 21.0903C26.7199 21.3009 7.56361 23.8326 7.38601 23.9543C7.24254 24.0545 7.05267 24.2932 7.21107 24.8851C7.36094 25.4475 8.06923 26.5323 10.0432 27.1728C9.80795 27.3215 9.13326 27.4378 8.57058 27.3877C7.61962 27.3042 7.08947 27.0775 7.08947 27.0775C7.08947 27.0775 6.59025 33.0862 7.95189 35.4767C8.81485 36.9957 9.86501 36.8094 12.0208 36.9192C13.8614 37.0167 14.4635 37.2031 15.0641 37.8398C15.4177 38.2115 15.759 38.9247 15.439 38.9403C14.4737 38.9252 13.9019 38.8643 13.167 38.8843C12.4795 38.902 11.8843 38.9521 11.1312 39.1988C10.4405 39.4272 9.321 40.2745 8.84685 42.9236C8.68951 43.8027 8.41537 46.3775 9.14926 46.9275C9.4234 47.1327 10.2752 47.1559 11.6464 47.1559C11.9104 47.1559 14.5425 47.1806 14.5734 47.1806C15.183 47.1806 15.4993 46.9856 15.8913 46.5596C16.9281 45.4338 19.1666 43.4057 22.8457 42.0042C28.0735 40.0117 29.0602 38.9742 30.9963 36.575C33.2939 33.7261 33.151 28.3401 33.151 28.3401" fill="white"/>
<path fill-rule="evenodd" clip-rule="evenodd" d="M67.0262 40.3618C66.8076 40.3807 66.5563 40.4738 65.7073 40.4782C63.3344 40.4846 58.7887 39.5334 52.948 34.9402C48.1804 31.1896 43.5296 29.4659 39.6132 29.4659C38.0665 29.4659 36.7011 29.6641 35.3624 30.2647C35.1912 32.8459 34.589 35.5161 32.8253 37.9249C31.8114 39.3098 30.9111 40.2815 29.7388 41.117C33.9714 41.3809 38.7828 44.2062 41.0586 45.4828C47.6198 49.1645 51.941 50.0274 54.9331 50.0118C62.5754 49.9693 66.686 44.3613 67.318 41.2597C67.454 40.595 67.3601 40.3338 67.0262 40.3618" fill="white"/>
<path fill-rule="evenodd" clip-rule="evenodd" d="M53.4906 53.1467C50.9423 52.7949 46.9928 51.8313 40.0172 47.6378C38.2054 46.5503 36.6507 45.7337 35.1402 45.0517C32.5988 43.9055 30.4036 43.3243 28.2579 43.3243C25.8466 43.3485 23.8146 43.9831 21.478 45.1826C17.5488 47.1967 15.3114 51.4084 14.7375 52.615C14.5205 53.068 14.7978 53.2334 15.0581 53.2506C16.8517 53.3777 19.7782 53.9029 23.5063 55.3794C28.9241 57.5265 33.6266 59.8034 39.4876 59.9908C46.6808 60.2197 52.185 56.0996 53.616 54.1453C54.0058 53.6137 54.04 53.2221 53.4906 53.1467" fill="white"/>
<path fill-rule="evenodd" clip-rule="evenodd" d="M46.9346 12.8301C44.8236 11.3176 41.1958 10 36.9391 10C35.2426 10 33.4558 10.2349 31.6361 10.8048C24.9537 12.8996 22.1265 17.4044 21.2598 19.706C23.4742 19.4222 28.8546 18.7391 31.683 18.6998C31.9998 18.0885 33.5839 14.9734 38.6565 13.6553C40.0358 13.2982 41.2934 13.1097 42.726 13.1097C43.95 13.1097 45.581 13.3041 46.6706 13.546C46.6984 13.5519 46.6866 13.5503 46.6733 13.546C47.1128 13.6268 47.2968 13.0881 46.9346 12.8301" fill="white"/>
<path fill-rule="evenodd" clip-rule="evenodd" d="M89.8669 47.6691H84.6292C88.2308 43.7949 90.4663 38.0221 91.3274 34.0048L87.5595 33.0912C86.6834 37.3623 83.8046 43.9283 80.162 47.7739V50.6245H92.5181C93.2272 50.6245 93.8024 50.0233 93.8024 49.2789V42.329H89.8669V47.6691Z" fill="white"/>
<path fill-rule="evenodd" clip-rule="evenodd" d="M105.015 31.8261H100.369V27.4416L105.015 27.4409V31.8261ZM105.015 39.1061H100.369V34.7221L105.015 34.7215V39.1061ZM100.369 46.3858H105.015V42.0012H100.369V46.3858ZM109.786 22.7799C108.967 21.8606 107.194 20.0623 105.808 19.3151L103.607 21.2848C104.245 21.7562 105.967 23.4901 106.75 24.5463H101.225C101.921 23.1691 102.385 21.8766 102.556 20.8739L98.76 19.6292C98.2787 21.6453 95.9172 27.5447 91.322 30.3132L92.8531 33.169C94.0959 32.6409 95.2549 31.8624 96.3148 30.9451V50.6245H100.368V49.2816H113.56C114.29 49.2816 114.883 48.6905 114.883 47.9643V46.3858H109.069V42.0018H114.239V39.1059H109.069V34.7201L114.239 34.7195V31.8261H109.069V27.4403L114.883 27.4396V24.5463H107.688L109.786 22.7799Z" fill="white"/>
<path fill-rule="evenodd" clip-rule="evenodd" d="M80.2064 43.1102C83.663 38.5491 85.9422 33.1612 87.0187 27.0278H92.5323C93.2321 27.0278 93.8027 26.4209 93.8027 25.6826V24.2646H87.4059C87.553 22.9708 87.6662 21.6555 87.7111 20.2999L83.8163 19.3151C83.783 21.0155 83.6452 22.6579 83.4519 24.2646H79.2524V27.0278H83.0352C82.0714 32.3026 80.2519 36.9749 77.6823 40.7718L80.2064 43.1102Z" fill="white"/>
<path fill-rule="evenodd" clip-rule="evenodd" d="M148.009 20.5675H142.164V23.2407H148.009V26.7032H146.322H144.529H142.649V46.6728V46.747H146.322V46.6728V29.3714H148.009V50.6245H151.683V29.3714H153.369V47.2117H155.697C156.439 47.2117 157.044 46.6256 157.044 45.9088V26.7032H156.679H153.369H151.683V23.2407H157.044V20.5675H151.683H148.009Z" fill="white"/>
<path fill-rule="evenodd" clip-rule="evenodd" d="M135.93 31.9716H138.475V27.3109H135.93V31.9716ZM135.93 45.1809H138.475V39.7952H135.93V45.1809ZM138.475 24.5764H137.496C138.519 23.2257 139.33 21.2788 139.598 20.2354L135.645 19.3151C135.389 20.5138 134.594 22.9137 133.408 24.5764H132.243V50.6245H135.93V47.9204H138.475H140.27H140.813C141.555 47.9204 142.164 47.3197 142.164 46.5851V37.0581H140.27H138.475H135.93V34.7059H138.475H140.271H140.813C141.555 34.7059 142.164 34.1078 142.164 33.3706V24.5764H140.271H138.475Z" fill="white"/>
<path fill-rule="evenodd" clip-rule="evenodd" d="M133.484 20.2294L129.6 19.3151C129.473 20.043 129.11 21.3571 128.376 22.8455C126.954 21.2443 124.96 20.4377 122.393 20.3678L121.529 23.4273C123.842 23.524 125.232 24.7407 126.073 26.2688C124.845 27.6457 123.24 28.9195 121.138 29.7819L121.831 32.9842C123.866 32.4793 125.671 31.4625 127.221 30.1817C127.32 31.0223 127.342 31.7643 127.342 32.2634V34.3983C126.406 35.8662 124.14 38.0766 121.083 39.5253L121.831 42.7206C123.769 42.2689 125.649 41.2508 127.342 39.8719V44.134C127.342 45.7339 126.251 47.0717 124.126 47.3812L123.363 47.4196L123.781 50.6142L124.762 50.6245C128.558 50.5136 130.968 47.8124 130.968 44.2724V43.8386V32.2634C130.968 30.1516 130.762 28.3461 130.363 26.8186C132.039 24.5293 133.115 22.0728 133.484 20.2294" fill="white"/>
<path fill-rule="evenodd" clip-rule="evenodd" d="M200.445 33.5579L196.787 32.2756C195.991 33.3513 194.78 34.7518 193.039 36.1653C192.596 34.4923 192.318 32.8728 192.223 31.4026C194.707 30.5941 196.993 29.4674 198.455 28.1514L195.458 25.577C193.178 27.4683 184.862 29.6269 183.085 29.6269V47.3359V48.7429C183.085 49.4816 183.68 50.0808 184.409 50.0808H186.958H189.594L190.466 47.3359H186.958V32.5726C187.543 32.5061 188.14 32.4099 188.741 32.2975C189.219 38.1295 191.609 46.5727 197.043 50.6245L199.917 48.6771C197.432 46.2873 195.459 42.9387 194.126 39.5061C196.558 38.0933 199.082 35.7843 200.445 33.5579" fill="white"/>
<path fill-rule="evenodd" clip-rule="evenodd" d="M176.543 30.5262H172.588C172.716 29.0838 172.786 27.6295 172.805 26.177H179.293C180.017 26.177 180.605 25.5903 180.605 24.8735V23.504H175.374L176.293 22.7319C175.482 21.8246 173.728 20.0495 172.357 19.3151L170.178 21.2562C170.634 21.5932 171.657 22.586 172.483 23.504H164.611V26.177H168.783C168.68 35.3005 166.334 44.2355 163.244 48.7998L166.092 50.6245C169.142 46.6594 171.33 40.2063 172.282 33.2017H176.543V47.7711H172.828L173.692 50.444H176.543H179.067C179.79 50.444 180.381 49.8605 180.381 49.1406V47.7711V30.5262H179.689H176.543Z" fill="white"/>
<path fill-rule="evenodd" clip-rule="evenodd" d="M185.945 25.1991H197.892C198.617 25.1991 199.205 24.5763 199.205 23.8118V22.3583H187.085C187.319 21.6092 187.5 20.8955 187.598 20.2694L183.773 19.3151C183.427 20.9183 181.892 25.2966 179.365 28.1875L181.973 30.5865C183.664 29.1097 184.99 27.149 185.945 25.1991" fill="white"/>
<path fill-rule="evenodd" clip-rule="evenodd" d="M229.17 29.2818V30.6724H236.28C235.263 31.7707 233.185 32.6089 233.185 32.6089V35.1281H228.003V37.8649H233.185V42.8782H229.379L230.263 45.615H235.767C236.507 45.615 237.11 45.0175 237.11 44.281V37.8649H241.367V35.1281H237.11V33.6397C238.398 32.918 240.031 31.7533 240.601 30.5539V27.935H230.645C231.314 27.1148 231.886 26.1497 232.333 25.1119H239.613C240.354 25.1119 240.957 24.5125 240.957 23.7754V22.2463L233.236 22.2483C233.383 21.5498 233.487 20.8648 233.514 20.2338L229.591 19.3151C229.6 20.7527 228.664 24.9909 226.486 27.2268L229.17 29.2818Z" fill="white"/>
<path fill-rule="evenodd" clip-rule="evenodd" d="M214.086 42.4218L216.831 44.3218C219.206 41.7214 220.859 37.5212 221.661 32.4134H223.704V42.9056H220.065L220.972 45.615H223.704H226.348C227.107 45.615 227.726 45.0242 227.726 44.2944V42.9056V32.4134V29.7015H223.704H221.996C222.099 28.6078 222.165 27.4816 222.194 26.328H226.085C226.843 26.328 227.462 25.7365 227.462 25.0067V23.616H224.117C223.091 22.3145 220.759 20.0086 219.615 19.3151L217.237 21.2246C217.73 21.6491 218.662 22.6396 219.478 23.616H215.106V26.328H218.232C218.211 33.1993 216.72 38.4689 214.086 42.4218" fill="white"/>
<path fill-rule="evenodd" clip-rule="evenodd" d="M221.272 47.9417C214.741 47.8956 213.218 44.4151 212.874 42.5149C213.975 39.2748 214.614 35.7678 214.614 32.666V29.4544V28.8321V28.0817H206.622V30.7651H210.702V32.0008C210.702 38.0215 208.827 43.7373 205.406 49.1874L208.638 50.4111C209.513 49.3995 210.316 48.179 211.032 46.8278C212.885 49.325 216.656 50.6245 222.207 50.6245H241.268C242.008 50.6245 242.607 50.0388 242.607 49.3168V47.9417H221.272Z" fill="white"/>
<path fill-rule="evenodd" clip-rule="evenodd" d="M211.181 26.8294L214.086 24.5908C213.204 23.6856 210.6 21.2997 209.109 20.5675L206.646 22.4437C207.459 22.9935 210.616 25.8358 211.181 26.8294" fill="white"/>
</svg>
