<?xml version="1.0" encoding="UTF-8"?><svg id="a" xmlns="http://www.w3.org/2000/svg" viewBox="0 0 243.02 111.32"><defs><style>.b{fill:#c38045;}.c{stroke-width:1.08px;}.c,.d{fill:none;stroke:#80642d;stroke-miterlimit:10;}.e{fill:#ab4b45;}.f{fill:#61683a;}.g{fill:#803964;}.h{fill:#768037;}.d{stroke-width:2.37px;}</style></defs><path class="f" d="M107.78,96.56c.78,.18,1.49,.43,2.16,.75h9.54c.23-.25,.43-.48,.6-.68,.26-.33,.46-.5,.58-.5,.21,0,.58,.19,1.13,.56,.66,.5,.99,.84,.99,1.01,0,.16-.14,.33-.43,.51-.22,.22-.32,.42-.32,.6v7.5l.14,3.5c0,.22-.33,.38-.99,.5-.26,.04-.46,.05-.58,.05-.33,0-.5-.18-.5-.55v-1.11h-10.31v1.11c0,.22-.28,.38-.84,.5-.25,.04-.43,.05-.53,.05-.42,0-.63-.18-.63-.55,.09-1.25,.14-2.35,.14-3.3v-6.96c0-.83-.05-1.83-.14-3.01m2,11.69h10.31v-2.87h-2.73c-.59,0-1.03-.15-1.3-.46-.31-.26-.46-.68-.46-1.25v-5.9h-1.73v.68c0,1.61-.14,2.95-.41,4.02-.25,.85-.67,1.63-1.25,2.32-.58,.74-1.26,1.32-2.03,1.73l-.2-.27c.39-.41,.73-.96,1.02-1.64,.33-.69,.57-1.41,.72-2.15,.17-1.08,.26-2.42,.26-4v-.68h-2.19v10.48Zm7.64-10.48v5.54c0,.24,.16,.36,.48,.36h2.19v-5.9h-2.67Z"/><path class="f" d="M137.79,103.25c0,.81-.29,1.5-.85,2.09-.58,.57-1.28,.85-2.08,.85s-1.5-.28-2.09-.85c-.57-.58-.85-1.28-.85-2.09s.28-1.52,.85-2.08c.57-.57,1.26-.86,2.09-.86s1.5,.28,2.08,.86c.57,.58,.85,1.28,.85,2.08"/><path class="f" d="M159.31,97.03c-1.28,.09-2.48,.16-3.62,.21v1.71h3.23s.26-.28,.65-.77c.48-.57,.76-.85,.85-.85,.23,0,.6,.27,1.13,.82,.51,.55,.77,.88,.77,1.01,0,.19-.11,.29-.32,.29h-5.93c.96,.53,1.94,.94,2.94,1.21,1.25,.33,2.5,.56,3.74,.68l-.07,.43c-.48,.15-.82,.48-1.03,.99-.11,.38-.25,.56-.41,.56-.23,0-.76-.19-1.61-.56-.87-.38-1.69-.87-2.48-1.47-.57-.44-1.06-.9-1.47-1.35v2.45c0,.22-.3,.38-.91,.48-.27,.04-.47,.07-.6,.07-.36,0-.55-.18-.55-.55,.09-.56,.14-1.31,.15-2.26-.59,.59-1.13,1.05-1.61,1.39-.66,.46-1.43,.85-2.31,1.2-.87,.37-1.82,.66-2.87,.89l-.14-.27c1.08-.42,2.1-.96,3.04-1.62,.91-.66,1.67-1.41,2.27-2.26h-2.7c-1,0-1.71,.02-2.12,.07l-.29-.68c.56,.08,1.36,.12,2.41,.12h4.31v-1.66c-1.49,.02-3.41,.04-5.74,.04l-.07-.43c2.06-.11,3.86-.28,5.4-.5,1.63-.19,3.36-.55,5.18-1.08,.5,.33,.95,.64,1.35,.92,.43,.32,.65,.58,.65,.79-.03,.1-.18,.15-.43,.15l-.82-.15Zm-9.69,6.1c.69,.12,1.49,.19,2.38,.19h4.87c.17-.15,.31-.28,.41-.39,.33-.27,.57-.41,.74-.41,.21,0,.59,.24,1.13,.72,.57,.47,.85,.79,.85,.97s-.23,.29-.68,.32c-.39,.02-.64,.08-.75,.17-.73,.32-1.38,.59-1.95,.8,.03,.04,.05,.06,.05,.07,0,.19-.17,.38-.5,.55-.2,.06-.32,.19-.34,.41v.09h3.3s.26-.28,.65-.77c.48-.59,.76-.89,.84-.89,.25,0,.63,.28,1.15,.84,.52,.56,.79,.9,.79,1.03,0,.17-.12,.26-.36,.26h-6.36v1.8c0,.97-.29,1.58-.87,1.85-.65,.32-1.16,.48-1.52,.48-.15,0-.27-.18-.36-.53-.15-.58-.82-1.07-2.02-1.47l.05-.32c.74,.09,1.36,.14,1.86,.14,.34,0,.6-.05,.77-.15,.13-.07,.19-.23,.19-.48v-1.3h-4.58c-1,0-1.71,.02-2.12,.07l-.29-.68c.56,.1,1.36,.15,2.41,.15h4.56c-.02-.63-.06-1.18-.12-1.66,.54,.08,1.01,.16,1.44,.24,.12,.01,.22,.03,.31,.05,.46-.41,.92-.89,1.4-1.44h-4.94c-.74,0-1.45,.04-2.12,.14l-.26-.82Z"/><path class="f" d="M177.55,103.25c0,.81-.29,1.5-.85,2.09-.58,.57-1.28,.85-2.08,.85s-1.5-.28-2.09-.85c-.57-.58-.85-1.28-.85-2.09s.28-1.52,.85-2.08c.57-.57,1.26-.86,2.09-.86s1.5,.28,2.08,.86c.57,.58,.85,1.28,.85,2.08"/><path class="f" d="M193.68,95.2c.58,.17,1.09,.32,1.54,.44,.56,.16,.84,.3,.84,.43,0,.15-.16,.25-.5,.29-.03,.01-.06,.02-.07,.02,.99,.73,2.02,1.3,3.1,1.71,1.31,.48,2.62,.81,3.91,.99l-.07,.36c-.48,.15-.82,.48-1.03,.99-.11,.39-.25,.58-.41,.58-.25,0-.81-.23-1.69-.7-.92-.47-1.79-1.06-2.61-1.79-.66-.59-1.23-1.2-1.69-1.81-.99,1.06-2.02,1.92-3.1,2.58,.52,.06,.93,.09,1.21,.09h1.8c.1-.17,.22-.41,.36-.7,.19-.4,.32-.6,.39-.6,.12,0,.34,.23,.65,.68,.33,.41,.5,.68,.5,.82,0,.17-.06,.26-.19,.26h-3.51c-.34,0-.8,.02-1.37,.07l-.16-.41c-.49,.31-1.01,.6-1.55,.89,.49,.13,1.02,.31,1.61,.56h4.91c.25-.31,.5-.58,.74-.8,.17-.21,.33-.31,.48-.31s.48,.17,1.01,.51c.6,.42,.9,.71,.9,.86,0,.17-.11,.34-.34,.51-.18,.15-.27,.33-.27,.53v1.21c0,.55,.02,1.3,.07,2.26,0,.08-.03,.14-.08,.19,.42,.26,.81,.51,1.18,.74,.47,.33,.7,.58,.7,.74,0,.18-.1,.27-.29,.27l-.6-.14c-.58,.26-1.35,.55-2.29,.85,.07,.02,.13,.04,.17,.05,.91,.37,2.25,.66,4.02,.85l-.07,.43c-.45,.12-.75,.42-.92,.89-.1,.37-.21,.55-.31,.55-.46,0-1.08-.17-1.86-.5-1.03-.39-1.85-.81-2.46-1.28-.64-.44-1.17-1.03-1.61-1.76-.41-.65-.73-1.36-.96-2.14h-2.14v3.01c1.07-.13,2.1-.26,3.08-.41l.14,.27c-1.7,1.04-3.51,1.79-5.44,2.26-.19,.04-.29,.1-.29,.19-.02,.07-.05,.15-.09,.26-.03,.16-.1,.24-.2,.24-.24,0-.53-.43-.87-1.3-.1-.24-.27-.63-.5-1.16,.81-.06,1.59-.11,2.34-.17v-5.11c0-1.25-.06-2.23-.17-2.94-.9,.44-1.9,.88-2.99,1.3l-.14-.26c1.25-.68,2.6-1.62,4.05-2.8,1.17-.97,2.22-2.18,3.14-3.62m-2.07,7.73h5.56v-1.52h-5.56v1.52Zm0,2.03h5.56v-1.57h-5.56v1.57Zm2.58,.5c.52,.79,1.06,1.39,1.62,1.81,.27,.27,.64,.52,1.09,.75,.22-.21,.42-.43,.6-.67,.33-.38,.62-.77,.85-1.18-.06,.01-.1,.02-.14,.03-.26,.03-.46,.05-.6,.05-.31,0-.46-.18-.46-.55v-.26h-2.98Z"/><path class="f" d="M217.31,103.25c0,.81-.29,1.5-.85,2.09-.58,.57-1.28,.85-2.08,.85s-1.5-.28-2.09-.85c-.57-.58-.85-1.28-.85-2.09s.28-1.52,.85-2.08c.57-.57,1.26-.86,2.09-.86s1.5,.28,2.08,.86c.57,.58,.85,1.28,.85,2.08"/><path class="f" d="M228.57,95.38c.76,.07,1.5,.17,2.21,.31,.44,.01,.67,.11,.67,.31,0,.09-.13,.2-.38,.32-.3,.15-.44,.31-.44,.5v1.86h.7s.17-.2,.45-.53c.32-.39,.51-.58,.56-.58,.18,0,.46,.19,.82,.58,.37,.4,.55,.64,.55,.73,0,.17-.08,.26-.25,.26h-3.37c-.03,1.01-.07,1.93-.12,2.73h1.23c.19-.18,.35-.34,.46-.48,.24-.22,.42-.32,.55-.32,.23,0,.62,.21,1.16,.62,.47,.35,.7,.63,.7,.82,0,.07-.11,.18-.33,.34-.22,.17-.34,.32-.36,.46-.05,1.16-.18,2.56-.39,4.19-.21,1.3-.46,2.17-.75,2.6-.24,.33-.56,.59-.96,.77-.43,.22-.76,.32-.98,.32-.1,0-.2-.18-.29-.55-.12-.43-.63-.87-1.5-1.32l.07-.33c.63,.08,1.08,.12,1.37,.12,.34,0,.59-.1,.75-.31,.16-.25,.31-1.02,.46-2.31,.19-1.47,.29-2.85,.29-4.14h-1.52c-.06,.75-.13,1.39-.21,1.91-.17,1.16-.37,2.1-.6,2.8-.25,.81-.57,1.52-.96,2.12-.5,.81-1.07,1.49-1.71,2.05l-.2-.27c.27-.51,.52-1.13,.75-1.86,.25-.65,.47-1.53,.65-2.65,.13-.84,.22-1.82,.29-2.92,.1-1.37,.16-2.84,.17-4.41-.72,.01-1.25,.03-1.59,.07l-.27-.67c.56,.09,1.36,.14,2.39,.14h.07v-1.79c0-.49-.05-.99-.14-1.5m6.31-.07c.57,.17,1.12,.34,1.66,.51,.52,.16,.79,.34,.79,.53,0,.16-.14,.26-.41,.31-.29,.03-.44,.09-.46,.15-.2,.5-.44,.96-.7,1.37h3.5s.17-.18,.46-.53c.42-.51,.7-.77,.84-.77,.13,0,.48,.29,1.08,.85,.38,.34,.56,.56,.56,.65,0,.19-.12,.29-.36,.29h-6.39c-.11,.14-.22,.27-.33,.39-.48,.59-1.1,1.21-1.88,1.86l-.29-.29c.52-.88,.93-1.7,1.21-2.46,.27-.8,.51-1.76,.72-2.87m5.13,5.33c-.6,.21-1.2,.38-1.78,.51,.06,.55,.15,1.2,.27,1.97,.1,.56,.23,1.08,.38,1.56,.14-.2,.26-.42,.38-.65,.33-.56,.6-1.16,.82-1.79,.54,.33,1.04,.64,1.5,.94,.45,.32,.68,.55,.68,.7,0,.13-.09,.19-.27,.19l-.97-.07c-.47,.41-1.12,.83-1.95,1.26,.04,.13,.09,.25,.14,.38,.33,.8,.76,1.5,1.3,2.1,.53,.6,1.14,1.11,1.81,1.52l-.19,.36c-.41,.04-.74,.37-.99,.97-.21,.4-.35,.6-.45,.6-.22,0-.58-.43-1.08-1.3-.72-1.19-1.2-2.45-1.45-3.79-.24-1.47-.37-3.08-.39-4.82-.6,.15-1.19,.26-1.74,.33v7.04c.79-.15,1.54-.33,2.27-.53l.07,.2c-1.18,1.1-2.44,1.89-3.76,2.39-.15,.02-.22,.08-.22,.19-.01,.06-.03,.13-.05,.22-.02,.12-.07,.19-.14,.19-.23,0-.5-.38-.8-1.15-.09-.21-.24-.55-.45-1.04,.47-.04,.92-.1,1.37-.17v-5.64c0-1.32-.06-2.32-.19-2.99,.55,.1,1.17,.31,1.88,.62,.6-.25,1.06-.49,1.39-.72,.53-.32,1.09-.79,1.66-1.4,.52,.4,.94,.71,1.25,.92,.48,.37,.72,.62,.72,.77s-.09,.22-.26,.22l-.75-.08Z"/><line class="d" x1="243.02" y1="81.32" y2="81.32"/><line class="c" x1="243.02" y1="74.73" y2="74.73"/><path class="e" d="M8.09,.27c1.64,.58,3.22,1.19,4.76,1.82,1.47,.59,2.2,1.22,2.2,1.89s-.41,1.1-1.23,1.28c-.85,.14-1.33,.36-1.43,.68-.24,.63-.5,1.26-.77,1.89h6.14s.48-.68,1.33-2.03c1.19-1.89,1.96-2.84,2.3-2.84,.41,0,1.5,1.06,3.27,3.18,1.13,1.31,1.69,2.14,1.69,2.5,0,.68-.29,1.01-.87,1.01h-9.26c1.02,.54,1.84,1.1,2.45,1.69,1.3,1.13,1.94,2.21,1.94,3.24,0,1.8-.51,3.22-1.54,4.26-.55,.77-1.28,1.15-2.2,1.15-.34,0-.65-.22-.92-.68-.24-.36-.44-1.26-.61-2.7-.27-1.98-.84-4.3-1.69-6.96h-2.92c-.85,1.76-1.79,3.33-2.81,4.73-1.6,2.21-3.73,4.51-6.39,6.89l-.56-.74c1.94-3.42,3.44-6.55,4.5-9.39,1.06-3.06,1.93-6.69,2.61-10.88m20.25,.2c1.71,.63,3.34,1.26,4.91,1.89,1.54,.59,2.3,1.22,2.3,1.89s-.43,1.11-1.28,1.28c-.82,.14-1.28,.36-1.38,.68-.2,.54-.41,1.08-.61,1.62h7.36s.53-.72,1.48-2.16c1.33-1.98,2.2-2.97,2.61-2.97,.37,0,1.48,1.1,3.32,3.31,1.19,1.4,1.79,2.27,1.79,2.63,0,.68-.36,1.01-1.08,1.01h-9.92c1.19,.45,2.08,.9,2.66,1.35,1.33,.95,1.99,1.78,1.99,2.5,0,1.62-.29,2.93-.87,3.92-.75,.95-1.57,1.42-2.46,1.42-.68,0-1.19-.16-1.53-.47-.41-.18-.75-1.1-1.02-2.77-.24-1.98-.97-3.96-2.2-5.95h-2.91c-.82,1.89-1.71,3.56-2.66,5-1.23,1.89-2.8,3.81-4.71,5.74,1.6,1.49,2.4,2.52,2.4,3.11s-.38,1.19-1.13,1.82c-.48,.59-.72,1.22-.72,1.89v5.68c0,2.12,.07,5,.2,8.65,0,.9-.87,1.58-2.61,2.03-.79,.09-1.35,.14-1.69,.14-.99,0-1.48-.72-1.48-2.16v-.54H11.01v10.95c2.8-.36,5.47-.79,8.03-1.28-.72-1.8-1.69-3.67-2.92-5.61l.77-.81c3.41,1.85,5.76,3.51,7.06,5,1.3,1.4,1.94,2.61,1.94,3.65,0,1.58-.34,2.93-1.02,4.05-.65,1.08-1.38,1.62-2.2,1.62-.51,0-.97-.16-1.38-.47-.31-.41-.68-1.71-1.12-3.92-.14-.72-.34-1.42-.61-2.09-3.99,3.33-8.2,5.79-12.63,7.36-.58,.14-.87,.41-.87,.81-.03,.23-.08,.54-.15,.95-.07,.58-.2,.88-.41,.88-.75,0-1.6-1.6-2.56-4.8-.27-.9-.73-2.37-1.38-4.39,1.26-.09,2.51-.18,3.73-.27v-20.27c0-5.81-.2-10.23-.61-13.24,2.01,.63,4.33,1.73,6.95,3.31h5.93c.72-1.17,1.4-2.16,2.05-2.97,.54-.76,1-1.15,1.38-1.15,.34,0,1.02,.41,2.05,1.22,1.36-2.93,2.4-5.63,3.12-8.11,.89-3.06,1.62-6.71,2.2-10.95M11.01,30.2h8.13v-5.95H11.01v5.95Zm0,8.92h8.13v-6.96H11.01v6.96Zm31.3-21.08c.51,0,1.65,.86,3.43,2.57,1.67,1.67,2.5,2.79,2.5,3.38,0,.5-.41,1.17-1.23,2.03-.99,.9-1.48,1.78-1.48,2.63v23.52c0,2.3-.9,4.05-2.71,5.27-1.43,.95-2.64,1.42-3.63,1.42-.31,0-.6-.86-.87-2.57-.34-2.07-1.76-3.81-4.25-5.2l.2-1.42c2.05,.54,3.68,.81,4.91,.81,.44,0,.66-.7,.66-2.1V23.99h-6.14V61.56c0,.9-.84,1.58-2.51,2.03-.75,.14-1.3,.2-1.64,.2-1.09,0-1.64-.74-1.64-2.23,.14-2.3,.21-4.62,.21-6.96V28.65c0-3.38-.14-6.64-.41-9.8,2.18,.86,4.38,1.96,6.6,3.31h4.65c.55-.81,.95-1.44,1.23-1.89,.99-1.49,1.69-2.23,2.1-2.23"/><path class="h" d="M66,40.81c1.64,.32,4.02,.47,7.16,.47h7.31v-2.43c0-4.41-.14-8.29-.41-11.62,1.55,.18,3.52,.56,5.88,1.15,1.67,.27,2.5,.7,2.5,1.28,0,.68-.53,1.26-1.58,1.76-.72,.27-1.07,.77-1.07,1.49v8.38h4.86c.13-.04,.68-.83,1.64-2.37,1.19-1.85,1.89-2.77,2.1-2.77,.58,0,1.5,.9,2.76,2.7,1.3,1.76,1.94,2.84,1.94,3.24,0,.77-.29,1.15-.87,1.15h-12.43v2.43c2.52,.63,4.57,1.31,6.14,2.03,2.05,.99,3.55,2.03,4.5,3.11,.78,.95,1.18,1.92,1.18,2.91s-.27,1.94-.82,2.7c-.51,.95-1.11,1.42-1.79,1.42s-2.03-1.46-4.04-4.39c-1.43-1.89-3.15-3.58-5.16-5.07v12.91c0,.9-.79,1.58-2.38,2.03-.71,.14-1.2,.2-1.47,.2-1.25,0-1.88-.74-1.88-2.23,.27-4.1,.41-7.88,.41-11.35v-.81c-1.47,1.49-3,2.82-4.6,3.99-3.58,2.61-7.23,4.53-10.95,5.74l-.2-.74c2.76-1.85,5.32-4.1,7.67-6.76,2.32-2.48,4.24-5.18,5.78-8.11h-5.01c-3,0-5.13,.09-6.39,.27l-.77-2.7ZM74.54,0c1.74,.59,3.41,1.17,5.01,1.76,1.57,.63,2.35,1.28,2.35,1.96,0,.77-.46,1.24-1.38,1.42-.89,.23-1.38,.5-1.48,.81-.17,.45-.38,.88-.61,1.28h22.71c.07,0,.63-.83,1.69-2.5,1.43-2.3,2.37-3.45,2.81-3.45,.41,0,1.67,1.28,3.78,3.85,1.26,1.53,1.89,2.52,1.89,2.97,0,.68-.34,1.01-1.02,1.01h-32.68c-1.12,2.43-2.4,4.57-3.84,6.42-1.87,2.61-4.35,5.27-7.42,7.97l-.61-.81c2.39-3.78,4.21-7.3,5.47-10.54,1.29-3.42,2.4-7.48,3.32-12.16m-5.37,22.97c1.81,.36,3.92,.54,6.34,.54h22.09c.75-1.04,1.33-1.87,1.74-2.5,.72-1.04,1.38-1.55,2-1.55,.51,0,1.6,.86,3.27,2.57,1.77,1.71,2.66,2.84,2.66,3.38,0,.77-.56,1.62-1.69,2.57-.95,.86-1.43,1.6-1.43,2.23,0,4.59,.12,8.42,.36,11.49,.38,2.84,1.01,5.45,1.89,7.84,.61,1.76,1.11,2.64,1.48,2.64,.48,0,1.08-1.42,1.79-4.26,.58-2.07,1.13-4.1,1.64-6.08l1.07,.88-.82,9.46c0,1.22,.22,2.43,.67,3.65,.48,1.53,.72,2.54,.72,3.04,0,2.3-.89,3.58-2.66,3.85-1.19,0-2.61-.88-4.25-2.64-1.4-1.49-2.63-3.6-3.68-6.35-1.13-2.79-1.94-5.99-2.46-9.59-.55-4.23-.82-10.47-.82-18.72h-23.58c-2.69,0-4.52,.09-5.47,.27l-.87-2.7Zm1.48,6.22c2.66,.9,4.5,1.87,5.52,2.91,.92,1.04,1.38,2.21,1.38,3.51,0,1.17-.36,2.25-1.07,3.24-.51,.77-1.16,1.15-1.94,1.15-.58,0-1.07-.88-1.48-2.63-.51-2.43-1.45-4.82-2.81-7.16l.41-1.01Zm5.27-14.32c1.67,.31,4.07,.47,7.21,.47h17.13c.1-.04,.62-.83,1.54-2.36,1.12-1.85,1.77-2.77,1.94-2.77,.58,0,1.47,.9,2.66,2.7,1.23,1.76,1.84,2.84,1.84,3.24,0,.77-.26,1.15-.77,1.15h-24.34c-3.03,0-5.15,.09-6.34,.27l-.87-2.7Zm14.73,13.24c1.43,.63,2.74,1.31,3.94,2.03,1.64,.77,2.45,1.51,2.45,2.23,0,.4-.39,.7-1.18,.88-.72,.18-1.14,.45-1.28,.81-1.47,1.8-3.46,3.49-5.98,5.07l-.77-.81c1.43-3.06,2.37-6.46,2.81-10.2"/><path class="b" d="M150.32,.27c1.74,.68,3.27,1.26,4.6,1.76,1.67,.63,2.51,1.19,2.51,1.69,0,.59-.49,.97-1.48,1.15-.1,.04-.17,.07-.21,.07,2.97,2.88,6.05,5.14,9.26,6.76,3.92,1.89,7.82,3.2,11.71,3.92l-.2,1.42c-1.43,.58-2.46,1.89-3.07,3.92-.34,1.53-.75,2.3-1.23,2.3-.75,0-2.44-.92-5.06-2.77-2.76-1.85-5.37-4.21-7.82-7.1-1.98-2.34-3.67-4.73-5.06-7.16-2.96,4.19-6.05,7.59-9.26,10.2,1.57,.23,2.78,.34,3.63,.34h5.37c.31-.68,.66-1.6,1.07-2.77,.58-1.58,.97-2.36,1.18-2.36,.37,0,1.02,.9,1.94,2.7,.99,1.62,1.48,2.7,1.48,3.24,0,.68-.19,1.01-.56,1.01h-10.48c-1.02,0-2.39,.09-4.09,.27l-.46-1.62c-1.47,1.22-3.02,2.39-4.65,3.51,1.47,.5,3.07,1.24,4.81,2.23h14.68c.75-1.22,1.48-2.28,2.2-3.18,.51-.81,.99-1.22,1.43-1.22s1.45,.68,3.02,2.03c1.81,1.67,2.71,2.79,2.71,3.38,0,.68-.34,1.35-1.02,2.03-.55,.59-.82,1.28-.82,2.09v4.8c0,2.16,.07,5.14,.21,8.92,0,.32-.08,.56-.26,.74,1.26,1.04,2.44,2,3.53,2.91,1.4,1.31,2.1,2.27,2.1,2.9,0,.72-.29,1.08-.87,1.08l-1.79-.54c-1.74,1.04-4.02,2.16-6.85,3.38,.21,.09,.37,.16,.51,.2,2.73,1.49,6.73,2.61,12.02,3.38l-.21,1.69c-1.33,.5-2.25,1.67-2.76,3.51-.31,1.44-.61,2.16-.92,2.16-1.36,0-3.22-.65-5.57-1.96-3.07-1.53-5.52-3.22-7.36-5.07-1.91-1.76-3.51-4.08-4.81-6.96-1.23-2.57-2.18-5.38-2.86-8.45h-6.39v11.89c3.21-.5,6.27-1.04,9.21-1.62l.41,1.08c-5.08,4.1-10.5,7.07-16.26,8.92-.58,.13-.87,.38-.87,.74-.07,.27-.15,.61-.25,1.01-.1,.63-.31,.94-.61,.94-.72,0-1.59-1.71-2.61-5.13-.31-.95-.8-2.48-1.48-4.59,2.42-.23,4.76-.45,7.01-.68v-20.2c0-4.95-.17-8.83-.51-11.62-2.69,1.76-5.68,3.47-8.95,5.14l-.41-1.01c3.75-2.7,7.79-6.4,12.12-11.08,3.51-3.83,6.65-8.6,9.41-14.32m-6.19,30.54h16.62v-6.01h-16.62v6.01Zm0,8.04h16.62v-6.22h-16.62v6.22Zm7.72,1.96c1.57,3.11,3.19,5.5,4.86,7.16,.82,1.08,1.91,2.07,3.27,2.97,.65-.81,1.24-1.69,1.79-2.63,.99-1.49,1.84-3.04,2.56-4.66-.17,.04-.31,.09-.41,.13-.79,.14-1.38,.2-1.79,.2-.92,0-1.38-.72-1.38-2.16v-1.01h-8.9Z"/><path class="g" d="M225.86,2.97c1.6,.67,3.07,1.44,4.4,2.3,1.88,.81,2.81,1.67,2.81,2.57,0,.45-.43,.79-1.28,1.01-.78,.13-1.26,.41-1.43,.81-1.6,2.39-3.68,4.66-6.24,6.82h7.67c.68-.95,1.26-1.69,1.74-2.23,.68-1.08,1.21-1.62,1.58-1.62,.48,0,1.62,1.01,3.43,3.04,1.64,1.76,2.45,3.02,2.45,3.78,0,.54-.39,.9-1.18,1.08-.95,0-1.52,.07-1.69,.2-1.67,1.67-3.72,3.27-6.14,4.8,.14,.27,.21,.5,.21,.68,0,.45-.34,.95-1.02,1.49-.68,.5-1.09,.99-1.23,1.49v10.54c0,.86-.9,1.49-2.71,1.89-.82,.14-1.41,.2-1.79,.2-.92,0-1.38-.61-1.38-1.82v-1.42h-5.16v8.92h6.14c.13-.09,.72-.97,1.74-2.64,1.23-2.03,1.96-3.04,2.2-3.04,.61,0,1.6,.99,2.97,2.97,1.4,1.94,2.1,3.13,2.1,3.58,0,.72-.32,1.08-.97,1.08h-14.17v9.12h11.25c.14-.09,.73-1.06,1.79-2.9,1.29-2.21,2.06-3.31,2.3-3.31,.72,0,1.82,1.06,3.32,3.17,1.5,2.12,2.25,3.4,2.25,3.85,0,.77-.36,1.15-1.07,1.15h-39.27c-2.97,0-5.08,.09-6.34,.27l-.82-2.7c1.67,.32,4.06,.47,7.16,.47h13.5v-9.12h-7.93c-3,0-5.11,.07-6.34,.2l-.82-2.7c1.64,.36,4.02,.54,7.16,.54h7.93v-8.92h-4.5v1.42c0,.86-.87,1.49-2.61,1.89-.75,.14-1.31,.2-1.69,.2-1.06,0-1.59-.7-1.59-2.09,.14-1.31,.21-2.77,.21-4.39v-8.11c0-1.62-.07-3.6-.21-5.95,2.05,.77,4.11,1.76,6.19,2.97h14.42c.68-1.12,1.25-2.09,1.69-2.9,.44-.72,.92-1.08,1.43-1.08,.61,0,1.69,.74,3.22,2.23,.48,.45,.92,.86,1.33,1.22,.65-1.89,1.23-3.78,1.74-5.68h-32.52c-.07,2.3-.2,4.03-.41,5.2-.31,1.94-.84,3.31-1.58,4.12-.48,.5-.96,.74-1.43,.74-1.09,0-2-.43-2.71-1.28-.68-.72-1.02-1.76-1.02-3.11,0-.68,.56-1.51,1.69-2.5,1.19-.95,2.13-2.05,2.81-3.31,.68-1.17,1.23-2.93,1.64-5.27l1.07,.27v3.31h13.09V6.42c0-2.03-.15-4.08-.46-6.15,2.39,.27,4.71,.68,6.96,1.22,1.4,.09,2.1,.59,2.1,1.49,0,.27-.43,.65-1.28,1.15-.96,.5-1.43,1.1-1.43,1.82v10.54h2.61c2.11-4.14,3.5-8.65,4.14-13.51m-24.34,.27c3,.99,5.08,2.07,6.24,3.24,1.06,1.17,1.59,2.5,1.59,3.99,0,1.26-.43,2.5-1.28,3.72-.55,.77-1.3,1.15-2.25,1.15-.58,0-1.11-.99-1.58-2.97-.58-2.75-1.62-5.45-3.12-8.11l.41-1.01Zm6.95,33.52h15.6v-10.34h-15.6v10.34Z"/></svg>