<?xml version="1.0" encoding="UTF-8"?><svg id="_離模式" xmlns="http://www.w3.org/2000/svg" viewBox="0 0 324.69 132.71"><defs><style>.cls-1{fill:#fff;}.cls-2{fill:#808262;}.cls-3{fill:#898060;}.cls-4{fill:#a37347;fill-rule:evenodd;}</style></defs><path class="cls-2" d="M36.72,59.21c0-.32,.15-.48,.45-.48h9.36c.31,0,.46,.15,.46,.46v1.29c0,.31-.15,.46-.46,.46h-2.95c-.26,0-.38,.13-.38,.39v7.43c0,.31-.15,.46-.46,.46h-1.7c-.31,0-.46-.15-.46-.46v-7.43c0-.26-.13-.39-.38-.39h-3.01c-.31,0-.46-.15-.46-.46v-1.28Z"/><path class="cls-2" d="M51.59,59.21c.12-.32,.33-.48,.63-.48h2.12c.31,0,.52,.15,.64,.46l3.73,9.55c.12,.32,.03,.48-.26,.48h-1.7c-.31,0-.52-.15-.64-.46l-.38-.92c-.11-.25-.29-.37-.54-.37h-3.82c-.25,0-.43,.16-.55,.49-.1,.25-.19,.49-.26,.74-.12,.35-.34,.52-.64,.52h-1.86c-.31,0-.4-.15-.28-.46,1.26-3.18,2.53-6.36,3.82-9.55m1.84,2.42c-.13-.35-.26-.37-.37-.08l-1.2,3.28c-.11,.33-.04,.49,.22,.49h2.35c.25,0,.32-.14,.22-.42l-1.21-3.28Z"/><path class="cls-2" d="M59.86,59.21c0-.32,.15-.48,.45-.48h1.47c.31,0,.46,.15,.46,.46v9.57c0,.31-.15,.46-.46,.46h-1.46c-.31,0-.46-.15-.46-.46v-9.55Z"/><path class="cls-2" d="M63.43,59.21c-.04-.32,.08-.48,.37-.48h1.49c.31,0,.48,.15,.51,.46,.19,1.85,.4,3.71,.63,5.58,.05,.29,.1,.43,.15,.43,.06-.04,.14-.23,.23-.55,.31-1.8,.63-3.61,.98-5.42,.06-.34,.23-.51,.51-.51h1.47c.31,0,.49,.15,.54,.46l.86,5.38c0,.16,.04,.27,.15,.32,.05-.04,.11-.21,.18-.52l.68-5.14c.04-.34,.2-.51,.48-.51h1.58c.31,0,.44,.15,.4,.46l-1.44,9.55c-.04,.32-.21,.48-.51,.48h-2.03c-.31,0-.49-.15-.54-.46l-.87-5.63c-.05-.25-.09-.4-.12-.45-.06-.02-.15,.12-.26,.43l-.94,5.52c-.06,.39-.25,.58-.55,.58h-2.09c-.31,0-.48-.15-.52-.46-.46-3.18-.9-6.36-1.33-9.55"/><path class="cls-2" d="M79.12,59.21c.12-.32,.33-.48,.63-.48h2.12c.31,0,.52,.15,.64,.46l3.73,9.55c.12,.32,.04,.48-.26,.48h-1.7c-.31,0-.52-.15-.64-.46l-.38-.92c-.11-.25-.29-.37-.54-.37h-3.82c-.25,0-.43,.16-.55,.49-.1,.25-.19,.49-.26,.74-.12,.35-.34,.52-.64,.52h-1.86c-.31,0-.4-.15-.28-.46,1.26-3.18,2.53-6.36,3.82-9.55m1.84,2.42c-.13-.35-.26-.37-.37-.08l-1.2,3.28c-.11,.33-.04,.49,.21,.49h2.35c.25,0,.32-.14,.21-.42l-1.21-3.28Z"/><path class="cls-2" d="M87.02,59.21c0-.32,.15-.48,.44-.48h1.86c.31,0,.56,.15,.75,.46,1.35,2.15,2.74,4.32,4.16,6.51,.08,.15,.18,.17,.31,.05,.02-.08,.03-.24,.03-.46v-6.09c0-.31,.15-.46,.46-.46h1.46c.31,0,.46,.15,.46,.46v9.57c0,.31-.15,.46-.46,.46h-1.89c-.31,0-.56-.15-.75-.46l-4.23-6.48c-.21-.34-.31-.36-.31-.06v6.54c0,.31-.15,.46-.46,.46h-1.37c-.31,0-.46-.15-.46-.46v-9.55Z"/><path class="cls-2" d="M109.71,59.21c.12-.32,.33-.48,.63-.48h2.12c.31,0,.52,.15,.64,.46l3.73,9.55c.12,.32,.04,.48-.26,.48h-1.7c-.31,0-.52-.15-.65-.46l-.38-.92c-.11-.25-.29-.37-.54-.37h-3.82c-.25,0-.43,.16-.55,.49-.1,.25-.19,.49-.26,.74-.12,.35-.34,.52-.64,.52h-1.86c-.31,0-.4-.15-.28-.46,1.26-3.18,2.53-6.36,3.82-9.55m1.84,2.42c-.13-.35-.26-.37-.37-.08l-1.2,3.28c-.11,.33-.04,.49,.21,.49h2.35c.24,0,.32-.14,.21-.42l-1.21-3.28Z"/><path class="cls-2" d="M119.07,59.35c.66-.37,1.35-.57,2.06-.61h4.42c.43,.04,.84,.13,1.23,.26,1.25,.46,1.83,1.36,1.73,2.69,0,.31-.15,.46-.46,.46h-1.49c-.31,0-.48-.15-.52-.46-.17-.47-.53-.72-1.06-.74h-3.41c-.88,.18-1.33,.66-1.35,1.43v3.2c0,.7,.46,1.15,1.36,1.37h3.41c.97-.1,1.39-.53,1.26-1.29,0-.35-.13-.52-.38-.52h-2.1c-.31,0-.46-.15-.46-.46v-1.08c0-.31,.15-.46,.46-.46h4.39c.31,0,.46,.15,.46,.46v2.58c-.04,1-.45,1.81-1.23,2.42-.75,.41-1.59,.62-2.53,.63h-3.77c-2.18-.2-3.31-1.38-3.39-3.51v-4.06c.01-.83,.47-1.6,1.38-2.31"/><path class="cls-2" d="M129.8,59.21c0-.32,.15-.48,.44-.48h7.44c.45,.04,.86,.13,1.23,.26,.66,.31,1.02,.76,1.07,1.37v2.32c-.04,.51-.22,.92-.54,1.23-.32,.23-.33,.43-.05,.62,.39,.35,.6,.79,.63,1.31v2.92c0,.31-.15,.46-.46,.46h-1.6c-.31,0-.46-.15-.46-.46v-2.28c0-.53-.32-.9-.97-1.09h-3.84c-.26,0-.38,.13-.38,.38v2.99c0,.31-.15,.46-.46,.46h-1.61c-.31,0-.46-.15-.46-.46v-9.55Zm6.78,1.52h-3.87c-.26,0-.38,.13-.38,.38v1.74c0,.26,.13,.38,.38,.38h3.91c.38-.02,.64-.24,.78-.66,.05-.6,0-1.07-.14-1.38-.15-.25-.38-.41-.69-.46"/><path class="cls-2" d="M141.48,59.21c0-.32,.15-.48,.44-.48h1.47c.31,0,.46,.15,.46,.46v9.57c0,.31-.15,.46-.46,.46h-1.46c-.31,0-.46-.15-.46-.46v-9.55Z"/><path class="cls-2" d="M147.31,58.96c.34-.1,.78-.18,1.32-.23h4.63c.82,.08,1.43,.27,1.84,.57,.93,.91,1.31,1.93,1.15,3.06,0,.31-.15,.46-.46,.46h-1.63c-.31,0-.46-.15-.46-.46,.07-.83-.34-1.33-1.24-1.49h-3.07c-.83,.03-1.33,.5-1.5,1.4v3.31c0,.7,.46,1.15,1.37,1.37h3.37c.8-.17,1.21-.65,1.23-1.43,.01-.39,.17-.58,.48-.58h1.49c.31,0,.46,.15,.46,.46,.09,1.1-.2,2.07-.89,2.92-.27,.28-.57,.47-.9,.58-.46,.18-.98,.29-1.55,.32h-4.54c-.49-.04-.9-.12-1.23-.23-1.07-.38-1.68-1.19-1.81-2.43v-4.39c.01-.88,.27-1.7,.77-2.46,.27-.36,.66-.61,1.18-.75"/><path class="cls-2" d="M157.25,59.21c0-.32,.15-.48,.45-.48h1.64c.31,0,.46,.15,.46,.46v6.37c.12,.85,.6,1.31,1.43,1.38h2.18c.78,0,1.27-.38,1.47-1.15v-6.6c0-.31,.15-.46,.46-.46h1.64c.31,0,.46,.15,.46,.46v6.77c-.03,.39-.12,.8-.28,1.23-.39,1.02-1.06,1.64-2.03,1.88-.3,.07-.6,.12-.9,.15h-3.91c-1.86-.28-2.89-1.37-3.07-3.29v-6.72Z"/><path class="cls-2" d="M168.62,59.21c0-.32,.15-.48,.45-.48h1.56c.31,0,.46,.15,.46,.46v7.58c0,.26,.13,.39,.38,.39h5.26c.31,0,.46,.15,.46,.46v1.14c0,.31-.15,.46-.46,.46h-7.66c-.31,0-.46-.15-.46-.46v-9.55Z"/><path class="cls-2" d="M177.84,59.21c0-.32,.15-.48,.44-.48h9.36c.31,0,.46,.15,.46,.46v1.29c0,.31-.15,.46-.46,.46h-2.95c-.26,0-.38,.13-.38,.39v7.43c0,.31-.15,.46-.46,.46h-1.7c-.31,0-.46-.15-.46-.46v-7.43c0-.26-.13-.39-.38-.39h-3.01c-.31,0-.46-.15-.46-.46v-1.28Z"/><path class="cls-2" d="M188.98,59.21c0-.32,.15-.48,.44-.48h1.64c.31,0,.46,.15,.46,.46v6.37c.12,.85,.6,1.31,1.43,1.38h2.18c.78,0,1.27-.38,1.47-1.15v-6.6c0-.31,.15-.46,.46-.46h1.64c.31,0,.46,.15,.46,.46v6.77c-.03,.39-.12,.8-.28,1.23-.39,1.02-1.06,1.64-2.03,1.88-.3,.07-.6,.12-.91,.15h-3.91c-1.86-.28-2.88-1.37-3.07-3.29v-6.72Z"/><path class="cls-2" d="M200.35,59.21c0-.32,.15-.48,.44-.48h7.44c.45,.04,.86,.13,1.23,.26,.66,.31,1.02,.76,1.07,1.37v2.32c-.04,.51-.22,.92-.54,1.23-.32,.23-.33,.43-.05,.62,.39,.35,.6,.79,.63,1.31v2.92c0,.31-.15,.46-.46,.46h-1.6c-.31,0-.46-.15-.46-.46v-2.28c0-.53-.32-.9-.97-1.09h-3.84c-.26,0-.38,.13-.38,.38v2.99c0,.31-.15,.46-.46,.46h-1.61c-.31,0-.46-.15-.46-.46v-9.55Zm6.78,1.52h-3.87c-.26,0-.38,.13-.38,.38v1.74c0,.26,.13,.38,.38,.38h3.91c.38-.02,.64-.24,.78-.66,.05-.6,0-1.07-.14-1.38-.15-.25-.38-.41-.69-.46"/><path class="cls-2" d="M211.74,59.21c0-.32,.15-.48,.45-.48h8.32c.31,0,.46,.15,.46,.46v1.29c0,.31-.15,.46-.46,.46h-5.85c-.26,0-.38,.13-.38,.39v1.17c0,.26,.13,.38,.38,.38h5.33c.31,0,.46,.15,.46,.46v1.18c0,.31-.15,.46-.46,.46h-5.33c-.26,0-.38,.13-.38,.38v1.18c0,.26,.13,.38,.38,.38h6.12c.31,0,.46,.15,.46,.46v1.35c0,.31-.15,.46-.46,.46h-8.58c-.31,0-.46-.15-.46-.46v-9.55Z"/><path class="cls-2" d="M230.29,59.21c0-.32,.15-.48,.45-.48h2.5c.31,0,.5,.15,.57,.46l1.54,6.09c.07,.25,.16,.37,.28,.37,.12,0,.23-.15,.32-.46l1.57-6c.08-.31,.28-.46,.58-.46h2.5c.31,0,.46,.15,.46,.46v9.57c0,.31-.15,.46-.46,.46h-1.3c-.31,0-.46-.15-.46-.46v-6.65c-.04-.32-.09-.46-.14-.43-.12,.16-.2,.37-.23,.62l-1.53,6.46c-.07,.31-.26,.46-.57,.46h-1.4c-.31,0-.5-.15-.57-.46l-1.56-6.31c-.05-.31-.16-.45-.32-.43-.05,.04-.08,.2-.08,.46v6.28c0,.31-.15,.46-.46,.46h-1.21c-.31,0-.46-.15-.46-.46v-9.55Z"/><path class="cls-2" d="M242.18,59.21c0-.32,.15-.48,.45-.48h1.64c.31,0,.46,.15,.46,.46v6.37c.12,.85,.6,1.31,1.43,1.38h2.18c.78,0,1.27-.38,1.47-1.15v-6.6c0-.31,.15-.46,.46-.46h1.64c.31,0,.46,.15,.46,.46v6.77c-.03,.39-.12,.8-.28,1.23-.39,1.02-1.06,1.64-2.03,1.88-.3,.07-.6,.12-.9,.15h-3.91c-1.86-.28-2.88-1.37-3.07-3.29v-6.72Z"/><path class="cls-2" d="M254.46,59.55c.6-.48,1.41-.75,2.43-.81h4.36c1.51,.3,2.29,1.15,2.33,2.55,0,.31-.15,.46-.46,.46h-1.67c-.31,0-.46-.08-.46-.25,.01-.32-.22-.55-.71-.71h-3.3c-.63,.15-.9,.53-.8,1.14-.1,.5,.13,.82,.69,.95h4.71c.41,.03,.82,.14,1.23,.34,.62,.39,.97,.97,1.03,1.74v2.19c-.21,1.34-1.02,2.04-2.41,2.08h-5.11c-.51-.03-.92-.12-1.23-.26-1.12-.48-1.61-1.35-1.49-2.62,0-.31,.15-.46,.46-.46h1.61c.31,0,.46,.08,.46,.23-.04,.42,.16,.7,.61,.83h3.79c.64-.1,.92-.45,.83-1.03,.14-.53-.14-.86-.86-.98h-4.28c-.47-.04-.88-.14-1.23-.29-.41-.13-.75-.47-1.03-1.01-.3-.79-.34-1.74-.14-2.86,.04-.47,.25-.88,.63-1.21"/><path class="cls-2" d="M264.83,59.21c0-.32,.15-.48,.45-.48h8.32c.31,0,.46,.15,.46,.46v1.29c0,.31-.15,.46-.46,.46h-5.85c-.26,0-.38,.13-.38,.39v1.17c0,.26,.13,.38,.38,.38h5.32c.31,0,.46,.15,.46,.46v1.18c0,.31-.15,.46-.46,.46h-5.32c-.26,0-.38,.13-.38,.38v1.18c0,.26,.13,.38,.38,.38h6.12c.31,0,.46,.15,.46,.46v1.35c0,.31-.15,.46-.46,.46h-8.58c-.31,0-.46-.15-.46-.46v-9.55Z"/><path class="cls-2" d="M275.52,59.21c0-.32,.15-.48,.44-.48h1.64c.31,0,.46,.15,.46,.46v6.37c.12,.85,.6,1.31,1.43,1.38h2.18c.78,0,1.27-.38,1.47-1.15v-6.6c0-.31,.15-.46,.46-.46h1.64c.31,0,.46,.15,.46,.46v6.77c-.03,.39-.12,.8-.28,1.23-.39,1.02-1.07,1.64-2.03,1.88-.3,.07-.6,.12-.91,.15h-3.91c-1.86-.28-2.88-1.37-3.07-3.29v-6.72Z"/><path class="cls-2" d="M286.89,59.21c0-.32,.15-.48,.45-.48h2.5c.31,0,.5,.15,.57,.46l1.54,6.09c.07,.25,.16,.37,.28,.37,.12,0,.23-.15,.32-.46l1.56-6c.08-.31,.28-.46,.58-.46h2.5c.31,0,.46,.15,.46,.46v9.57c0,.31-.15,.46-.46,.46h-1.3c-.31,0-.46-.15-.46-.46v-6.65c-.04-.32-.09-.46-.14-.43-.12,.16-.2,.37-.23,.62l-1.53,6.46c-.07,.31-.26,.46-.57,.46h-1.4c-.31,0-.5-.15-.57-.46l-1.56-6.31c-.05-.31-.16-.45-.32-.43-.05,.04-.08,.2-.08,.46v6.28c0,.31-.15,.46-.46,.46h-1.21c-.31,0-.46-.15-.46-.46v-9.55Z"/><path class="cls-3" d="M39.22,22.43c0-1,.44-1.5,1.31-1.5h42.21c.94,0,1.41,.47,1.41,1.41v2.96c0,.94-.31,1.41-.94,1.41-.69,0-1.03,.25-1.03,.75s-.47,.75-1.41,.75h-21.95c-.75-.19-2.06,.38-3.94,1.69-.84,.69-1.25,1.15-1.22,1.36,.19,.16,.69,.24,1.5,.24h17.96c1,.19,1.77-.05,2.3-.71-.03-.19,.42-.28,1.36-.28h3.28c.94,0,1.56,.11,1.88,.33,1.03,1.63,.58,2.57-1.36,2.82h-13.79c-.78,0-1.17,.45-1.17,1.36s.39,1.36,1.17,1.36h15.1c.94,0,1.41,.49,1.41,1.46s-.47,1.46-1.41,1.46h-15.1c-.78,0-1.17,.41-1.17,1.22s.39,1.22,1.17,1.22h16.27c.94,0,1.41,.47,1.41,1.41v.66c0,.94-.47,1.41-1.41,1.41H40.49c-.94,0-1.41-.47-1.41-1.41v-.66c0-.94,.47-1.41,1.41-1.41h16.32c.78,0,1.17-.41,1.17-1.22s-.39-1.22-1.17-1.22h-15.38c-.94,0-1.41-.49-1.41-1.46s.47-1.46,1.41-1.46h15.38c.78,0,1.17-.45,1.17-1.36s-.39-1.36-1.17-1.36h-14.49c-.94,0-1.41-.22-1.41-.66s.47-.92,1.41-1.46l3.28-1.83c.97-.69,1.45-1.1,1.45-1.22-.12-.09-.66-.19-1.59-.28h-2.91c-.94,0-1.41-.3-1.41-.89,0-.66-.33-.99-.99-.99s-.94-.47-.94-1.41v-2.49ZM57.99,.75c0-.5,.44-.75,1.31-.75h4.92c.94,0,1.41,.22,1.41,.66,0,.5,.39,.75,1.17,.75h15.9c.94,0,1.41,.49,1.41,1.46s-.47,1.46-1.41,1.46h-15.9c-.78,0-1.17,.41-1.17,1.22s.39,1.22,1.17,1.22h15.1c.94,0,1.41,.33,1.41,.99s-.47,.99-1.41,.99H41.62c-.94,0-1.41-.33-1.41-.99s.47-.99,1.41-.99h15.2c.78,0,1.17-.41,1.17-1.22s-.39-1.22-1.17-1.22h-16.13c-.94,0-1.41-.48-1.41-1.46s.47-1.46,1.41-1.46h16.13c.78,0,1.17-.22,1.17-.66m-17.35,11.62c0-.94,.47-1.41,1.41-1.41h39.35c.94,0,1.41,.47,1.41,1.41,.06,1.79,0,3.01-.19,3.67-.53,1.85-1.75,2.77-3.66,2.77H42.04c-.94,0-1.41-.47-1.41-1.41v-5.03Zm36.3,12.84c-.03-.88-.41-1.32-1.13-1.32h-28.14c-.78,0-1.17,.42-1.17,1.27s.39,1.27,1.17,1.27h28.09c.78,0,1.17-.41,1.17-1.22m-1.55-10.72c-.03-.63-.42-.94-1.17-.94h-24.95c-.78,0-1.17,.45-1.17,1.36s.39,1.36,1.17,1.36h23.83c1.44,.28,2.2-.31,2.3-1.79"/><path class="cls-3" d="M95.66,29.01c.16-1,.69-1.5,1.6-1.5h4.08c.94,0,1.33,.47,1.17,1.41l-1.88,10.82c-.16,1.57-.48,2.82-.98,3.76-1.19,1.6-2.92,2.21-5.21,1.83-.94,0-1.5-.47-1.69-1.41l-.37-2.35c-.25-1.19-.2-1.79,.14-1.79,.44,.03,.83-.17,1.17-.61,.25-.47,.44-1.19,.56-2.16l1.41-7.99Zm-2.72-26.62c-.19-1.07,.11-1.6,.89-1.6h3.71c.94,0,1.53,.47,1.78,1.41,.16,1.79,.81,2.89,1.97,3.29,.47,.06,.7,.52,.7,1.36v2.82c0,.94-.47,1.41-1.41,1.41-1.78,.06-3,0-3.66-.19-.88-.19-1.67-.94-2.39-2.26-.41-.94-.75-2.19-1.03-3.76l-.56-2.49Zm.14,13.17c-.19-1.07,.12-1.6,.94-1.6h3.66c.94,0,1.52,.47,1.74,1.41,.06,1.79,.69,2.88,1.88,3.29,.47,.06,.7,.52,.7,1.36v2.82c0,.94-.47,1.41-1.41,1.41-1.78,.06-3,0-3.66-.19-.88-.19-1.67-.94-2.39-2.26-.41-1-.73-2.26-.98-3.76l-.47-2.49Zm11.63,1.41c0-.75,.16-1.13,.47-1.13,.37,0,.56,.47,.56,1.41v3.15c-.03,.63-.42,1.08-1.17,1.36-.38,.09-.66-.41-.84-1.5-.13-.94-.09-1.41,.09-1.41,.85-.31,1.14-.94,.89-1.88m1.31-14.72c.97-1,1.91-1.51,2.81-1.51h2.86c.94,0,.94,.47,0,1.41l-.61,.61c-.78,.82-.73,1.22,.14,1.22h1.41c.94,0,1.41,.47,1.41,1.41v.33c0,.94-.47,1.83-1.41,2.68l-1.41,1.32c-.81,.82-.8,1.22,.05,1.22,1,.28,1.69-.06,2.06-1.03,0-.22,.23-.33,.7-.33,.5,0,.75,.47,.75,1.41-.03,1.73-.86,2.7-2.48,2.92-.53,.03-.8,.39-.8,1.08v6.35c0,.94-.47,1.41-1.41,1.41h-1.08c-.94,0-1.41-.47-1.41-1.41v-6.25c0-.78-.51-1.18-1.55-1.18s-1.55-.47-1.55-1.41v-.75c0-.94,.47-1.77,1.41-2.49l1.41-1.13c.97-.78,1.05-1.18,.23-1.18h-1.64c-.94,0-1.41-.47-1.41-1.41v-.38c0-.94,.5-1.91,1.5-2.91m-.98,24.22c0-.94,.47-1.41,1.41-1.41h28.7c.94,0,1.41,.47,1.41,1.41v4c-.34,2.32-1.56,3.51-3.66,3.57h-19.18c-.78,0-1.17,.46-1.17,1.36s.39,1.37,1.17,1.37h21.43c.94,0,1.41,.47,1.41,1.41v3.48c-.03,2.1-1.25,3.32-3.66,3.67h-25.84c-.94,0-1.53-.47-1.78-1.41-.25-1,.06-1.5,.94-1.5h20.54c1.34,.31,2.13-.25,2.35-1.69,0-.69-.39-1.03-1.17-1.03h-21.43c-.94,0-1.41-.47-1.41-1.41v-5.78c0-.94,.47-1.41,1.41-1.41h20.35c1.37,.31,2.13-.24,2.25-1.65,0-.69-.39-1.03-1.17-1.03h-21.48c-.94,0-1.41-.47-1.41-1.41v-.52Zm7.93-9.22c0-.97,.16-1.46,.47-1.46,.37,0,.56,.47,.56,1.41v2.63c0,.94-.17,1.41-.52,1.41s-.52-.47-.52-1.41v-2.59ZM117.66,.94c0-.63,.44-.94,1.31-.94h2.86c.94,0,1.41,.28,1.41,.85,0,.63,.31,.94,.94,.94s.94,.42,.94,1.27-.47,1.27-1.41,1.27h-6.57c-.94,0-1.41-.42-1.41-1.27s.31-1.27,.94-1.27c.66,0,.98-.28,.98-.85m-1.13,15.42c0-.97,.45-1.46,1.36-1.46h5.44c.94,0,1.41,.47,1.41,1.41,.19,2.01-.06,3.65-.75,4.94-.59,.88-1.56,1.38-2.91,1.51h-3.14c-.94,0-1.41-.47-1.41-1.41v-4.98Zm.14-8.79c0-.72,.47-1.08,1.41-1.08h5.25c.94,0,1.41,.36,1.41,1.08s-.47,1.08-1.41,1.08h-5.25c-.94,0-1.41-.36-1.41-1.08m0,4.18c0-.75,.45-1.13,1.36-1.13h5.11c.94,0,1.41,.36,1.41,1.08s-.47,1.08-1.41,1.08h-5.07c-.94,0-1.41-.34-1.41-1.03m5.49,6.82c0-.72-.5-1.08-1.5-1.08s-1.55,.45-1.55,1.36,.33,1.36,.98,1.36c1.25,.25,1.94-.3,2.06-1.65m4.88-1.69c0-.81,.17-1.22,.52-1.22s.52,.47,.52,1.41v1.88c.31,1.13-.06,2.07-1.12,2.82-.28,.06-.5-.36-.66-1.27-.19-1.06-.17-1.63,.05-1.69,.72-.28,.95-.92,.7-1.93m1.36-15c.81-.85,1.69-1.27,2.63-1.27h2.81c.94,0,.97,.47,.09,1.41-.09,.16-.23,.31-.42,.47-.97,1.03-1.02,1.55-.14,1.55h1.55c.94,0,1.41,.47,1.41,1.41v.33c0,.94-.47,1.8-1.41,2.59l-1.41,1.22c-1,.94-1.06,1.41-.19,1.41,1.22,.31,1.94-.06,2.16-1.13,0-.28,.23-.42,.7-.42,.5,0,.75,.47,.75,1.41,.09,1.69-.67,2.7-2.3,3.01-.69,.09-1.03,.49-1.03,1.17v6.3c0,.94-.47,1.41-1.41,1.41h-1.03c-.94,0-1.41-.47-1.41-1.41v-6.25c0-.78-.52-1.18-1.55-1.18s-1.55-.47-1.55-1.41v-.71c0-.94,.47-1.77,1.41-2.49l1.83-1.32c.84-.69,.84-1.04,0-1.04h-1.83c-.94,0-1.41-.47-1.41-1.41v-.38c0-.94,.44-1.88,1.31-2.82l.42-.47Zm6.89,15.09c0-1,.16-1.5,.47-1.5,.38,0,.56,.47,.56,1.41v3.34c0,.94-.17,1.41-.52,1.41s-.52-.47-.52-1.41v-3.25Z"/><path class="cls-3" d="M146.38,22.01c0-.94,.47-1.41,1.41-1.41h40.66c.94,0,1.41,.47,1.41,1.41v1.22c0,.94-.47,1.41-1.41,1.41h-33.82c-.78,0-1.17,.39-1.17,1.18v5.13c0,.78,.39,1.17,1.17,1.17h33.77c.94,0,1.41,.47,1.41,1.41v1.08c0,.94-.47,1.41-1.41,1.41h-22.89c-.78,0-1.17,.39-1.17,1.18-.03,1.13,0,2.3,.09,3.53,.62,.85,1.75,1.13,3.38,.85,.94,0,1.41,.47,1.41,1.41v1.03c0,.94-.47,1.41-1.41,1.41h-6.89c-2.16-.09-3.38-1.3-3.66-3.62v-4.61c0-.78-.39-1.18-1.17-1.18h-1.45c-.78,0-1.17,.39-1.17,1.18v4.42c-.09,2.01-1.12,3.21-3.1,3.62-1.16,.09-2.31,.12-3.47,.09-.94,0-1.49-.47-1.64-1.41l-.42-2.82c-.13-.91-.06-1.36,.19-1.36,1.19-.22,1.64-.94,1.36-2.16v-15.57ZM157.83,1.18c0-.63,.44-.94,1.31-.94h4.31c.94,0,1.41,.28,1.41,.85,0,.63,.39,.94,1.17,.94h2.81c.78,0,1.17-.3,1.17-.89s.47-.89,1.41-.89h4.22c.94,0,1.41,.28,1.41,.85,0,.63,.39,.94,1.17,.94h8.72c.94,0,1.41,.47,1.41,1.41V14.29c-.03,2.1-1.24,3.32-3.61,3.67h-36.77c-.94,0-1.41-.47-1.41-1.41V3.43c0-.94,.47-1.41,1.41-1.41h8.68c.78,0,1.17-.28,1.17-.85m0,5.92c0-1.03-.36-1.55-1.08-1.55h-2.72c-.78,0-1.17,.5-1.17,1.5s.39,1.51,1.17,1.51h2.63c.78,0,1.17-.49,1.17-1.46m0,5.92c0-1.04-.38-1.55-1.13-1.55h-2.67c-.78,0-1.17,.5-1.17,1.5s.39,1.5,1.17,1.5h2.63c.78,0,1.17-.49,1.17-1.46m-1.17,15.24c0-.88,.47-1.32,1.41-1.32h29.22c.94,0,1.41,.42,1.41,1.27s-.47,1.32-1.41,1.32h-29.22c-.94,0-1.41-.42-1.41-1.27m13.37-21.16c0-1.03-.36-1.55-1.08-1.55h-2.91c-.78,0-1.17,.5-1.17,1.5s.39,1.51,1.17,1.51h2.81c.78,0,1.17-.49,1.17-1.46m0,5.92c0-1.04-.37-1.55-1.12-1.55h-2.86c-.78,0-1.17,.5-1.17,1.5s.39,1.5,1.17,1.5h2.81c.78,0,1.17-.49,1.17-1.46m.94,26.38c-.66-.94-.52-1.41,.42-1.41h5.67c.94,0,1.53,.16,1.78,.47,.28,.34,.78,.52,1.5,.52,.87,.16,1.56-.05,2.06-.61,.31-.25,.94-.38,1.88-.38h2.06c.94,0,.94,.41,0,1.22-1.06,.72-2.5,1.13-4.31,1.22-.87,0-1.11,.31-.7,.94,.56,.66,1.25,1,2.06,1.03h5.21c.94,0,1.41,.49,1.41,1.46s-.47,1.46-1.41,1.46h-11.02c-1.38-.13-2.49-.55-3.33-1.27l-3.28-4.66Zm11.07-32.31c0-1.03-.36-1.55-1.08-1.55h-2.72c-.78,0-1.17,.5-1.17,1.5s.39,1.51,1.17,1.51h2.63c.78,0,1.17-.49,1.17-1.46m0,5.36c0-.66-.37-.99-1.13-.99h-2.67c-.78,0-1.17,.5-1.17,1.5s.39,1.5,1.17,1.5h1.55c1.56,.31,2.31-.36,2.25-2.02"/><path class="cls-3" d="M211.17,1.74c0-1,.44-1.51,1.31-1.51h3.99c.94,0,1.41,.47,1.41,1.41v6.87c0,.78,.39,1.18,1.17,1.18h2.58c.78,0,1.17-.39,1.17-1.18V1.65c0-.94,.47-1.41,1.41-1.41h3.89c.94,0,1.41,.47,1.41,1.41v6.87c0,.78,.39,1.18,1.17,1.18h10.18c.94,0,1.41,.47,1.41,1.41v1.6c0,.94-.47,1.41-1.41,1.41h-3c-.75,0-1.39,.47-1.92,1.41-.03,.16-.11,.31-.23,.47-.44,.94-.31,1.41,.38,1.41h4.6c.94,0,1.41,.47,1.41,1.41v1.22c0,.94-.47,1.41-1.41,1.41h-15.53c-.78,0-1.17,.52-1.17,1.55s.39,1.55,1.17,1.55h15.29c.94,0,1.41,.47,1.41,1.41v1.22c0,.94-.47,1.41-1.41,1.41h-15.29c-.78,0-1.17,.49-1.17,1.46s.39,1.46,1.17,1.46h15.9c.94,0,1.41,.47,1.41,1.41v1.6c0,.94-.47,1.41-1.41,1.41h-15.9c-.78,0-1.17,.39-1.17,1.17v6.82c0,.94-.47,1.41-1.41,1.41h-4.46c-.94,0-1.41-.47-1.41-1.41v-6.82c0-.78-.39-1.17-1.17-1.17h-15.95c-.94,0-1.41-.47-1.41-1.41v-1.6c0-.94,.47-1.41,1.41-1.41h15.95c.78,0,1.17-.49,1.17-1.46s-.39-1.46-1.17-1.46h-15.2c-.94,0-1.41-.47-1.41-1.41v-1.22c0-.94,.47-1.41,1.41-1.41h15.2c.78,0,1.17-.52,1.17-1.55s-.39-1.55-1.17-1.55h-15.57c-.94,0-1.41-.47-1.41-1.41v-1.22c0-.94,.47-1.41,1.41-1.41h4.41c.81,0,.95-.5,.42-1.5l-.19-.38c-.5-.94-1.13-1.41-1.88-1.41h-2.95c-.94,0-1.41-.47-1.41-1.41v-1.6c0-.94,.47-1.41,1.41-1.41h10.22c.78,0,1.17-.39,1.17-1.18V1.74Zm-9.29,38c.59-1.04,1.34-1.55,2.25-1.55h4.5c.94,0,1.14,.47,.61,1.41-.63,1.1-1.19,2.19-1.69,3.29-.81,1.44-2,2.26-3.56,2.44h-3.47c-.94,0-1.52-.47-1.74-1.41l-.33-1.41c-.22-1.07,.2-1.6,1.27-1.6,.78-.03,1.5-.42,2.16-1.17m-2.91-37.53c-.28-.97,.03-1.46,.94-1.46h3.89c.94,0,1.63,.47,2.06,1.41,.53,1.07,1.25,1.5,2.16,1.32,.41,0,.61,.47,.61,1.41v1.22c0,.94-.47,1.41-1.41,1.41h-3.71c-1.97-.03-3.25-1-3.85-2.92l-.7-2.4Zm29.27,13.31c.53-.94,.39-1.41-.42-1.41h-15.01c-1.28-.31-1.36,.31-.23,1.88,.5,.94,1.12,1.41,1.88,1.41h11.63c.75,0,1.39-.47,1.92-1.41,.12-.16,.2-.31,.24-.47m2.58,23.89c-.53-.91-.33-1.36,.61-1.36h4.92c.94,0,1.67,.47,2.2,1.41,.62,1.1,1.44,1.58,2.44,1.46,.94,0,1.41,.47,1.41,1.41v1.6c0,.94-.47,1.41-1.41,1.41h-3.19c-2.19-.16-3.99-1.19-5.39-3.1l-1.59-2.82ZM234.9,1.5c.19-.59,.75-.89,1.69-.89h3.99c.94,0,1.19,.47,.75,1.41l-1.5,3.29c-.47,.97-1.31,1.63-2.53,1.98-.72,.25-1.86,.33-3.42,.23-.94,0-1.52-.47-1.74-1.41l-.24-1.08c-.22-1.03-.12-1.55,.28-1.55,1.16,.22,2.06-.44,2.72-1.98"/><path class="cls-3" d="M252.84,2.59c.25-1.19,.83-1.79,1.74-1.79h12.29c.94,0,1.49,.47,1.64,1.41,.38,2.04,.8,4.08,1.27,6.11,0,.6,.37,1.02,1.13,1.27,.22,.03,.33,.5,.33,1.41v2.44c0,.94-.2,1.41-.61,1.41-.47,0-.7,.39-.7,1.18v10.96c-.03,2.1-1.24,3.32-3.61,3.67h-6.29c-.78,0-1.17,.49-1.17,1.46s.39,1.46,1.17,1.46h8.25c.94,0,1.41,.47,1.41,1.41v1.6c0,.94-.47,1.41-1.41,1.41h-8.25c-.78,0-1.17,.49-1.17,1.46s.39,1.46,1.17,1.46h8.49c.94,0,1.41,.47,1.41,1.41v1.6c0,.94-.47,1.41-1.41,1.41h-15.34c-.94,0-1.41-.47-1.41-1.41V16.04c0-.78-.23-1.18-.7-1.18-.44,0-.66-.47-.66-1.41v-2.59c0-.75,.25-1.27,.75-1.55,.38-.38,.61-.74,.7-1.08,.28-1.88,.61-3.76,.99-5.64m11.3,10.35c-.19-.47-.66-.71-1.41-.71h-4.13c-.75,0-1.42,.47-2.02,1.41-.84,.85-.86,1.27-.05,1.27h8.63c.97,0,.89-.3-.24-.89-.31-.31-.58-.67-.8-1.08m-1.17-5.64c-.16-.85-.59-1.27-1.31-1.27h-1.83c-.75,0-1.25,.47-1.5,1.41l-.14,.71c-.12,.78,.2,1.17,.99,1.17h2.91c.78,0,1.11-.49,.98-1.46l-.09-.56Zm-.14,12.79c0-.97-.39-1.46-1.17-1.46h-1.64c-.78,0-1.17,.49-1.17,1.46s.39,1.46,1.17,1.46h1.64c.78,0,1.17-.49,1.17-1.46m0,4.94c0-.63-.38-.94-1.13-.94h-1.69c-.78,0-1.17,.47-1.17,1.41s.5,1.46,1.5,1.46,1.52-.03,1.64-.09c.66-.38,.94-.99,.84-1.83M280.65,1.41c0-.78,.44-1.18,1.31-1.18h4.31c.94,0,1.41,.38,1.41,1.13s.39,1.18,1.17,1.18h5.02c.94,0,1.41,.47,1.41,1.41v4.8c0,.94-.47,1.41-1.41,1.41h-4.03c-.94,0-1.41-.39-1.41-1.17,0-.85-.39-1.27-1.17-1.27h-6.57c-.78,0-1.17,.41-1.17,1.22s-.47,1.22-1.41,1.22h-4.03c-.94,0-1.41-.47-1.41-1.41V3.95c0-.94,.47-1.41,1.41-1.41h5.39c.78,0,1.17-.38,1.17-1.13m-6.47,12.84c0-.94,.47-1.41,1.41-1.41h17.35c.94,0,1.41,.47,1.41,1.41v9.59c0,2.01-1.19,3.21-3.57,3.62h-8.58c-.78,0-1.17,.52-1.17,1.55s.39,1.55,1.17,1.55h11.16c.94,0,1.41,.47,1.41,1.41v9.64c-.09,2.23-1.3,3.46-3.61,3.71h-15.57c-.94,0-1.41-.47-1.41-1.41V14.25Zm13.32,5.41c0-1.06-.38-1.6-1.13-1.6h-4.17c-.78,0-1.17,.39-1.17,1.17v1.88c0,.78,.39,1.18,1.17,1.18,1.5,.03,3,0,4.5-.09,.81-.66,1.08-1.5,.8-2.54m.37,17.3c0-.81-.37-1.22-1.13-1.22h-4.55c-.78,0-1.17,.39-1.17,1.18v2.02c0,.78,.39,1.18,1.17,1.18,1.56,.03,3.17,0,4.83-.09,.85-.6,1.13-1.62,.85-3.06"/><path class="cls-4" d="M306.62,132.71H0l22.63-49.27H324.69l-18.07,49.27Z"/><g><path class="cls-1" d="M50.34,96.77c-1.46,6.16-2.58,10.99-3.36,14.44-.69,3.4-1.03,5.73-1.03,6.94,0,.73,.04,1.51,.17,2.33,.43,1.72,.69,3.02,.69,4.05,0,.73-.21,1.25-.56,1.55-.39,.43-.99,.65-1.81,.65-1.08,0-1.9-.21-2.46-.65-.39-.3-.56-.82-.56-1.55,0-.52,.13-1.25,.39-2.24,.09-.73,.13-1.34,.13-1.81,0-.95-.17-1.72-.47-2.28-.34-.56-1.34-1.08-3.06-1.55l.13-1.03c1.77,0,2.93-.13,3.49-.39,.52-.3,.95-.95,1.25-1.98l6.21-16.63,.86,.17Zm-6.16,3.92c.86,.65,1.29,1.42,1.29,2.28s-.39,1.64-1.12,2.41c-.52,.52-1.16,.78-1.94,.78-.52,0-.99-.56-1.38-1.72-.52-1.64-1.38-3.28-2.63-4.83l.47-.86c2.5,.6,4.27,1.25,5.3,1.94Zm2.2-10.6c.82,.65,1.25,1.42,1.25,2.28s-.39,1.64-1.08,2.41c-.52,.52-1.16,.78-1.94,.78-.52,0-.99-.56-1.38-1.72-.52-1.64-1.38-3.28-2.67-4.83l.52-.86c2.5,.6,4.27,1.25,5.3,1.94Zm8.19,2.8h.13v-1.21c0-1.38-.17-2.63-.47-3.71,1.25,.17,2.76,.43,4.57,.69,1.64,.17,2.5,.47,2.5,.86,0,.47-.43,.86-1.21,1.12-.56,.17-.82,.52-.82,1.03v1.21h6.89v-1.21c0-1.38-.17-2.63-.52-3.71,1.25,.17,2.76,.43,4.57,.69,1.64,.17,2.5,.47,2.5,.86,0,.47-.39,.86-1.16,1.12-.56,.17-.82,.52-.82,1.03v1.21h.82c.09-.04,.52-.56,1.25-1.51,.9-1.12,1.46-1.68,1.64-1.68,.43,0,1.16,.56,2.16,1.64,.99,1.12,1.51,1.81,1.51,2.02,0,.47-.22,.69-.65,.69h-6.72v6.25c0,.56-.69,.95-2.07,1.16-.6,.13-1.08,.17-1.34,.17-.91,0-1.34-.26-1.34-.86,.04-.26,.09-.47,.09-.65h-1.42v4.01h6.38c.35-.34,.65-.6,.86-.86,.69-.6,1.21-.95,1.51-.95,.39,0,1.25,.47,2.54,1.38,1.21,.95,1.85,1.64,1.85,1.98,0,.26-.3,.65-.9,1.08-.78,.52-1.12,.99-1.12,1.42v14.48c0,1.55-.69,2.76-2.03,3.58-1.08,.65-1.98,.99-2.71,.99-.34,0-.65-.56-.9-1.68-.34-1.38-1.81-2.46-4.31-3.4l.17-.82c2.07,.26,3.75,.35,5.04,.35,.35,0,.52-.43,.52-1.38v-1.72c-.17,.26-.3,.56-.39,.86-.22,.82-.43,1.21-.6,1.21s-.43-.43-.73-1.33c-.34-.91-.6-2.03-.78-3.32-.04-.34-.09-.78-.09-1.29-.09,.26-.17,.52-.26,.73-.47,1.16-1.12,2.24-1.94,3.19-.69,.82-1.38,1.51-2.11,2.02,0,1.77,.09,3.19,.17,4.4,0,.43-.69,.78-2.07,1.03-.6,.09-1.03,.13-1.29,.13-.69,0-1.03-.39-1.03-1.16,.09-1.42,.17-3.4,.17-6.08v-1.21c-.3,.34-.52,.82-.69,1.34-.26,.82-.47,1.21-.65,1.21s-.43-.43-.73-1.29c-.34-.86-.6-1.94-.78-3.23-.04-.21-.04-.47-.04-.82l-.04,.04c-.52,1.12-1.21,2.2-2.11,3.15-.69,.73-1.34,1.34-2.03,1.81v6.42c0,.47-.65,.82-1.85,1.08-.56,.04-.95,.09-1.16,.09-.91,0-1.34-.39-1.34-1.16,.17-2.76,.3-5.13,.3-7.24v-9.91c0-1.81-.13-4.01-.3-6.59,1.59,.43,3.06,.91,4.44,1.51h6.98v-4.01h-1.34v.47c0,.56-.69,.95-2.03,1.21-.65,.13-1.08,.17-1.33,.17-.91,0-1.34-.26-1.34-.86,.09-.73,.13-1.29,.13-1.68v-5.39h-.13c-2.5,0-4.22,.09-5.26,.17l-.65-1.68c1.34,.26,3.32,.34,5.9,.34Zm4.27,19.43c.22,1.03,.47,1.81,.78,2.33,.22,.52,.56,.95,.99,1.34v-10.64h-7.07v3.53h1.85c.34-.43,.6-.78,.82-1.08,.43-.52,.69-.78,.86-.78,.22,0,.78,.34,1.72,1.03,.86,.65,1.29,1.12,1.29,1.46,0,.17-.22,.34-.56,.43-.47,.17-.73,.39-.78,.6-.09,.34-.13,.6-.13,.86,.04,.34,.13,.65,.22,.9Zm-4.78,5c.52-1.03,.91-2.15,1.16-3.32,.26-1.29,.43-2.58,.52-3.96h-2.2v8.23c.17-.34,.34-.65,.52-.95Zm12.11-18.4v-4.87h-6.89v4.87h6.89Zm3.96,13.53c.21,1.12,.47,1.9,.73,2.41,.17,.43,.43,.78,.69,1.03v-10.56h-6.89v3.53h1.51c.34-.43,.65-.78,.91-1.08,.43-.52,.78-.78,.95-.78,.21,0,.82,.39,1.81,1.08,.91,.73,1.38,1.25,1.38,1.59,0,.21-.22,.39-.65,.52-.47,.17-.73,.3-.78,.47,.04,.6,.17,1.21,.34,1.77Zm-5,5.21c.43-1.08,.73-2.24,.95-3.45,.22-1.38,.34-2.76,.43-4.18h-1.85v8.79c.17-.39,.3-.78,.47-1.16Z"/><path class="cls-1" d="M106.4,90.86h8.06c.09-.04,.52-.52,1.25-1.42,.91-1.03,1.46-1.59,1.64-1.59,.43,0,1.12,.56,2.07,1.59s1.46,1.68,1.46,1.94c0,.43-.26,.65-.69,.65h-6.59c-1.03,1.98-2.2,3.75-3.53,5.21h3.06c.52-.43,.95-.86,1.33-1.25,.6-.6,1.08-.91,1.34-.91,.47,0,1.34,.43,2.59,1.25,1.42,1.12,2.15,1.9,2.15,2.28,0,.34-.34,.73-1.03,1.16-.56,.52-.82,.95-.82,1.34v8.4l.34,8.27c0,.56-.78,.95-2.28,1.21-.69,.09-1.16,.13-1.42,.13-.82,0-1.21-.43-1.21-1.34v-.17h-7.37v.69c0,.13-.04,.21-.09,.26,.95,.52,1.77,.99,2.54,1.38,1.25,.69,1.9,1.21,1.9,1.55,0,.39-.3,.6-.91,.6-.78,0-1.21,.13-1.29,.39-1.12,.86-2.37,1.59-3.66,2.24-1.46,.78-3.75,1.64-6.94,2.5l-.34-.69c1.77-1.21,3.32-2.46,4.65-3.84,1.21-1.21,2.11-2.37,2.71-3.49-.17,.09-.39,.13-.56,.13-.6,.09-.99,.13-1.25,.13-1.03,0-1.51-.39-1.51-1.16,.22-2.97,.34-5.6,.34-7.93v-7.76c0-1.9-.13-4.14-.3-6.81-.34,0-.52,.04-.56,.09-.99,.9-2.15,1.77-3.53,2.63,.26,.22,.6,.43,.99,.69,1.25,1.03,1.9,1.72,1.9,2.07,0,.26-.47,.47-1.34,.73-.95,.17-1.46,.3-1.55,.43-.69,1.34-1.38,2.54-2.07,3.58,.43,.13,.86,.26,1.21,.34,2.11,.69,3.45,1.38,4.05,2.03,.34,.39,.52,.82,.52,1.29,0,.73-.21,1.29-.56,1.68-.56,.6-1.08,.86-1.59,.86-.43,0-1.12-.43-1.98-1.29-1.03-.95-2.11-1.85-3.27-2.63-.22,.26-.39,.47-.56,.65-1.46,1.72-2.93,3.06-4.35,4.09l1.03,.52h3.58c.43-.56,.82-1.03,1.16-1.42s.65-.6,.99-.6c.43,0,1.21,.43,2.33,1.21,1.25,.86,1.9,1.51,1.9,1.85,0,.26-.22,.52-.56,.78s-.56,.47-.6,.73v7.89c0,.47-.65,.82-1.94,1.08-.6,.09-.99,.13-1.25,.13-.82,0-1.21-.34-1.21-1.03v-.65h-4.52v1.85c0,.43-.69,.78-1.98,1.03-.56,.09-.99,.13-1.25,.13-1.03,0-1.51-.39-1.51-1.16,.22-1.94,.35-3.88,.35-5.9v-4.14c-1.21,.69-2.46,1.25-3.71,1.77l-.34-.47c2.41-1.81,4.65-3.83,6.72-6.08,1.16-1.38,2.11-2.63,2.84-3.79-1.29-.56-2.71-1.16-4.35-1.81-1.25,1.29-2.76,2.54-4.52,3.75l-.34-.52c1.08-1.34,2.24-3.23,3.49-5.64,1.03-1.94,1.94-4.4,2.76-7.33,1.38,.47,2.63,.86,3.66,1.12,1.38,.43,2.07,.78,2.07,1.08,0,.34-.43,.52-1.25,.6-.65,.09-1.03,.26-1.12,.43-.22,.43-.43,.82-.65,1.16h2.84c.39-.35,.78-.69,1.12-1.04,.6-.52,1.03-.82,1.38-.82,.09,0,.22,.04,.39,.09,.3-1.08,.56-2.15,.82-3.27h-10.86c-.09,.95-.17,1.68-.26,2.11-.26,1.08-.69,1.81-1.25,2.24-.34,.26-.73,.34-1.12,.34-.78,0-1.38-.21-1.85-.65-.47-.34-.69-.86-.69-1.55,0-.34,.39-.82,1.25-1.38,.86-.52,1.55-1.12,2.07-1.81,.52-.6,.91-1.55,1.25-2.84l.69,.17c0,.86-.04,1.55-.04,2.15h3.4v-1.68c0-1.12-.13-2.33-.34-3.53,1.72,.17,3.4,.43,5.04,.73,.99,.04,1.51,.3,1.51,.82,0,.17-.3,.39-.86,.65-.69,.3-.99,.65-.99,1.03v1.98h2.54c.43-.43,.86-.78,1.21-1.03,.52-.52,.9-.78,1.16-.78,.34,0,1.12,.56,2.41,1.64,1.16,.95,1.77,1.64,1.77,2.03,0,.26-.17,.39-.52,.47,1.46,.43,2.84,.95,4.14,1.55h.52c.17-1.47,.39-3.23,.56-5.21h-1.98c-2.5,0-4.22,.09-5.21,.17l-.69-1.68c1.34,.26,3.32,.34,5.9,.34Zm-14.13,14.31c.69-1.38,1.29-2.84,1.85-4.4h-3.71c-.73,1.21-1.51,2.2-2.28,2.97-.17,.26-.39,.43-.56,.6,1.72,.3,3.32,.56,4.7,.82Zm2.5,17.15v-7.54h-4.52v7.54h4.52Zm19.35-18.83v-5.04h-7.37v5.04h7.37Zm0,6.55v-5.39h-7.37v5.39h7.37Zm0,6.42v-5.21h-7.37v5.21h7.37Zm3.88,4.4c2.11,.86,3.19,1.72,3.19,2.67,0,.86-.26,1.59-.69,2.11-.69,.69-1.34,1.08-1.98,1.08-.47,0-.95-.39-1.42-1.08-.6-.95-1.42-2.03-2.5-3.23-.56-.6-1.59-1.47-3.15-2.59l.52-.69c2.5,.52,4.48,1.08,6.03,1.72Z"/><path class="cls-1" d="M129.97,98.28v-5.9c0-.82-.13-2.28-.34-4.39,2.33,.34,3.88,.65,4.61,.86,1.85,.34,2.8,.73,2.8,1.16s-.43,.78-1.21,1.03c-.78,.21-1.16,.56-1.16,.99v6.25s.34-.34,.86-.95c.65-.69,1.03-1.08,1.16-1.08,.3,0,.78,.39,1.46,1.12,.69,.78,1.03,1.25,1.03,1.38,0,.47-.17,.69-.47,.69h-4.05v7.46c1.46-.17,2.89-.34,4.22-.56l.3,.69c-1.55,.95-3.06,1.81-4.52,2.54v12.93c0,1.72-.6,2.97-1.72,3.66-1.29,.82-2.58,1.25-3.83,1.25-.34,0-.56-.39-.65-1.16-.17-1.29-1.42-2.54-3.75-3.75l.17-.82c1.81,.34,3.19,.47,4.05,.47,.69,0,1.03-.22,1.03-.65v-9.87c-.47,.17-.9,.34-1.29,.47-.26,.09-.47,.3-.56,.65-.13,.17-.26,.43-.34,.69-.26,.43-.52,.65-.86,.65s-.82-1.08-1.34-3.28c-.13-.6-.34-1.59-.69-2.97,1.72-.13,3.45-.3,5.08-.47v-7.93c-2.24,0-3.79,.09-4.74,.17l-.65-1.68c1.25,.26,3.06,.34,5.39,.34Zm14.91-.34h3.58v-6.08c0-1.25-.13-2.54-.34-3.88,1.98,.21,3.88,.47,5.69,.82,1.12,.04,1.72,.34,1.72,.91,0,.17-.34,.43-1.03,.73-.78,.3-1.12,.69-1.12,1.12v6.38h3.02c.47-.52,.91-1.03,1.34-1.47,.6-.69,1.08-1.08,1.34-1.08,.47,0,1.34,.47,2.63,1.34,1.51,1.21,2.28,1.98,2.28,2.37,0,.34-.34,.78-1.03,1.21-.56,.47-.82,.9-.82,1.33v15.47l.3,8.27c0,.52-.78,.95-2.24,1.21-.69,.09-1.16,.13-1.42,.13-.82,0-1.21-.47-1.21-1.34v-2.03h-13.1v2.33c0,.56-.73,.99-2.2,1.25-.65,.09-1.12,.13-1.38,.13-1.03,0-1.51-.47-1.51-1.38,.21-3.23,.34-6.08,.34-8.58v-13.27c0-2.11-.13-4.7-.34-7.76,1.98,.47,3.79,1.08,5.52,1.85Zm3.58,11.59v-10.43h-4.01v10.43h4.01Zm0,12.63v-11.42h-4.01v11.42h4.01Zm4.91-12.63h4.18v-10.43h-4.18v10.43Zm0,12.63h4.18v-11.42h-4.18v11.42Z"/><path class="cls-1" d="M175.22,114.91h8.49c.43-1.59,.78-3.45,.95-5.52,1.46,.34,2.76,.73,3.79,1.08,1.64,.52,2.46,.99,2.46,1.42s-.34,.73-.99,.86c-.56,.13-.86,.34-.86,.65-.09,.56-.22,1.08-.34,1.51h10.95c.09,0,.47-.52,1.25-1.46,.86-1.12,1.42-1.72,1.59-1.72,.43,0,1.16,.56,2.2,1.68,.99,1.12,1.51,1.77,1.51,2.02,0,.47-.26,.69-.69,.69h-15.43c.69,.78,1.55,1.51,2.54,2.16,1.34,.9,3.15,1.68,5.39,2.33,2.76,.82,5.82,1.47,9.22,1.9l-.17,.86c-1.34,.47-2.2,1.12-2.54,1.98-.47,1.03-.86,1.55-1.16,1.55-.52,0-1.51-.3-2.93-.82-1.64-.56-3.32-1.34-5.13-2.33-1.42-.73-2.71-1.72-3.83-3.02-1.08-1.08-1.98-2.63-2.67-4.61h-.47c-.52,1.55-1.25,2.93-2.11,4.14-1.21,1.55-3.02,2.89-5.43,4.01-2.5,1.03-6.64,2.03-12.45,2.97l-.17-.52c4.7-1.55,7.97-2.97,9.87-4.22,1.9-1.16,3.36-2.59,4.35-4.27,.35-.6,.69-1.34,.95-2.11h-8.1c-2.46,0-4.18,.09-5.21,.17l-.65-1.68c1.34,.22,3.27,.3,5.86,.3Zm8.19-25.9c1.38,.17,2.11,.47,2.11,.82,0,.52-.43,.91-1.21,1.16-.56,.17-.82,.52-.82,1.04v18.53c0,.56-.69,.95-2.07,1.21-.6,.09-1.03,.13-1.29,.13-1.03,0-1.55-.43-1.55-1.34,.21-2.67,.34-5.17,.34-7.41v-.52h-1.98c-.26,1.29-.56,2.5-.99,3.62s-.86,2.03-1.34,2.67c-.52,.73-1.16,1.38-1.9,1.9-.95,.69-1.94,1.21-3.06,1.59l-.3-.69c.52-.6,.95-1.21,1.34-1.85,.3-.56,.6-1.25,.86-2.03,.17-.52,.34-1.33,.52-2.37,.17-.86,.3-1.77,.39-2.8-1.16,0-2.15,.04-2.93,.13l-.69-1.68c1.51,.26,3.36,.34,5.56,.34h4.52v-4.52h-3.36v1.16c0,.47-.65,.82-1.94,1.03-.6,.09-.99,.13-1.25,.13-.78,0-1.16-.26-1.16-.82,.09-.69,.17-1.16,.17-1.51v-4.4c0-1.29-.17-2.41-.52-3.36,1.16,.17,2.59,.34,4.22,.56,1.55,.17,2.33,.43,2.33,.78,0,.52-.39,.86-1.08,1.12-.52,.22-.78,.56-.78,1.08v3.02h3.36c0-2.84-.17-5.3-.47-7.41,1.29,.13,2.93,.34,4.96,.69Zm11.85-.26c1.21,.34,1.85,.65,1.85,.95,0,.34-.39,.6-1.12,.69-.6,.13-.99,.3-1.08,.47-.26,.22-.43,.39-.6,.52h4.01c.39-.34,.78-.69,1.12-1.03,.6-.52,1.03-.82,1.38-.82s1.25,.52,2.63,1.51c1.29,1.12,1.94,1.85,1.94,2.2,0,.26-.47,.47-1.38,.73-.9,.17-1.42,.3-1.51,.43-1.34,1.03-2.63,1.9-3.83,2.59,1.34,.21,2.24,.39,2.71,.52,1.64,.3,2.46,.69,2.46,1.12,0,.34-.34,.69-.99,.95-.69,.17-.99,.47-.99,.91v1.34h.99c.26-.34,.56-.91,.9-1.64,.47-.95,.78-1.42,.95-1.42,.26,0,.82,.56,1.59,1.64,.69,.95,1.08,1.59,1.08,1.94,0,.43-.17,.65-.47,.65h-5.04v4.22c0,1.51-.43,2.54-1.29,3.15-.99,.69-1.98,1.03-2.93,1.03-.3,0-.47-.3-.56-.99-.17-1.03-1.29-2.11-3.32-3.19l.17-.69c1.29,.26,2.24,.34,2.84,.34,.56,0,.86-.21,.86-.69v-3.19h-9.26c-.86,0-1.98,.09-3.36,.17l-.69-1.68c1.72,.26,3.1,.34,4.05,.34h9.26v-1.21c0-.6-.09-1.59-.26-2.97-1.51,.73-3.02,1.29-4.52,1.72-2.37,.73-4.87,1.34-7.5,1.77l-.34-.65c1.25-.43,2.46-.86,3.66-1.38-.26-.26-.43-.56-.56-.95-.3-.95-.82-1.9-1.51-2.76-.52,.17-1.08,.34-1.59,.52l-.34-.52c1.25-.78,2.59-1.85,4.05-3.27,1.21-1.12,2.24-2.54,3.19-4.27,1.29,.34,2.41,.65,3.36,.91Zm-4.96,6.89c.6,.34,.9,.78,.9,1.29,0,.43-.13,.82-.34,1.21,.52-.26,.99-.47,1.51-.73,.34-.17,.65-.34,.95-.52-.34-.13-.65-.43-.9-.95-.34-.78-.95-1.55-1.72-2.28-.78,.43-1.68,.82-2.67,1.21,1.03,.26,1.77,.52,2.28,.78Zm1.85,9.13c.6,.43,.91,.86,.91,1.38,0,.73-.3,1.42-.91,2.03-.43,.47-.95,.69-1.59,.69-.34,0-.65-.39-.86-1.21-.34-1.16-.91-2.28-1.68-3.36l.34-.65c1.81,.34,3.06,.73,3.79,1.12Zm3.27,5.65c.69,.39,1.03,.82,1.03,1.29,0,.73-.34,1.42-.95,2.02-.43,.47-.95,.69-1.59,.69-.43,0-.78-.39-1.03-1.21-.39-1.08-1.03-2.15-1.98-3.19l.3-.65c1.98,.34,3.4,.69,4.22,1.03Zm-.82-16.81c.65,.34,.99,.69,.99,1.12,0,.34-.09,.6-.17,.86,.26-.17,.52-.39,.73-.56,.86-.78,1.59-1.59,2.28-2.5h-5.77c-.26,.17-.47,.3-.69,.39,1.21,.26,2.07,.47,2.63,.69Z"/><path class="cls-1" d="M217.15,101.33c.86,.78,1.34,1.64,1.34,2.67,0,.82-.39,1.59-1.08,2.37-.52,.56-1.16,.82-1.94,.82-.6,0-1.08-.65-1.51-1.94-.52-1.81-1.51-3.58-2.89-5.3l.52-.86c2.63,.69,4.48,1.46,5.56,2.24Zm6.89-3.58c-1.42,5.86-2.5,10.38-3.23,13.62-.65,3.23-.95,5.43-.95,6.59,0,.73,0,1.51,.09,2.33,.35,1.72,.56,3.06,.56,4.05,0,.69-.17,1.16-.52,1.42-.34,.39-.91,.6-1.68,.6-1.03,0-1.81-.22-2.33-.6-.34-.26-.52-.73-.52-1.42,0-.52,.13-1.21,.39-2.24,.09-.73,.13-1.34,.13-1.81,0-.95-.17-1.72-.52-2.28-.35-.56-1.47-1.08-3.36-1.55l.17-1.03c1.9,0,3.1-.13,3.71-.39,.56-.3,.99-.95,1.34-1.94l5.9-15.51,.82,.17Zm-3.1-6.85c.95,.78,1.42,1.64,1.42,2.63,0,.82-.35,1.59-1.04,2.28-.47,.52-1.08,.78-1.81,.78-.65,0-1.21-.65-1.64-1.94-.6-1.81-1.64-3.58-3.1-5.3l.34-.69c2.76,.69,4.7,1.46,5.82,2.24Zm17.75,2.97v8.45h3.19c.13-.04,.65-.69,1.55-1.9,1.12-1.42,1.77-2.15,1.98-2.15,.6,0,1.51,.69,2.8,2.03,1.29,1.38,1.94,2.2,1.94,2.5,0,.47-.3,.69-.86,.69h-10.6v8.58h2.37c.6-.73,1.21-1.38,1.81-1.94,.43-.47,.82-.73,1.21-.73,.35,0,1.16,.43,2.46,1.21,1.46,1.03,2.24,1.77,2.24,2.16,0,.43-.3,.82-.86,1.21-.43,.43-.65,.86-.65,1.29v4.91c0,1.38,.04,3.28,.17,5.69,0,.52-.78,.95-2.33,1.25-.69,.09-1.21,.13-1.55,.13-.78,0-1.16-.47-1.16-1.38v-1.68h-11.94v1.85c0,.52-.78,.95-2.24,1.25-.69,.09-1.21,.13-1.46,.13-.95,0-1.38-.47-1.38-1.38,.09-1.55,.17-3.1,.17-4.7v-5.21c0-2.2-.13-4.35-.3-6.42,2.03,.6,4.14,1.38,6.29,2.37h2.28v-8.58h-4.05c-2.46,0-4.18,.09-5.21,.17l-.69-1.68c1.38,.26,3.32,.34,5.9,.34h4.05v-7.8c-2.97,.34-5.77,.6-8.45,.69l-.3-.99c4.61-.86,8.06-1.72,10.34-2.67,2.37-.78,4.83-1.94,7.33-3.58,1.38,1.03,2.46,1.85,3.32,2.46,1.25,.91,1.9,1.55,1.9,1.94,0,.35-.26,.52-.69,.52l-2.2-.17c-2.24,.47-4.35,.86-6.38,1.16Zm3.71,29.13v-9.78h-11.94v9.78h11.94Z"/><path class="cls-1" d="M267.66,92.2v3.88h2.37c.09-.04,.52-.56,1.29-1.59,.95-1.16,1.55-1.77,1.72-1.77,.47,0,1.29,.6,2.41,1.72,1.08,1.21,1.64,1.9,1.64,2.16,0,.43-.26,.65-.69,.65h-8.75v3.23h1.68c.56-.6,1.12-1.16,1.64-1.64,.35-.34,.69-.56,1.04-.56,.3,0,1.03,.34,2.2,1.03,1.34,.86,2.03,1.46,2.03,1.81,0,.39-.26,.78-.69,1.16-.34,.34-.47,.78-.47,1.21v3.71c0,1.21,.04,2.8,.17,4.87,0,.56-.69,.95-2.07,1.21-.6,.09-1.03,.13-1.29,.13-.82,0-1.21-.39-1.21-1.16h-3.02v4.05h3.02c.09-.04,.43-.43,1.03-1.21,.73-.86,1.16-1.34,1.33-1.34,.39,0,1.04,.47,1.9,1.38,.86,.91,1.29,1.47,1.29,1.64,0,.47-.17,.69-.52,.69h-8.06v3.45c2.84-.26,5.56-.56,8.14-.9,.04-.09,.09-.13,.13-.22,1.12-2.03,2.03-4.87,2.63-8.49,.35-2.02,.56-5.9,.65-11.68-1.59,.09-2.71,.17-3.32,.34l-.65-2.02c1.29,.26,2.58,.43,3.96,.47,0-1.25,.04-2.59,.04-4.01,0-1.72-.17-3.88-.47-6.55,1.46,.26,2.97,.52,4.48,.82,1.94,.34,2.93,.73,2.93,1.16,0,.39-.39,.73-1.16,.99-.65,.26-.99,.52-1.03,.86,0,2.59-.04,4.83-.04,6.77h2.24c.43-.6,.78-1.08,1.12-1.42,.65-.73,1.16-1.12,1.55-1.12,.43,0,1.29,.52,2.59,1.51,1.29,1.03,1.98,1.77,1.98,2.2,0,.26-.26,.56-.78,.9-.52,.52-.78,.95-.78,1.29-.13,4.65-.39,9.35-.82,14.09-.43,3.53-.86,5.9-1.34,7.07-.47,1.47-1.42,2.54-2.8,3.28-1.38,.52-2.41,.82-3.1,.82-.34,0-.6-.52-.78-1.46-.26-1.46-1.38-2.71-3.45-3.92l.17-.69c2.24,.47,3.62,.69,4.22,.69,.69,0,1.16-.35,1.46-1.08,.39-.78,.73-3.58,1.08-8.36,.3-4.4,.47-8.58,.47-12.62h-3.06c-.09,4.57-.26,7.71-.52,9.35-.34,3.1-.95,5.69-1.9,7.8-.95,2.07-2.2,4.01-3.75,5.73-1.46,1.64-3.66,3.27-6.59,4.91l-.34-.69c1.72-1.81,3.15-3.66,4.35-5.69-5.34,2.03-10.9,3.49-16.76,4.44-.69,.04-1.03,.17-1.03,.39-.09,.13-.13,.3-.17,.52-.13,.34-.3,.52-.52,.52-.52,0-1.08-.91-1.77-2.67-.17-.52-.52-1.25-.95-2.37,3.19-.13,6.29-.3,9.26-.56v-3.83h-2.5c-2.5,0-4.22,.09-5.21,.17l-.69-1.68c1.34,.26,3.32,.34,5.9,.34h2.5v-4.05h-2.84v.86c0,.56-.69,.95-2.03,1.21-.6,.09-1.08,.13-1.34,.13-.9,0-1.34-.43-1.34-1.33,.09-1.47,.13-2.93,.13-4.4v-4.4c0-2.07-.13-4.05-.3-6.03,1.9,.52,3.88,1.25,5.9,2.2h1.81v-3.23h-3.36c-2.46,0-4.18,.09-5.21,.17l-.69-1.68c1.38,.26,3.32,.34,5.9,.34h3.36v-3.71c-2.41,.09-4.96,.17-7.71,.17l-.34-.86c4.05-.43,7.28-.9,9.7-1.46,2.33-.56,4.48-1.29,6.46-2.24,1.21,.86,2.11,1.46,2.71,1.85,1.21,.86,1.81,1.46,1.81,1.85,0,.35-.3,.52-.82,.52l-1.85-.34c-1.68,.17-3.53,.26-5.56,.34Zm-4.4,13.32v-3.88h-2.84v3.88h2.84Zm0,5.56v-4.4h-2.84v4.4h2.84Zm4.4-5.56h3.02v-3.88h-3.02v3.88Zm0,5.56h3.02v-4.4h-3.02v4.4Z"/></g></svg>