<?xml version="1.0" encoding="UTF-8"?><svg id="_層_1" xmlns="http://www.w3.org/2000/svg" viewBox="0 0 152.92 33.04"><defs><style>.cls-1{fill:#5d6732;}.cls-2{fill:#040000;}</style></defs><path class="cls-2" d="M3.96,17.28c.4-.43,.76-.83,1.12-1.26,.5-.58,.9-.86,1.12-.86,.36,0,1.01,.43,1.94,1.22,1.04,.86,1.58,1.4,1.58,1.62,0,.36-.25,.68-.72,.97-.43,.43-.68,.79-.68,1.12v5.9c1.01,1.15,2.34,1.8,3.92,1.94,1.8,.22,5.25,.32,10.44,.32,3.13,0,6.62-.22,10.51-.72l.14,.72c-.94,.22-1.73,1.15-2.34,2.74-.14,.68-.32,1.04-.61,1.04h-8.89c-2.02,0-4.57-.14-7.7-.4-3.1-.65-5.29-2.09-6.59-4.39-.14,0-.25,.11-.36,.32-.86,1.37-1.94,2.66-3.17,3.92,0,.94-.22,1.4-.58,1.4-.22,0-.43-.29-.68-.79-.65-1.19-1.3-2.59-1.98-4.28,1.76-.36,3.13-.68,4.07-.97v-8.6c-1.73,0-3.06,.11-3.92,.29l-.58-1.69c1.19,.29,2.52,.43,3.96,.43Zm2.77-8.24c.86,.54,1.3,1.19,1.3,1.91s-.29,1.33-.86,1.91c-.4,.43-.9,.65-1.51,.65s-1.12-.47-1.55-1.48c-.58-1.37-1.55-2.74-2.95-4.03l.29-.54c2.52,.5,4.28,1.01,5.29,1.58Zm1.04-6.55c.9,.54,1.37,1.15,1.37,1.87,0,.65-.29,1.22-.79,1.76-.36,.43-.86,.61-1.44,.61-.68,0-1.26-.47-1.73-1.4-.65-1.3-1.76-2.56-3.35-3.78l.29-.58c2.7,.5,4.57,1.01,5.65,1.51Zm10.19-1.19c.97,.29,1.48,.61,1.48,.94,0,.36-.29,.58-.86,.65s-.9,.18-.97,.32c-.65,1.37-1.4,2.56-2.2,3.56,.36,.58,.65,1.08,.9,1.58,.76,1.51,1.3,3.24,1.66,5.18,.29,1.51,.47,2.88,.47,4.18,0,2.66-.25,4.64-.72,5.87-.54,1.37-1.19,2.38-1.98,3.02-.72,.65-1.3,.94-1.66,.94-.29,0-.58-.43-.83-1.37-.43-1.04-1.73-1.94-3.96-2.7l.14-.72c1.48,.22,2.45,.29,2.95,.29,1.08,0,1.76-.32,2.05-1.04,.32-.65,.5-2.05,.5-4.28,0-.58-.04-1.12-.04-1.66-.94,1.15-1.76,2.02-2.52,2.59-.79,.72-1.69,1.33-2.66,1.87l-.43-.14c2.41-3.2,4.1-6.26,5.11-9.21-.11-.61-.22-1.26-.32-1.91-.07-.25-.11-.5-.18-.72-1.15,1.15-2.59,2.34-4.32,3.56l-.43-.43c1.55-1.87,2.74-3.6,3.56-5.18,.07-.22,.18-.4,.25-.58-.79-1.73-1.84-3.1-3.1-4.1l.58-.54c1.22,1.08,2.27,2.09,3.13,3.1,.47-1.22,.86-2.52,1.22-3.96,1.08,.29,2.12,.61,3.17,.9Zm5.26,2.34h2.81c.07-.04,.47-.47,1.12-1.3,.79-1.01,1.26-1.51,1.4-1.51,.43,0,1.08,.5,2.02,1.48,.9,.97,1.37,1.55,1.37,1.76,0,.36-.18,.54-.54,.54h-4.93V13.21c.07-.04,.36-.4,.9-1.12,.68-.86,1.08-1.3,1.19-1.3,.36,0,.97,.43,1.76,1.3s1.19,1.37,1.19,1.51c0,.4-.18,.58-.54,.58h-4.5v10.26h.29c.07-.04,.43-.47,1.08-1.3,.79-1.01,1.3-1.51,1.44-1.51,.43,0,1.08,.5,2.02,1.48,.9,.97,1.37,1.55,1.37,1.76,0,.4-.22,.58-.58,.58h-9.29c-2.05,0-3.49,.07-4.36,.14l-.54-1.44c1.12,.22,2.74,.29,4.9,.29V14.18c-1.48,.04-2.56,.07-3.24,.14l-.54-1.4c.94,.18,2.2,.29,3.78,.29V4.61c-1.84,0-3.13,.07-3.92,.14l-.58-1.4c1.15,.22,2.77,.29,4.93,.29Z"/><path class="cls-2" d="M65.12,1.58c1.22,.83,1.84,1.4,1.84,1.76,0,.29-.25,.54-.76,.79-.47,.29-.72,.54-.79,.76v3.24c0,.43-.58,.72-1.69,.9-.5,.07-.9,.07-1.12,.07-.68,0-1.01-.25-1.01-.83v-.14h-18.39v5.36c0,2.09-.07,3.96-.22,5.69,1.12,.14,2.63,.22,4.57,.22h.83v-5.22c-2.05,0-3.49,.07-4.36,.14l-.54-1.4c1.12,.22,2.74,.29,4.9,.29v-1.26c0-.94-.11-1.94-.29-2.95,1.51,.14,2.99,.32,4.43,.58,.9,.07,1.37,.29,1.37,.68,0,.14-.29,.36-.83,.61-.58,.29-.86,.58-.86,.94v1.4h4.07v-1.12c0-1.01-.11-2.02-.29-3.1,1.55,.14,3.06,.32,4.54,.58,.9,.07,1.37,.29,1.37,.68,0,.18-.29,.4-.79,.65-.61,.29-.9,.65-.9,1.04v1.26h1.01c.07-.04,.43-.47,1.08-1.26,.79-.94,1.3-1.4,1.44-1.4,.4,0,1.04,.47,1.91,1.37,.86,.94,1.33,1.51,1.33,1.69,0,.4-.22,.58-.58,.58h-6.19v5.22h2.12c.07-.04,.47-.5,1.19-1.44,.83-1.08,1.33-1.66,1.48-1.66,.43,0,1.15,.54,2.16,1.58,1.01,1.08,1.51,1.69,1.51,1.91,0,.4-.25,.58-.72,.58h-12.45c.29,.76,.79,1.58,1.48,2.48,.65,.9,1.33,1.66,2.05,2.23,.54-.43,1.08-.9,1.58-1.4,.97-.86,1.76-1.84,2.41-2.88,1.12,.72,2.16,1.37,3.13,1.94,.9,.65,1.37,1.12,1.37,1.4s-.18,.43-.54,.43l-1.98-.14c-1.22,.47-2.92,.94-5.04,1.37,0,.04,.04,.04,.04,.04,1.01,.72,2.23,1.33,3.74,1.8,1.4,.5,3.24,.94,5.47,1.3l-.14,.86c-1.01,.14-1.8,.76-2.3,1.83-.32,.83-.58,1.26-.76,1.26-.36,0-1.22-.29-2.52-.86-1.37-.65-2.7-1.51-4.03-2.66-1.3-1.08-2.34-2.41-3.1-3.92-.68-1.3-1.33-2.99-1.91-5.08h-3.92v7.05c1.87-.22,3.64-.43,5.33-.72l.14,.4c-3.17,2.05-6.55,3.49-10.11,4.43-.4,.04-.58,.14-.58,.36-.04,.14-.07,.29-.11,.5-.07,.32-.14,.5-.29,.5-.5,0-1.08-.86-1.76-2.52-.22-.47-.5-1.19-.94-2.27,1.48-.07,2.92-.18,4.36-.32v-7.42c-1.58,.04-2.7,.07-3.35,.14l-.25-.65c-.07,.76-.18,1.48-.25,2.12-.43,2.2-1.19,4.25-2.23,6.12-.94,1.48-2.16,2.99-3.74,4.5l-.72-.29c1.19-2.48,2.02-4.75,2.45-6.91,.5-2.66,.79-6.62,.79-11.92,0-5.97-.14-10.29-.4-12.96,1.98,.61,3.56,1.22,4.79,1.84h17.13c.43-.54,.83-1.01,1.15-1.44,.29-.36,.61-.54,.97-.54,.43,0,1.15,.4,2.23,1.19Zm-21.92,5.58h18.39V3.35h-18.39v3.82Zm13.07,7.02h-4.07v5.22h4.07v-5.22Z"/><path class="cls-1" d="M89.06,8.86V3.78c0-.68-.11-1.91-.29-3.67,1.98,.29,3.28,.54,3.89,.72,1.51,.29,2.3,.61,2.3,.97s-.32,.65-.97,.86c-.68,.18-1.01,.47-1.01,.83v5.36h.14c.07-.04,.32-.32,.79-.86,.58-.65,.94-.97,1.04-.97,.29,0,.76,.36,1.4,1.01,.65,.68,1.01,1.08,1.01,1.22,0,.4-.14,.58-.43,.58h-3.96v5.65c1.76-.36,3.46-.72,5.08-1.15l.29,.58c-1.8,1.19-3.6,2.23-5.36,3.1v10.94c0,1.37-.47,2.38-1.37,2.95-1.04,.65-2.09,1.01-3.13,1.01-.29,0-.5-.32-.58-.9-.14-1.01-1.26-1.98-3.35-2.92l.14-.68c1.58,.18,2.74,.25,3.53,.25,.54,0,.83-.18,.83-.54v-8.35c-.58,.22-1.12,.43-1.62,.61-.29,.11-.5,.36-.61,.72-.11,.14-.22,.32-.29,.58-.22,.36-.43,.54-.72,.54s-.68-.9-1.12-2.74c-.11-.5-.29-1.33-.58-2.48,1.69-.22,3.35-.47,4.93-.76v-6.41c-2.05,0-3.49,.07-4.36,.14l-.58-1.4c1.15,.22,2.77,.29,4.93,.29Zm12.67-.94v1.91c0,.79,.25,1.22,.79,1.33,1.04,.14,2.66,.22,4.86,.22,1.4,0,2.59-.07,3.56-.25,.68-.11,1.15-.29,1.4-.58,.18-.18,.43-.58,.72-1.22,.29-.79,.65-1.84,1.01-3.17l.86,.14c.04,1.44,.07,2.34,.07,2.7,0,.9,.25,1.51,.76,1.84,.65,.5,1.01,.9,1.01,1.26,0,.68-.47,1.22-1.37,1.66-.72,.36-1.51,.58-2.3,.65-1.44,.25-3.35,.36-5.72,.36-3.67,0-6.08-.11-7.31-.4-1.01-.18-1.66-.58-2.02-1.22-.29-.43-.43-1.19-.43-2.34V4.75c0-1.48-.14-2.92-.4-4.36,1.15,.14,2.52,.32,4.03,.58,1.44,.22,2.16,.47,2.16,.83,0,.43-.36,.79-1.01,1.04-.43,.18-.68,.5-.68,.94v3.17c1.12-.5,2.23-1.04,3.35-1.69,2.23-1.15,4.07-2.38,5.51-3.71,1.15,.72,2.2,1.4,3.2,2.02,.94,.68,1.44,1.19,1.44,1.48,0,.4-.22,.58-.58,.58l-1.98-.29c-2.59,.86-6.26,1.73-10.94,2.59Zm.94,9.65h7.2c.43-.43,.79-.86,1.12-1.22,.5-.58,.9-.9,1.15-.9,.4,0,1.12,.4,2.2,1.12,1.22,1.01,1.87,1.66,1.87,1.98s-.25,.68-.76,1.04c-.43,.43-.65,.86-.65,1.22v3.78l.29,7.16c0,.43-.68,.79-1.98,1.04-.58,.07-1.01,.11-1.26,.11-.65,0-.97-.4-.97-1.15v-1.4h-8.75v1.55c0,.43-.65,.79-1.87,1.04-.58,.07-.97,.11-1.22,.11-.86,0-1.26-.4-1.26-1.15,.18-2.81,.29-5.29,.29-7.45v-1.94c0-1.87-.14-4.1-.43-6.77,1.84,.47,3.53,1.08,5.04,1.84Zm8.21,5.76v-4.79h-8.75v4.79h8.75Zm0,6.05v-5.08h-8.75v5.08h8.75Z"/><path class="cls-1" d="M125.93,5.33h8.42c-.04-1.98-.18-3.74-.43-5.33,1.12,.14,2.56,.36,4.36,.65,1.4,.22,2.12,.47,2.12,.76,0,.4-.4,.72-1.15,1.01-.58,.18-.83,.5-.83,.94v1.98h7.45c.11-.04,.58-.58,1.37-1.58,.97-1.19,1.55-1.8,1.73-1.8,.5,0,1.26,.58,2.34,1.73,1.08,1.15,1.62,1.84,1.62,2.09,0,.36-.25,.54-.72,.54h-13.79v4.1h7.16c.36-.32,.61-.58,.83-.79,.68-.58,1.15-.9,1.44-.9,.36,0,1.15,.43,2.38,1.3,1.12,.86,1.69,1.48,1.69,1.8,0,.25-.29,.58-.79,1.01-.72,.5-1.04,.94-1.04,1.37v15.33c0,1.19-.65,2.12-1.91,2.77-1.01,.5-1.87,.76-2.59,.76-.25,0-.47-.47-.68-1.37-.29-1.08-1.44-2.02-3.38-2.74l.14-.68c1.62,.29,2.92,.4,3.92,.4,.36,0,.58-.36,.58-1.12V11.38h-19.26V31.89c0,.43-.61,.79-1.8,1.04-.54,.07-.94,.11-1.15,.11-.76,0-1.12-.4-1.12-1.15,.07-1.26,.14-2.48,.14-3.78V13.89c0-1.76-.11-3.49-.29-5.18,1.58,.43,3.17,.97,4.82,1.69h6.84V6.3h-9c-1.94,0-3.53,.11-4.79,.29l-.58-1.69c2.16,.29,4.14,.43,5.94,.43Zm15.84,7.99c.94,.5,1.44,.86,1.44,1.15,0,.32-.25,.5-.72,.54-.58,0-.9,.11-.97,.29-.47,.61-.97,1.15-1.51,1.62-.43,.43-1.01,.83-1.73,1.19h2.56c.07,0,.36-.32,.86-.9,.58-.68,.94-1.04,1.08-1.04,.29,0,.79,.36,1.51,1.08,.68,.72,1.04,1.15,1.04,1.3,0,.4-.14,.58-.43,.58h-6.62c0,1.44,0,2.74,.04,3.92h2.38c.07,0,.36-.4,.9-1.12,.65-.83,1.04-1.26,1.19-1.26,.36,0,.97,.43,1.76,1.26,.79,.86,1.19,1.37,1.19,1.55,0,.4-.18,.58-.54,.58h-6.88c.04,2.92,.11,5.11,.25,6.59,0,.32-.36,.58-1.01,.76-.86,.14-1.66,.22-2.38,.22-.54,0-.86-.25-.97-.68,.07-1.76,.11-4.07,.14-6.88h-1.55c-2.09,0-3.53,.04-4.36,.11l-.58-1.4c1.15,.22,2.77,.29,4.93,.29h1.55v-3.92h-.97c-2.09,0-3.53,.07-4.39,.14l-.54-1.4c1.12,.18,2.77,.25,4.93,.25h3.49c.5-.83,.97-1.76,1.4-2.81,.47-1.15,.79-2.27,1.01-3.35,.94,.54,1.76,1.01,2.48,1.37Zm-7.81,.58c.65,.54,.97,1.15,.97,1.84,0,.58-.25,1.08-.72,1.58-.32,.36-.76,.54-1.26,.54-.43,0-.76-.43-1.04-1.33-.43-1.22-1.12-2.45-2.05-3.6l.29-.58c1.8,.5,3.1,1.01,3.82,1.55Z"/></svg>