<?xml version="1.0" encoding="UTF-8"?><svg id="_層_1" xmlns="http://www.w3.org/2000/svg" viewBox="0 0 155.61 36.96"><defs><style>.cls-1{fill:#5e6832;}.cls-2{fill:#fff;}</style></defs><path class="cls-1" d="M145.12,29.32c-1.87,5.3-5.23,7.64-9.69,7.64H8.07c-4.46,0-8.07-3.42-8.07-7.64L10.49,7.64C12.44,1.34,16.13,0,20.58,0h126.96c4.46,0,8.07,3.42,8.07,7.64l-10.49,21.68Z"/><g><path class="cls-2" d="M50.84,27.61v-11.15c0-.97,.05-2.13,.17-3.47h-.07c-.24,.96-.42,1.59-.55,1.88l-5.55,12.73h-1.85l-5.57-12.63c-.14-.32-.33-.98-.55-1.98h-.07c.08,1.04,.12,2.3,.12,3.77v10.85h-2.63V10.34h3.95l4.94,11.4c.38,.89,.64,1.63,.77,2.22h.08c.15-.47,.42-1.22,.82-2.25l5.02-11.37h3.79V27.61h-2.8Z"/><path class="cls-2" d="M57.03,19.19c0-2.73,.81-4.93,2.42-6.62,1.61-1.68,3.79-2.52,6.53-2.52,2.57,0,4.63,.82,6.19,2.45s2.33,3.73,2.33,6.29c0,2.71-.79,4.91-2.38,6.59s-3.73,2.52-6.43,2.52-4.66-.81-6.26-2.43-2.4-3.71-2.4-6.28Zm2.97-.19c0,1.9,.51,3.47,1.54,4.7,1.03,1.23,2.42,1.84,4.17,1.84,1.84,0,3.27-.58,4.29-1.76,1.02-1.17,1.53-2.75,1.53-4.74s-.49-3.65-1.48-4.84c-.99-1.19-2.39-1.78-4.21-1.78s-3.19,.62-4.25,1.85c-1.06,1.23-1.59,2.81-1.59,4.73Z"/><path class="cls-2" d="M91.75,27.61h-3.31l-2.97-4.7c-.58-.92-1.11-1.55-1.58-1.88-.48-.33-1.02-.5-1.63-.5h-1.53v7.09h-2.83V10.34h5.81c1.89,0,3.36,.4,4.39,1.21s1.55,1.95,1.55,3.43c0,1.16-.36,2.15-1.07,2.98s-1.71,1.4-2.99,1.73v.04c.82,.27,1.73,1.17,2.75,2.72l3.43,5.16Zm-11.03-15.06v5.75h2.51c1.04,0,1.88-.29,2.5-.86,.62-.57,.94-1.3,.94-2.19,0-1.81-1.13-2.71-3.39-2.71h-2.56Z"/><path class="cls-2" d="M104.09,27.61h-10.11V10.34h9.7v2.3h-6.87v5.08h6.37v2.29h-6.37v5.31h7.28v2.3Z"/></g><path class="cls-2" d="M112.41,10.57l16.7,7.96-16.74,7.87,.04-15.83Z"/></svg>