<?xml version="1.0" encoding="UTF-8"?><svg id="a" xmlns="http://www.w3.org/2000/svg" xmlns:xlink="http://www.w3.org/1999/xlink" viewBox="0 0 50.04 46.49"><defs><style>.c{fill:#c6b080;}.d{fill:#633421;}.e{clip-path:url(#b);}.f{fill:none;}.g{fill:#ab7f39;}.h{opacity:.25;}</style><clipPath id="b"><rect class="f" x="5.03" y="3.57" width="40.77" height="39.35"/></clipPath></defs><path class="d" d="M3.7,34.74S-7.9,18.27,9.96,5.2c17.86-13.07,44.76,.06,39.38,21.79-5.38,21.73-34.68,26.68-45.64,7.75"/><g class="h"><g class="e"><path class="c" d="M27.18,17.52c.02,.44,.04,.88,.06,1.16-1,.21-1.94,.37-2.85,.61-.19,.05-.44,.42-.41,.6,.03,.24,.27,.56,.5,.64,.32,.12,.76,.17,1.06,.05,.68-.27,1.21-.12,1.71,.35,.7,.65,.71,.64,1.68,.24-.12,.31-.25,.62-.35,.85-.81-.36-1.49-.75-2.21-.95-.32-.08-.74,.23-1.12,.36,.18,.39,.36,.79,.56,1.18,.09,.18,.23,.33,.34,.5-.06,.03-.12,.07-.17,.1-.41-.2-.82-.41-1.26-.63-.13-.75-.14-.74-.91-1.21-.12-.07-.25-.27-.23-.38,.06-.39,.36-.84,.24-1.12-.15-.36-.63-.59-.95-.86,.32-.06,.63-.11,.95-.17-.13-.43-.23-.87-.39-1.28-.18-.47-.41-.93-.66-1.48,1.36,.13,1.05,1.21,1.43,1.82,.14,.23,.37,.61,.52,.6,.61-.07,1.35,.33,1.81-.41,.14-.23,.31-.45,.47-.67l.18,.09Z"/><path class="c" d="M18.64,21.61c.47-.47,.94-.93,1.41-1.4,.86,.08,1.29,.57,1.28,1.45-.03,1.13,.29,2.03,1.49,2.4,.08,.02,.12,.16,.24,.31-.38-.02-.68-.06-.97-.06-.29,0-.58,.06-.87,.06-.26,0-.53-.02-.79-.04,0-.08,0-.16,0-.24,.27-.18,.54-.37,.82-.56-.88-.68-1.46-.49-1.76,.54-.32-.64,.27-2.43,.95-2.77-.1-.65-.59-.65-.99-.45-.31,.15-.49,.54-.74,.82-.02-.02-.04-.04-.06-.06"/><path class="c" d="M31.63,24.84c-.04-.18-.09-.4-.16-.67,.48-.34,1.04-.63,1.05-1.39,0-.2,.41-.39,.71-.66-.14,.25-.32,.47-.28,.52,.3,.41-.01,.65-.18,.96-.08,.14-.15,.43-.08,.49,.13,.11,.36,.1,.58,.14-1.39-.19-1.42,.79-1.37,1.83-.11-.02-.22-.04-.33-.06-.04-.31-.08-.63-.12-1.03-.25,.11-.52,.19-.75,.33-.71,.44-.84,.37-.92-.59,.6,.04,1.18,.09,1.84,.13"/><path class="c" d="M13.02,31.3c-.15,.6-.36,.86-.89,.85-.94-.02-2.25,1.07-2.4,1.98-.04,.24,.06,.51,.09,.76,.03,.22,.06,.45,.09,.67h-.49c-.15-.64-.27-1.1-.41-1.65,.47-.42,1.03-.91,1.57-1.41,.06-.06,.07-.19,.06-.29-.06-.46,.12-.53,.57-.54,.56-.01,1.11-.22,1.8-.37"/><path class="c" d="M7.12,18.38h-.74c-.03-.28-.04-.51-.07-.73,.04-.07,.07-.14,.1-.22-.08,0-.17,.02-.25,.02-.32-.27-.63-.54-1.13-.96,.49-.21,.77-.34,1.06-.46,.2,.47,.39,.94,.63,1.5,.02,0,.22-.01,.43,0,.27,.02,.73,0,.76,.1,.1,.38,.11,.8,.06,1.19-.02,.13-.29,.22-.45,.33-.07-.18-.13-.36-.2-.54,.02-.07,.05-.13,.07-.2-.09-.01-.18-.03-.27-.04"/><path class="c" d="M31.26,12.55c-.15-.36-.23-.56-.35-.86-.38,.1-.77,.27-1.16,.29-.28,.01-.57-.25-.87-.26-.3,0-.61,.14-.94,.22-.04-.24-.09-.62-.16-1.03,.27-.25,1.13,.07,1.14-.89,.12,.44,.27,.88,.36,1.33,.12,.65,.4,.67,.94,.38,.37-.2,.85-.21,1.38-.33-.12,.41-.21,.69-.34,1.14"/><path class="c" d="M40.6,14.15c-.04,.29,.02,.67-.14,.86-.48,.57-.33,.93,.24,1.33-.43-.02-.87-.04-1.35-.07,.25-.47,.46-.84,.65-1.21-.56-.89-1.43,.01-2.1-.36,.42-.56,.8-1,1.56-.48,.21,.14,.64-.03,1.13-.07"/><path class="c" d="M9.34,21.29c-.23-.25-.45-.49-.68-.74,0-.01,.01-.02,.02-.03,.6,.52,1.2,1.04,1.8,1.57v.31c-1.02-.49-1.33-.11-1.26,.76,0,.04-.11,.1-.06,.05-.57-.48-1.11-.93-1.64-1.37,.03,0,.2-.03,.34,0,.28,.07,.54,.23,.82,.23,.11,0,.23-.29,.35-.45,.14,0,.28,0,.42,0-.04-.11-.08-.22-.11-.33"/><path class="c" d="M35.34,16.63c-.2,.45-.4,.91-.59,1.33-.5-.15-.92-.27-1.49-.44,.37-.23,.73-.42,1.06-.66,.1-.08,.11-.28,.18-.41,.21-.38,.44-.76,.72-1.24,.32,.5,.52,.81,.78,1.21h-.81l.16,.21Zm-.22,.14c-.06-.03-.13-.07-.19-.1l-.2,.38c.07,.03,.19,.09,.19,.08,.08-.11,.13-.24,.2-.36"/><path class="c" d="M31.35,4.88c-.49,.7-.98,1.41-1.5,2.17-.13,.02-.44,.12-.76,.12-.32,0-.64-.09-.96-.14,.08-.28,.16-.56,.23-.84,.04-.12,.07-.25,.15-.55,.15,.75,.51,1.02,.85,.88,.66-.75,1.15-1.32,1.64-1.88,.11,.08,.23,.16,.34,.23"/><path class="c" d="M29.82,19.41c.38-.11,.69-.19,1.04-.29v1.07c.43-.06,.87-.12,1.38-.19-.08,.25-.13,.44-.18,.6-1.02-.34-.71,.56-.9,1.11-.34-.14-.68-.27-1.25-.51,.48-.1,.73-.15,.97-.2v-.85c-.88,.25-1,.15-1.06-.74"/><path class="c" d="M18.19,15.44c.35-.84,.6-1.52,.93-2.16,.08-.16,.5-.25,.7-.18,.14,.04,.21,.41,.23,.64,.03,.24-.04,.5-.07,.75-.01,.12-.03,.32-.1,.35-.51,.2-1.04,.37-1.69,.6"/><path class="c" d="M40.66,21.42c.46-.04,.89-.09,1.32-.13,0-.04-.01-.08-.02-.11,.02-.01,.04-.02,.07-.03-.34,.4-.67,.79-1.15,1.37,.59,.2,1.11,.37,1.71,.57-.5,.31-1.01,.63-1.68,1.05-.08-.94-.16-1.76-.24-2.71"/><path class="c" d="M37.22,28.32c-.16-.08-.32-.16-.48-.24q-.32,.64-1.88-.01c.02-.14,.05-.29,.08-.43,.03-.15,.06-.3,.11-.55,.29,.13,.56,.28,.83,.37,.27,.1,.57,.13,.84,.24,.23,.09,.44,.26,.65,.39-.05,.08-.1,.15-.14,.23"/><path class="c" d="M17.65,17.23c.28,.17,.51,.3,.73,.43-.03,.07-.05,.13-.08,.2h-.72l-.07,.23c.39,.15,.78,.31,1.23,.48-.32,.18-.69,.37-1.06,.58-.31-.77-.62-1.47-.84-2.18-.05-.17,.16-.43,.25-.65,.21,.15,.45,.28,.61,.47,.07,.08-.02,.3-.03,.44"/><path class="c" d="M28.01,17.36c-.12-.21-.29-.49-.47-.79,.79-.17,.73-1.27,.08-2.38,.24,.33,.47,.67,.7,1.01,.03,.04,0,.11,.02,.15,.42,.69,.95,1.38-.34,2"/><path class="c" d="M23.59,27.94c-.17,.07-.4,.1-.51,.23-.53,.59-.68,.58-.96-.19-.18,.15-.36,.29-.57,.47-.37-.32-.87-.57-.39-1.27,.31,.38,.59,.92,1.04,.19,.03-.05,.51,.18,.77,.29,.21,.09,.41,.2,.62,.3v-.02Z"/><path class="c" d="M11.51,30.49c.07-.33,.85-.57,1.4-.3q.83,.41,1.36-.33c.35,.15,.71,.31,1.06,.47-.65,.23-1.18,.46-1.74,.58-.28,.06-.61-.06-.91-.13-.37-.08-.73-.18-1.17-.29"/><path class="c" d="M24.25,14.14c-.04-.66,.87-1.1,2.17-1.09-.25,.41-.4,.95-.74,1.11-.38,.18-.92,0-1.43-.02"/><path class="c" d="M13.19,9.49v-1.75c.43,.29,.75,.45,1,.68,.12,.11,.21,.44,.14,.51-.17,.19-.44,.3-.68,.42-.17,.08-.36,.1-.47,.13"/><path class="c" d="M17.87,23.53c-.08,.91-.94,.59-1.35,1.02,.11,.18,.25,.39,.38,.6-.42,1.07-.46,1.08-1.15,.52,.8-.33,1.14-.9,.89-1.76,.41-.13,.77-.24,1.22-.39"/><path class="c" d="M13.86,36.73c.57,.17,1.51,.45,2.63,.79-.41,.48-.64,.75-.75,.88-.75-.67-1.45-1.29-1.88-1.67"/><path class="c" d="M36.87,8.69c-.29-.17-.51-.3-.94-.55,.43-.14,.7-.23,.98-.32,.05,.25,.17,.51,.15,.75-.04,.46-.13,.92-.24,1.37-.04,.14-.21,.28-.35,.36-.05,.03-.28-.09-.29-.16-.03-.15,0-.34,.07-.48,.17-.32,.39-.61,.62-.97"/><path class="c" d="M37.9,11.86c-.22-.11-.51-.24-.96-.45,.32-.35,.69-.78,1.09-1.18,.09-.09,.26-.08,.4-.11,0,.16,.06,.34,0,.48-.16,.43-.36,.84-.54,1.27"/><path class="c" d="M15.66,13.47c-.06-.35-.11-.65-.17-1-.18,.07-.33,.13-.48,.2-.02-.07-.04-.14-.07-.2,.25-.06,.5-.12,.75-.17,.29-.05,.58-.08,.88-.13,.23,1,.13,1.16-.9,1.3"/><path class="c" d="M11.86,27.04s-.04-.29,.03-.33c.34-.15,.71-.28,1.08-.33,.19-.03,.4,.1,.59,.19,.16,.08,.29,.19,.44,.29-.17,.14-.35,.4-.5,.38-.32-.04-.62-.26-.95-.33-.21-.04-.45,.07-.68,.12"/><path class="c" d="M35.03,25.41c.76,.02,.31-1.23,1.19-.94,.16,.56,.3,1.08,.45,1.62-.55-.22-1.03-.42-1.65-.67"/><path class="c" d="M31.26,15.63c.23,.76,.36,1.42-.15,2.04,.12-.66-1.3-1.34,.15-2.04"/><path class="c" d="M33.66,27.39c-.33,.83-.66,1.69-1,2.55-.55-.94-.09-2.06,1-2.55"/><path class="c" d="M29.94,29.25c-.43,.61-1.58,.91-2.18,.68,.12-.22,.23-.44,.36-.68h1.81Z"/><path class="c" d="M14.74,40.81c.03,.51,.06,1.08,.1,1.8-.59-.29-1.09-.53-1.58-.77,.55-.38,.99-.69,1.47-1.03"/><path class="c" d="M43.52,32.97c.78,.1,1.56,.19,2.28,.28-.21,.47-.84,.7-1.9,.51-.03-.35-.06-.69-.09-1.04-.09,.08-.19,.16-.28,.25"/><path class="c" d="M14.36,21.78c.38,.02,.65,.03,.91,.04-.01,.06-.02,.12-.03,.17-.24-.07-.47-.14-.7-.21-.16,.19-.33,.38-.53,.61-.54-.72-.24-1.18,.35-1.63v1.01Z"/><path class="c" d="M17.71,25.77c.08-.26,.13-.42,.2-.65,.5,.28,.95,.53,1.5,.84-.43,.21-.72,.35-1.1,.53,.41-.73-.05-.73-.61-.73"/><path class="c" d="M34.88,13.75c.34-.69,.67-1.37,1-2.05,.5,.99,.18,1.64-1.02,2.04v.02Z"/><path class="c" d="M25.26,34.5c.11-.38,.1-.88,.35-1.11,.21-.2,.71-.1,.93-.29-.32,.51-.65,1.02-.97,1.53-.1-.05-.2-.09-.3-.14"/><path class="c" d="M35.85,19.01c-.05-.36-.1-.71-.15-1.07,.43,0,.85-.01,1.28-.02-.26,.39-.51,.77-.77,1.16-.12-.03-.23-.05-.35-.07"/><path class="c" d="M9.58,30.83c.33-.56,.56-.93,.78-1.31,.05,.04,.11,.07,.16,.11-.03,.26-.06,.53-.07,.79-.01,.26,0,.51,0,.77-.27-.11-.53-.22-.87-.36"/><path class="c" d="M19.76,5.18c-.43,.06-.87,.2-1.29,.17-.37-.02-.63-.24-.28-.66,.05-.06,0-.21,0-.31h-.01c.26,.09,.6-.05,.71,.43,.04,.19,.58,.26,.89,.38h0Z"/><path class="c" d="M20.12,29.53c-.08-.46-.14-.79-.21-1.2,.93-.04,.59,1.01,1.16,1.22l-.1,.23c-.31-.1-.63-.19-.85-.26"/><path class="c" d="M7.02,20.13c-.47-.24-.93-.48-1.4-.71-.04,.07-.08,.13-.13,.19-.01-.04-.04-.11-.03-.12,.38-.23,.76-.45,1.14-.67,.09,.41,.18,.82,.28,1.23,0,.03,.09,.05,.13,.07h.01Z"/><path class="c" d="M11.54,24.08c.16,.78,0,1.11-.71,1.25-.18,.03-.38-.09-.57-.14,.11-.18,.19-.4,.35-.53,.28-.22,.6-.38,.93-.58"/><path class="c" d="M22.52,31.43c.36,.12,.64,.27,.93,.31,.86,.13,.87,.13,.41,1.16-.16-.28-.27-.49-.41-.74q-.8-.1-.94-.73"/><path class="c" d="M6.32,29.48c.23-.2,.43-.41,.67-.56,.14-.09,.35-.09,.52-.13,.03,.23,.18,.55,.08,.66-.38,.42-.84,.63-1.28,.04"/><path class="c" d="M16.33,28.79c-.13-.31-.25-.62-.39-.93-.15-.32-.32-.62-.53-1.02,.76,.38,.8,.45,.93,1.95"/><path class="c" d="M14.74,6.05c-.39,.53-.67,.91-1.11,1.51-.08-.55-.26-1.05-.14-1.13,.29-.21,.72-.24,1.25-.38"/><path class="c" d="M21.93,16.6c-.36-.14-.73-.28-1.2-.47,.31-.33,.48-.51,.66-.72,.21,.31,.43,.63,.64,.95-.03,.08-.06,.15-.1,.23"/><path class="c" d="M15.71,14.27c-.26,.29-.44,.48-.61,.67-.19-.22-.44-.42-.53-.67-.04-.1,.29-.48,.42-.47,.23,.02,.43,.26,.73,.46"/><path class="c" d="M18.49,36.64c.24,.43,.5,.85,.7,1.3,.03,.07-.23,.26-.41,.45-.21-.61-.38-1.11-.55-1.6,.09-.05,.18-.1,.26-.15"/><path class="c" d="M11.99,36.98c-.36,.41-.71,.82-1.05,1.21-.37-.61-.42-1.05-.07-1.11,.41-.07,.85,.07,1.27,.13-.05-.07-.1-.15-.15-.22"/><path class="c" d="M24.62,10.56c-.33,.22-.56,.49-.71,.45-.22-.05-.39-.32-.58-.5,.19-.18,.37-.48,.56-.49,.19,0,.4,.28,.73,.54"/><path class="c" d="M28.34,8.41c.59-.3,.95-.48,1.53-.77-.14,.49-.24,.83-.34,1.18-.33-.12-.67-.23-1.2-.41"/><path class="c" d="M23.2,29.34c.08,.49,.17,.98,.23,1.47,0,.04-.28,.16-.3,.14-.18-.2-.43-.43-.45-.66-.02-.3,.16-.61,.25-.92,.09,0,.17-.02,.26-.03"/><path class="c" d="M19.93,12.61c.2-.31,.32-.5,.45-.7,.7,.03,.64,.42,.44,.99-.29-.1-.57-.19-.88-.29"/><path class="c" d="M13.94,15.12c-.22,.39-.41,.81-.69,1.15-.1,.12-.45,.02-.69,.02-.03-.07-.05-.15-.08-.23,.42-.35,.85-.7,1.27-1.05,.06,.04,.13,.07,.19,.11"/><path class="c" d="M26.04,26.53c.48-.1,.77-.16,1.11-.23-.15,.48-.28,.91-.48,1.58-.24-.53-.42-.9-.63-1.36"/><path class="c" d="M34.86,13.73c-.01,.07-.03,.14-.04,.22-.05,.27-.09,.53-.14,.8-.14-.04-.34-.04-.4-.13-.16-.25-.25-.54-.4-.87,.46,0,.72,0,.99,0l-.02-.02Z"/><path class="c" d="M38.22,22.79c.37,.25,.59,.41,.74,.51-.26,.15-.63,.36-1,.56-.07-.05-.14-.1-.22-.15,.16-.31,.32-.62,.48-.92"/><path class="c" d="M24.49,40.51c-.06,.53-.1,1.07-.19,1.6-.01,.06-.33,.16-.4,.11-.14-.1-.34-.35-.3-.46,.17-.44,.41-.85,.63-1.27,.09,0,.17,.01,.26,.02"/><path class="c" d="M19.24,17.28c.54,.13,.92,.23,1.31,.33-.01,.11-.02,.21-.03,.32-.36,.07-.71,.14-1.13,.22-.04-.25-.08-.44-.15-.86"/><path class="c" d="M23.59,27.95c.18-.93-.22-1.62-.95-2.15,.61-.37,.75-.29,.83,.36,.03,.32,.24,.61,.27,.93,.02,.27-.1,.56-.15,.84v.02"/><path class="c" d="M14.42,17.07c-.06-.44-.09-.69-.15-1.13,.38,.15,.69,.24,.96,.39,.05,.03,.03,.35-.05,.4-.23,.15-.5,.23-.77,.34"/><path class="c" d="M40.52,25.77c-.49,.39-.87,.7-1.26,1.01-.23-.76,.09-1.04,1.26-1.01"/><path class="c" d="M11.12,16.21c.46-.31,.92-.59,1.28,.24-.11,.11-.25,.27-.4,.43-.35-.27-.61-.47-.88-.68"/><path class="c" d="M18.32,27.58c-.19,.4-.38,.81-.58,1.24q-.33-.27,.38-1.33l.2,.08Z"/><path class="c" d="M8.03,12.67v-.97c.38,.07,.74,.14,1.09,.21,.02,.06,.04,.13,.06,.19-.35,.17-.71,.34-1.16,.56"/><path class="c" d="M25.23,28.47c-.13-.29-.28-.58-.37-.89-.03-.1,.07-.29,.16-.37,.06-.04,.32,.03,.33,.08,.06,.38,.08,.76,.11,1.14-.08,.01-.15,.03-.23,.04"/><path class="c" d="M21.68,33.93c.21-.3,.42-.6,.72-1.02,.14,.35,.38,.71,.3,.8-.19,.22-.53,.31-.8,.45-.07-.08-.14-.15-.21-.23"/><path class="c" d="M7.01,20.13c.36-.06,.72-.12,1.05-.17v.96c-.4-.3-.71-.55-1.03-.79h-.01"/><path class="c" d="M22.63,14.02c-.24,.23-.47,.45-.71,.68-.09-.17-.3-.44-.26-.49,.19-.22,.45-.37,.69-.55,.1,.12,.19,.24,.29,.36"/><path class="c" d="M34.31,33.63c-.42-.27-.67-.44-1.05-.69,.19-.15,.37-.33,.58-.41,.13-.05,.45,.04,.46,.1,.05,.29,.02,.6,.02,1"/><path class="c" d="M18.18,4.37c-.43-.3-.83-.79-1.28-.3,.12-.1,.37-.31,.6-.51,.19,.24,.43,.53,.67,.82h.01Z"/><path class="c" d="M11.98,34.88c.43-.34,.76-.61,1.12-.9,.14,.62-.16,.87-1.12,.9"/><path class="c" d="M16.74,40.05c-.26,.23-.5,.45-.76,.69-.2-.43-.36-.76-.52-1.12,.44,.15,.83,.28,1.28,.43"/><path class="c" d="M21.05,40.71c.62-.18,1.05-.04,1.33,.65-.63,.05-1.19,.18-1.33-.65"/><path class="c" d="M21.41,35.6c.09,.08,.16,.12,.21,.18,.09,.12,.17,.26,.34,.54-.36,.12-.65,.21-.94,.31-.04-.06-.07-.12-.11-.19,.16-.27,.32-.54,.5-.84"/><path class="c" d="M14.53,11.23c-.03-.14-.11-.28-.09-.41,.03-.25,.11-.49,.18-.73,0,0,.26,.03,.26,.06,.02,.29,.02,.59,0,.88,0,.1-.09,.19-.13,.28l-.22-.08Z"/><path class="c" d="M30.11,28.81c.4-.16,.81-.33,1.21-.49,.04,.11,.08,.22,.12,.33l-1.23,.44c-.03-.09-.07-.18-.1-.28"/><path class="c" d="M38.39,39.65c.05-.27,.09-.54,.14-.81,.15,.04,.42,.09,.42,.13,0,.26-.07,.52-.11,.78-.15-.03-.3-.07-.45-.1"/><path class="c" d="M13.29,27.94c.67,.84-.43,.81-.63,1.16,.2-.36,.39-.72,.63-1.16"/><path class="c" d="M32.37,6.81c-.29,.09-.57,.18-.89,.28v-.87c.35,.12,.65,.23,.95,.33-.02,.09-.04,.17-.06,.26"/><path class="c" d="M35.26,30.69c-.15,.41-.3,.81-.45,1.22-.1-.03-.2-.06-.3-.1,.14-.41,.28-.82,.41-1.23,.12,.04,.23,.07,.34,.1"/><path class="c" d="M41,27.83l-.87,.65c-.06-.08-.12-.15-.18-.23,.29-.22,.58-.43,.87-.65,.06,.08,.11,.15,.17,.23"/><path class="c" d="M9.15,31.16c-.31,.04-.61,.08-1.17,.16,.24-.41,.37-.64,.5-.86,.25,.16,.5,.31,.75,.47-.02,.08-.05,.16-.07,.23"/><path class="c" d="M19.77,5.19c.06-.09,.11-.18,.17-.27-.01,0-.02-.01-.03-.02-.05,.09-.1,.19-.15,.28h0Z"/><polygon class="c" points="14.16 40.33 14.2 40.3 14.21 40.34 14.16 40.33"/><path class="c" d="M14.87,42.77s.07,.05,.08,.08c0,.02,0,.05,0,.07-.04,0-.06,0-.1-.01,0-.04,.01-.09,.02-.14"/></g></g><path class="c" d="M7.87,12.15s6.39,3.83,10.61,4.22c0,0-4.93,4.11-6.64,9,0,0,4.72-.61,10.45-4.64,0,0,3.53,7.68,6.28,8.99,0,0,2.85-6.75-.57-10.84,0,0,5.78,4.33,11.13,2.46,0,0-2.55-3.6-8.4-5.61,0,0,3.46-2.67,5.61-8.31,0,0-4.91,.73-10.32,4.89,0,0-.14-5.61-3.13-8.73,0,0-3.35,3.67-2.84,9.4,0,0-7.7-2.19-12.17-.82"/><path class="g" d="M37.51,19.88c-2.85-1.72-5.82-3.46-9.14-4.07-.87-.16-1.75-.24-2.63-.23,1.93-1.08,3.88-2.11,5.77-3.25,1.81-1.09,3.55-2.3,5.13-3.71,.48-.43-.23-1.14-.71-.71-2.85,2.57-6.27,4.35-9.61,6.19-1.06,.58-2.11,1.18-3.14,1.81-.05,0-.1,.02-.15,.01-.22,0-.21-.03-.22-.23-.04-.45-.02-.93-.02-1.38,0-.92,0-1.84,.04-2.77,.07-2.04,.23-4.08,.48-6.11,.08-.64-.93-.63-1,0-.23,1.9-.39,3.8-.47,5.71-.04,.96-.06,1.91-.06,2.87,0,.43,0,.86,.01,1.29-3.82-2.42-8.39-3.58-12.91-3.25-.64,.05-.65,1.05,0,1,4.62-.34,9.24,.92,13.05,3.54,0,.02,.02,.04,.03,.06-1.84,1.17-3.62,2.42-5.32,3.8-1.7,1.38-3.32,2.86-4.86,4.42-.45,.46,.26,1.17,.71,.71,2.75-2.8,5.78-5.32,9.05-7.5,.28-.19,.56-.37,.85-.55,1.87,3.83,3.66,7.69,5.36,11.59,.26,.59,1.12,.08,.87-.51-1.71-3.91-3.5-7.78-5.37-11.62,.09-.06,.19-.11,.28-.17,.06-.01,.12-.03,.18-.04,.88-.2,1.78-.26,2.68-.23,1.8,.07,3.56,.57,5.21,1.26,1.88,.79,3.64,1.85,5.38,2.9,.55,.34,1.06-.53,.51-.87"/></svg>