<?xml version="1.0" encoding="UTF-8"?><svg id="_層_1" xmlns="http://www.w3.org/2000/svg" viewBox="0 0 151.58 20.35"><defs><style>.cls-1{fill:#7c7047;}</style></defs><path class="cls-1" d="M2.73,1.28h2.6c.31-.33,.62-.62,.92-.86,.22-.22,.42-.33,.62-.33,.18,0,.59,.22,1.25,.62,.75,.53,1.14,.9,1.14,1.1s-.18,.4-.53,.59c-.29,.18-.42,.37-.42,.59v.44c0,.68,.02,1.61,.09,2.75,0,.29-.37,.48-1.08,.62-.33,.04-.57,.07-.73,.07-.37,0-.57-.2-.59-.59H2.4v13.49c0,.24-.35,.42-1.01,.55-.31,.02-.51,.04-.62,.04-.53,0-.77-.2-.77-.59,.09-1.54,.15-2.86,.15-4.03V4.03C.15,3.01,.09,1.78,0,.33c.97,.24,1.89,.55,2.73,.95Zm3.28,2.16V1.89H2.4v1.54h3.61Zm0,2.22v-1.63H2.4v1.63h3.61Zm2.38,3.04c.48,.18,.73,.37,.73,.59,0,.09-.13,.13-.38,.15-.26,.02-.4,.04-.42,.09-.18,.13-.33,.24-.51,.35,.48,.24,.84,.46,1.06,.64,.26,.26,.42,.46,.46,.64,.35,0,.68-.02,1.01-.02,.18-.13,.35-.29,.51-.42-.29-.07-.53-.31-.75-.7-.31-.7-.88-1.36-1.69-2.02l.18-.26c.66,.13,1.23,.29,1.72,.42,.22-.42,.42-.86,.59-1.3-.2,.02-.33,.02-.42,.02-.46,0-.68-.22-.68-.68,.04-.75,.09-1.5,.09-2.24v-.68c0-1.06-.07-2.09-.18-3.1,.97,.29,1.96,.66,2.97,1.12h2.88c.2-.22,.35-.4,.48-.57,.42-.4,.7-.62,.88-.62,.22,0,.68,.26,1.41,.75,.66,.51,.99,.86,.99,1.06,0,.15-.18,.35-.48,.57-.42,.29-.62,.55-.62,.79v15.14c0,.66-.4,1.19-1.14,1.54-.62,.26-1.12,.42-1.52,.42-.15,0-.29-.26-.4-.75-.18-.62-.79-1.14-1.85-1.56l.09-.44c.88,.18,1.58,.26,2.16,.26,.22,0,.33-.2,.33-.59v-4.93c-.26,.26-.55,.37-.86,.37-.22,0-.35-.04-.44-.15-.11-.04-.2-.33-.29-.86-.02-.09-.04-.18-.04-.26-1.1,.55-2.27,.97-3.46,1.23-.18,.02-.24,.07-.24,.13-.02,.04-.04,.09-.04,.13,.26,.04,.53,.07,.81,.11,.68,.09,1.03,.2,1.03,.35,0,.22-.18,.37-.51,.48-.24,.09-.35,.24-.35,.46v1.12h1.45v-1.03c0-.55-.07-1.03-.15-1.45,.48,.07,1.1,.15,1.83,.24,.66,.09,.99,.2,.99,.35,0,.2-.18,.35-.51,.44-.24,.09-.35,.22-.35,.42v2.16c0,.22-.29,.37-.81,.46-.26,.04-.46,.04-.55,.04-.31,0-.44-.11-.44-.35v-.68h-1.45v2.84c0,.2-.29,.35-.84,.46-.26,.02-.44,.04-.55,.04-.35,0-.51-.11-.51-.33v-4.73c0-.59-.07-1.1-.18-1.54,.13,.02,.29,.04,.46,.04-.11-.18-.22-.4-.33-.7-.07-.13-.15-.35-.24-.62-.02,.31-.11,.57-.24,.75-.24,.24-.51,.35-.77,.35-.15,0-.26-.04-.33-.13-.09-.04-.15-.33-.2-.81-.02-.13-.04-.24-.04-.35-1.17,.73-2.35,1.25-3.59,1.56-.09,.02-.13,.04-.15,.07,.4,.04,.84,.11,1.34,.18,.66,.09,1.01,.2,1.01,.35,0,.2-.18,.35-.53,.44-.22,.09-.33,.22-.33,.42v1.12h1.17c0-.18,.02-.35,.02-.53,0-.64-.07-1.47-.18-2.49,.57,.09,1.14,.2,1.72,.31,.75,.15,1.12,.31,1.12,.46,0,.13-.15,.26-.44,.35-.26,.09-.4,.2-.42,.33v1.03c0,1.25-.18,2.11-.48,2.57-.31,.53-.84,.97-1.58,1.34-.73,.33-1.69,.59-2.9,.81l-.18-.26c.81-.31,1.5-.64,2.05-1.01,.51-.35,.88-.9,1.1-1.65,.07-.18,.11-.42,.13-.68h-1.12v.44c0,.22-.29,.37-.84,.46-.26,.04-.46,.04-.55,.04-.29,0-.42-.11-.42-.35v-2.31c0-.33-.02-.64-.07-.9-.22-.15-.42-.51-.64-1.08-.09-.2-.24-.55-.42-1.03,.62-.02,1.23-.07,1.8-.11,1.08-.95,1.92-1.96,2.49-3.06,.53,.18,1.03,.35,1.52,.53Zm-1.83-1.58c.48,.2,.75,.4,.75,.62,0,.09-.13,.15-.37,.18-.26,.02-.4,.04-.42,.09-.51,.22-1.08,.4-1.74,.57,.04,.04,.09,.07,.13,.07,.33,.18,.51,.4,.51,.66,0,.33-.15,.64-.44,.95-.2,.22-.46,.33-.77,.33-.2,0-.37-.18-.51-.57-.18-.53-.51-1.06-.95-1.58l.15-.33c.44,.09,.84,.18,1.14,.24,.4-.57,.7-1.17,.92-1.78,.53,.2,1.06,.4,1.58,.57Zm.84,3.01c-.57,.35-1.17,.68-1.8,.99,.71-.04,1.39-.13,2.05-.22-.07-.26-.15-.53-.24-.77Zm8.49-3.85h-3.72c-.04,.13-.13,.22-.26,.29,.29,.11,.55,.2,.81,.29,.51,.2,.77,.42,.77,.64,0,.11-.15,.18-.42,.2-.26,.04-.42,.09-.44,.13-.44,.24-.95,.46-1.52,.64,.09,.07,.18,.11,.24,.13,.42,.29,.64,.62,.66,.97,.48-.53,.88-1.08,1.21-1.65,.57,.22,1.14,.42,1.69,.62,.53,.22,.79,.46,.79,.68,0,.09-.13,.13-.4,.15-.26,.02-.42,.04-.46,.09-.18,.11-.33,.2-.48,.26,.57,.26,.99,.48,1.25,.68,.09,.09,.18,.18,.26,.22V6.27Zm-2.09,3.76c-.7,.4-1.43,.75-2.22,1.06,.92-.02,1.78-.07,2.57-.13-.09-.31-.22-.62-.35-.92Zm2.09-6.6V1.89h-3.7v1.54h3.7Zm0,2.22v-1.63h-3.7v1.63h3.7Z"/><path class="cls-1" d="M31.86,.62c.53,.02,.81,.15,.81,.42,0,.09-.18,.22-.51,.37-.35,.15-.53,.35-.53,.57v2.49h.68s.26-.29,.68-.77c.48-.57,.77-.86,.86-.86,.24,0,.64,.29,1.19,.84,.53,.57,.79,.92,.79,1.06,0,.22-.11,.33-.33,.33h-5.17c-.04,1.45-.11,2.73-.18,3.78h1.65c.4-.35,.66-.62,.84-.77,.31-.22,.51-.35,.62-.35,.22,0,.64,.22,1.25,.66,.7,.53,1.08,.9,1.08,1.14,0,.18-.18,.35-.51,.55-.26,.13-.37,.26-.37,.4-.02,2.51-.18,4.49-.44,5.99-.31,1.36-.68,2.2-1.08,2.57-.31,.29-.7,.51-1.21,.68-.48,.13-.9,.22-1.21,.22-.15,0-.29-.26-.4-.77-.13-.68-.73-1.23-1.76-1.72l.09-.35c.92,.13,1.54,.18,1.89,.18,.4,0,.7-.26,.92-.79,.15-.48,.31-1.34,.44-2.57,.18-1.67,.26-3.15,.26-4.47h-2.11c-.07,.77-.13,1.43-.22,1.98-.2,1.32-.44,2.46-.73,3.46-.31,1.01-.68,1.89-1.17,2.64-.62,.97-1.3,1.8-2.05,2.51l-.26-.44c.31-.55,.59-1.3,.88-2.27,.29-.92,.53-2,.75-3.26,.2-1.14,.33-2.35,.42-3.59,.13-1.52,.2-3.32,.2-5.41-.95,.02-1.63,.04-2.07,.09l-.35-.86c.7,.13,1.69,.18,3.01,.18h.77V2.05c0-.57-.07-1.19-.15-1.8,.92,.09,1.83,.22,2.71,.37Zm8.82,.2c.84,.22,1.28,.44,1.28,.64,0,.24-.24,.4-.73,.46-.29,.04-.46,.11-.53,.18,.73,1.65,1.47,2.93,2.24,3.81,.92,1.01,1.85,1.69,2.77,2.09l-.07,.51c-.7,.22-1.19,.7-1.45,1.43-.18,.55-.4,.81-.62,.81-.15,0-.48-.42-1.01-1.3-.53-.86-1.03-1.98-1.52-3.34-.33-.9-.62-1.85-.84-2.82-.53,1.41-1.06,2.57-1.58,3.5-.77,1.45-1.78,2.86-3.04,4.22l-.26-.35c.53-1.1,1.1-2.62,1.74-4.55,.48-1.58,.95-3.56,1.34-5.94,.86,.26,1.61,.48,2.27,.66Zm.2,14.35c1.14,.46,2,.97,2.53,1.5,.44,.44,.68,.9,.68,1.39,0,.4-.15,.77-.46,1.08-.26,.35-.59,.55-.99,.55s-1.14-.66-2.29-1.98c-1.14-1.21-2.66-2.29-4.51-3.26l.26-.53c1.98,.37,3.59,.79,4.77,1.25Zm-.18-5.59c.59,.35,1.03,.7,1.32,1.1,.22,.31,.35,.66,.35,1.01,0,.48-.18,.9-.53,1.25-.33,.44-.73,.64-1.19,.64-.15,0-.46-.53-.9-1.63-.46-.99-1.06-1.87-1.76-2.66l.26-.62c1.01,.26,1.83,.57,2.44,.9Z"/><path class="cls-1" d="M56.85,.66c.62,.2,.92,.4,.92,.62s-.18,.35-.53,.4c-.35,.04-.55,.13-.59,.22-.11,.22-.22,.42-.33,.59h2.57s.2-.2,.57-.64c.48-.59,.81-.9,.97-.9s.62,.35,1.36,1.01c.46,.42,.7,.68,.7,.79,0,.22-.13,.33-.35,.33h-3.89c.42,.18,.77,.35,1.03,.53,.53,.37,.81,.73,.81,1.03,0,.57-.22,1.03-.64,1.36-.24,.24-.55,.35-.92,.35-.15,0-.29-.07-.4-.22-.11-.09-.2-.37-.26-.86-.11-.62-.35-1.36-.7-2.2h-1.21c-.37,.57-.77,1.06-1.19,1.5-.68,.7-1.58,1.45-2.68,2.2l-.24-.24c.81-1.08,1.45-2.07,1.89-2.99,.44-.97,.79-2.11,1.1-3.45,.68,.2,1.34,.4,2,.57Zm8.56,.09c.64,.2,.97,.4,.97,.62s-.18,.35-.53,.4c-.35,.04-.55,.13-.59,.22-.09,.18-.15,.35-.24,.51h3.08s.22-.22,.64-.68c.55-.62,.9-.95,1.08-.95,.15,0,.62,.35,1.41,1.06,.48,.44,.75,.73,.75,.84,0,.22-.15,.33-.44,.33h-4.18c.48,.15,.86,.29,1.12,.42,.55,.31,.84,.57,.84,.79,0,.53-.13,.95-.37,1.25-.31,.31-.66,.46-1.01,.46-.31,0-.53-.04-.66-.15-.18-.04-.31-.35-.42-.88-.11-.62-.42-1.25-.92-1.89h-1.23c-.35,.62-.73,1.14-1.12,1.58-.53,.62-1.19,1.21-1.98,1.83,.66,.48,1.01,.81,1.01,.99,0,.2-.15,.4-.46,.57-.22,.2-.31,.4-.31,.62v1.8c0,.68,.02,1.61,.09,2.75,0,.29-.37,.51-1.1,.64-.33,.04-.57,.04-.7,.04-.42,0-.62-.22-.62-.68v-.18h-3.43v3.48c1.19-.11,2.31-.24,3.39-.4-.31-.57-.73-1.17-1.23-1.78l.33-.26c1.41,.59,2.4,1.12,2.97,1.58,.53,.44,.81,.84,.81,1.17,0,.51-.15,.92-.44,1.28-.26,.35-.57,.53-.92,.53-.22,0-.42-.07-.57-.15-.13-.13-.31-.55-.48-1.25-.07-.22-.15-.44-.24-.66-1.69,1.06-3.48,1.83-5.32,2.35-.24,.02-.35,.11-.35,.24-.02,.07-.04,.18-.07,.31-.04,.18-.09,.29-.18,.29-.31,0-.68-.53-1.08-1.54-.13-.26-.31-.73-.57-1.39,.53-.02,1.03-.04,1.56-.09v-6.45c0-1.85-.09-3.23-.26-4.2,.84,.2,1.83,.55,2.93,1.03h2.49c.31-.35,.59-.68,.88-.95,.22-.22,.4-.35,.57-.35,.13,0,.42,.13,.86,.37,.57-.92,1.01-1.78,1.32-2.57,.35-.97,.66-2.11,.92-3.48,.7,.22,1.39,.42,2.05,.59Zm-9.35,8.87h3.43v-1.89h-3.43v1.89Zm0,2.84h3.43v-2.22h-3.43v2.22Zm14.61-5.9c.68,.53,1.03,.9,1.03,1.08s-.18,.37-.51,.64c-.42,.31-.62,.57-.62,.84v7.48c0,.75-.4,1.3-1.14,1.67-.62,.31-1.12,.46-1.52,.46-.13,0-.26-.29-.38-.81-.15-.66-.75-1.21-1.78-1.67l.09-.44c.84,.18,1.54,.26,2.07,.26,.18,0,.26-.22,.26-.68V7.64h-2.57v11.95c0,.26-.35,.48-1.06,.64-.31,.04-.55,.07-.68,.07-.46,0-.68-.24-.68-.7,.04-.75,.09-1.47,.09-2.22V9.11c0-1.06-.07-2.09-.18-3.1,.9,.26,1.83,.62,2.77,1.03h1.96c.22-.24,.37-.44,.51-.59,.4-.46,.7-.7,.88-.7,.22,0,.7,.29,1.45,.81Z"/><path class="cls-1" d="M81.95,13.14h3.08v-.77c0-1.41-.07-2.64-.18-3.7,.66,.07,1.47,.18,2.49,.35,.7,.09,1.06,.24,1.06,.42,0,.22-.22,.42-.66,.55-.31,.09-.46,.26-.46,.48v2.66h2.05s.29-.26,.68-.75c.48-.57,.79-.88,.88-.88,.24,0,.64,.29,1.17,.86s.81,.9,.81,1.03c0,.24-.13,.35-.35,.35h-5.24v.77c1.06,.22,1.91,.44,2.57,.66,.86,.31,1.5,.64,1.89,.99,.33,.31,.51,.62,.51,.92,0,.33-.13,.62-.35,.86-.22,.29-.46,.44-.75,.44-.31,0-.86-.46-1.69-1.39-.62-.59-1.34-1.14-2.18-1.63v4.11c0,.26-.35,.48-1.01,.64-.31,.04-.51,.07-.62,.07-.53,0-.79-.24-.79-.7,.11-1.32,.18-2.51,.18-3.61v-.26c-.62,.48-1.28,.9-1.94,1.28-1.52,.84-3.06,1.43-4.6,1.83l-.09-.24c1.14-.57,2.22-1.3,3.21-2.16,.97-.77,1.78-1.63,2.44-2.57h-2.11c-1.28,0-2.16,.04-2.68,.09l-.33-.86c.68,.11,1.69,.15,3.01,.15Zm2.71-12.56c.66,.2,.99,.4,.99,.62,0,.24-.2,.4-.57,.44-.4,.09-.59,.18-.64,.26-.09,.15-.15,.29-.24,.42h9.53s.26-.26,.7-.79c.59-.73,.99-1.1,1.19-1.1,.18,0,.7,.42,1.58,1.21,.53,.51,.81,.81,.81,.95,0,.22-.15,.33-.44,.33h-13.73c-.48,.79-1.01,1.47-1.61,2.05-.79,.84-1.85,1.67-3.12,2.53l-.26-.26c1.01-1.19,1.78-2.31,2.31-3.34,.53-1.08,.99-2.38,1.39-3.87,.73,.2,1.43,.4,2.11,.57Zm-1.69,6.91h9.29c.31-.31,.55-.57,.73-.79,.31-.33,.57-.51,.84-.51,.22,0,.68,.29,1.39,.84,.73,.55,1.1,.9,1.1,1.06,0,.26-.24,.53-.7,.81-.4,.29-.59,.53-.59,.73,0,1.45,.04,2.68,.15,3.65,.13,.9,.4,1.74,.79,2.49,.24,.57,.44,.84,.62,.84,.2,0,.44-.44,.75-1.34,.24-.66,.48-1.3,.7-1.94l.44,.26-.35,3.01c0,.4,.09,.77,.29,1.17,.2,.48,.31,.79,.31,.97,0,.73-.37,1.12-1.12,1.21-.51,0-1.1-.29-1.78-.84-.59-.48-1.1-1.12-1.54-2-.48-.88-.84-1.91-1.03-3.06-.24-1.34-.35-3.32-.35-5.96h-9.9c-1.14,0-1.91,.04-2.31,.09l-.35-.86c.75,.13,1.65,.18,2.66,.18Zm.29,2.73c.37,.33,.57,.7,.57,1.12,0,.37-.15,.73-.46,1.03-.22,.24-.48,.35-.81,.35-.24,0-.44-.26-.62-.84-.22-.77-.62-1.52-1.19-2.27l.18-.33c1.1,.31,1.89,.62,2.33,.92Zm2.9-5.33h7.22s.24-.26,.64-.75c.46-.57,.73-.88,.81-.88,.24,0,.62,.29,1.12,.86s.77,.9,.77,1.03c0,.24-.11,.35-.33,.35h-10.23c-1.28,0-2.16,.04-2.66,.09l-.35-.86c.7,.11,1.69,.15,3.01,.15Zm4.82,4.71c.68,.24,1.03,.48,1.03,.7,0,.13-.18,.24-.48,.29-.31,.07-.51,.15-.55,.24-.62,.57-1.45,1.12-2.51,1.63l-.33-.26c.59-.97,.99-2.07,1.19-3.26,.59,.22,1.14,.44,1.65,.66Z"/><path class="cls-1" d="M115.7,.64c.7,.22,1.06,.4,1.06,.55,0,.2-.22,.31-.62,.35-.04,.02-.09,.02-.09,.02,1.23,.92,2.53,1.65,3.87,2.16,1.65,.62,3.3,1.03,4.93,1.25l-.09,.44c-.62,.2-1.03,.62-1.28,1.25-.15,.48-.33,.73-.53,.73-.31,0-1.03-.29-2.13-.88-1.17-.57-2.27-1.32-3.28-2.24-.84-.75-1.56-1.5-2.13-2.29-1.25,1.34-2.55,2.42-3.87,3.23,.64,.09,1.14,.11,1.52,.11h2.24c.13-.2,.29-.48,.46-.88,.24-.48,.4-.75,.48-.75,.15,0,.44,.29,.84,.86,.4,.53,.62,.86,.62,1.03,0,.22-.09,.33-.24,.33h-4.4c-.44,0-1.01,.04-1.72,.09l-.2-.53c-.62,.4-1.28,.77-1.96,1.12,.62,.18,1.28,.4,2.02,.7h6.16c.31-.37,.62-.7,.92-1.01,.22-.24,.42-.37,.62-.37,.18,0,.59,.22,1.25,.64,.75,.53,1.14,.9,1.14,1.08,0,.22-.15,.42-.44,.64-.22,.2-.33,.42-.33,.66v1.54c0,.7,.02,1.65,.09,2.84,0,.09-.04,.18-.11,.22,.53,.35,1.01,.66,1.47,.92,.57,.44,.88,.75,.88,.92,0,.24-.13,.35-.35,.35l-.77-.18c-.73,.35-1.67,.7-2.86,1.08,.07,.04,.13,.07,.2,.07,1.14,.48,2.82,.84,5.06,1.08l-.09,.53c-.57,.15-.95,.53-1.17,1.12-.13,.44-.26,.68-.37,.68-.57,0-1.36-.22-2.35-.62-1.3-.48-2.33-1.03-3.08-1.61-.81-.55-1.5-1.3-2.02-2.22-.53-.81-.92-1.72-1.21-2.68h-2.68v3.78c1.34-.15,2.64-.33,3.87-.53l.18,.35c-2.16,1.32-4.42,2.24-6.84,2.84-.26,.04-.37,.11-.37,.24-.04,.09-.07,.18-.09,.31-.04,.2-.13,.31-.26,.31-.31,0-.68-.55-1.1-1.63-.13-.31-.35-.79-.62-1.47,1.01-.04,1.98-.11,2.93-.2v-6.43c0-1.58-.07-2.82-.2-3.7-1.14,.57-2.4,1.1-3.76,1.63l-.18-.33c1.56-.84,3.26-2.02,5.08-3.52,1.47-1.21,2.79-2.73,3.96-4.55,.73,.22,1.36,.42,1.94,.55Zm2.44,9.15v-1.89h-6.97v1.89h6.97Zm0,2.57v-1.98h-6.97v1.98h6.97Zm-1.69,2.9c.35,.35,.81,.66,1.39,.92,.26-.24,.51-.53,.75-.84,.4-.46,.77-.95,1.08-1.47-.09,.02-.13,.04-.18,.04-.35,.04-.59,.07-.75,.07-.4,0-.59-.22-.59-.68v-.33h-3.74c.66,.99,1.34,1.76,2.05,2.29Z"/><path class="cls-1" d="M147.07,1.67c.77,.26,1.17,.55,1.17,.81,0,.15-.18,.26-.53,.33-.35,.04-.55,.13-.59,.26-.68,.77-1.56,1.5-2.64,2.16h3.23c.26-.29,.51-.53,.73-.7,.29-.33,.51-.51,.66-.51,.2,0,.68,.33,1.45,.97,.68,.57,1.03,.97,1.03,1.19,0,.18-.18,.31-.51,.35-.4,0-.64,.02-.7,.07-.7,.53-1.56,1.03-2.57,1.52,.04,.09,.09,.18,.09,.22,0,.15-.15,.31-.44,.48-.29,.15-.46,.31-.51,.46v3.34c0,.29-.4,.48-1.14,.62-.35,.04-.59,.07-.75,.07-.4,0-.59-.2-.59-.59v-.44h-2.16v2.84h2.57s.29-.31,.73-.84c.51-.64,.81-.97,.92-.97,.26,0,.68,.33,1.25,.95,.57,.62,.88,.99,.88,1.12,0,.24-.15,.35-.42,.35h-5.94v2.91h4.73s.31-.35,.75-.92c.53-.7,.86-1.06,.97-1.06,.29,0,.75,.35,1.39,1.01,.62,.66,.95,1.08,.95,1.23,0,.22-.15,.35-.44,.35h-16.5c-1.25,0-2.13,.02-2.66,.09l-.35-.86c.7,.09,1.69,.15,3.01,.15h5.68v-2.91h-3.34c-1.28,0-2.16,.02-2.66,.07l-.35-.86c.68,.13,1.69,.18,3.01,.18h3.34v-2.84h-1.89v.44c0,.29-.37,.48-1.1,.62-.33,.04-.57,.07-.7,.07-.46,0-.68-.22-.68-.68,.04-.4,.09-.86,.09-1.39v-2.57c0-.53-.04-1.14-.09-1.89,.86,.24,1.72,.55,2.6,.95h6.07c.26-.35,.51-.66,.7-.92,.18-.22,.37-.35,.59-.35,.26,0,.7,.24,1.36,.7,.2,.15,.37,.29,.55,.4,.26-.59,.53-1.19,.75-1.8h-13.69c-.04,.75-.09,1.3-.15,1.65-.13,.62-.37,1.06-.68,1.32-.2,.15-.4,.22-.59,.22-.46,0-.84-.13-1.14-.4-.29-.22-.42-.55-.42-.99,0-.22,.22-.48,.7-.79,.48-.31,.88-.66,1.19-1.06,.26-.37,.51-.92,.68-1.67l.44,.09v1.03h5.5V2.05c0-.64-.07-1.3-.18-1.96,.99,.09,1.96,.22,2.9,.4,.57,.04,.88,.2,.88,.46,0,.09-.18,.22-.53,.37-.4,.15-.59,.35-.59,.57v3.34h1.1c.88-1.3,1.45-2.73,1.74-4.29,.66,.22,1.28,.46,1.85,.73Zm-9.46,.4c.44,.37,.66,.79,.66,1.28,0,.4-.18,.79-.53,1.17-.24,.26-.55,.37-.95,.37-.26,0-.48-.31-.66-.95-.26-.88-.7-1.74-1.32-2.58l.18-.33c1.25,.33,2.13,.68,2.62,1.03Zm6.84,9.62v-3.28h-6.54v3.28h6.54Z"/></svg>