<?xml version="1.0" encoding="UTF-8"?><svg id="_層_1" xmlns="http://www.w3.org/2000/svg" viewBox="0 0 99.16 20.29"><defs><style>.cls-1{fill:#7c7047;}</style></defs><path class="cls-1" d="M3.01,8.41h13.16s.26-.26,.66-.75c.48-.57,.79-.88,.88-.88,.24,0,.64,.29,1.17,.86,.53,.57,.81,.9,.81,1.03,0,.24-.13,.35-.35,.35H9.55v10.56c0,.26-.4,.48-1.14,.64-.35,.04-.59,.07-.75,.07-.46,0-.68-.24-.68-.7,.09-.75,.15-1.76,.18-3.08-1.47,.75-2.99,1.32-4.58,1.69-.22,0-.33,.07-.33,.2-.04,.04-.07,.13-.07,.24-.04,.18-.11,.26-.2,.26-.29,0-.62-.48-1.01-1.43-.11-.26-.29-.7-.53-1.32,.57,0,1.14-.02,1.72-.07v-7.06c-.81,.02-1.41,.04-1.8,.09l-.35-.86c.7,.11,1.69,.15,3.01,.15ZM6.2,1.28h7.31c.31-.35,.62-.66,.92-.92,.22-.22,.42-.35,.62-.35,.18,0,.62,.22,1.3,.62,.79,.53,1.19,.9,1.19,1.1,0,.22-.2,.42-.55,.64-.26,.2-.4,.42-.4,.64v1.12c0,.7,.02,1.69,.09,2.93,0,.29-.4,.48-1.19,.62-.37,.04-.64,.07-.79,.07-.4,0-.59-.22-.59-.68v-.18H5.68v.26c0,.29-.37,.48-1.1,.62-.33,.04-.57,.07-.7,.07-.46,0-.68-.22-.68-.68,.04-.77,.09-1.54,.09-2.33v-1.45c0-1.1-.07-2.16-.18-3.19,1.01,.29,2.05,.66,3.1,1.12Zm.95,9.55v-1.8h-2.6v1.8h2.6Zm0,2.57v-1.98h-2.6v1.98h2.6Zm0,2.35v-1.76h-2.6v1.96c.92-.04,1.78-.11,2.6-.2ZM14.1,3.61V1.89H5.68v1.72H14.1Zm0,2.66v-2.07H5.68v2.07H14.1Zm-1.3,4.29h2.6c.26-.26,.46-.46,.59-.55,.37-.31,.66-.48,.86-.48,.18,0,.64,.31,1.34,.9,.7,.66,1.06,1.08,1.06,1.25,0,.2-.26,.33-.75,.37-.48,.04-.77,.11-.88,.22-.35,1.06-.84,2.05-1.45,2.93-.13,.22-.26,.42-.4,.59,1.23,.7,2.55,1.25,4,1.65l-.18,.42c-.64,.26-1.06,.57-1.23,.97-.22,.48-.42,.75-.57,.75-.22,0-.66-.22-1.28-.62-.68-.4-1.39-.9-2.11-1.61-.15,.13-.29,.26-.42,.37-.97,.81-2.27,1.5-3.94,2.02l-.15-.42c1.1-.75,2.2-1.85,3.28-3.37,0,0,.02-.02,.02-.04-.22-.31-.44-.66-.64-1.03-.51-.88-.92-2.11-1.23-3.72-.42,.02-.79,.04-1.1,.07l-.33-.86c1.01,.13,1.98,.18,2.9,.18Zm.31,2.91c.26,.4,.57,.75,.92,1.06,.51-.97,.97-2.09,1.36-3.37h-3.56c.31,.84,.73,1.61,1.28,2.31Z"/><path class="cls-1" d="M34.52,4.49c.59,.18,.9,.37,.9,.57,0,.22-.18,.35-.51,.4-.35,.04-.55,.11-.59,.2-.24,.59-.51,1.08-.81,1.47-.22,.31-.48,.59-.79,.86h.84s.26-.29,.66-.77c.48-.57,.79-.86,.88-.86,.24,0,.64,.29,1.17,.84,.53,.57,.81,.92,.81,1.06,0,.22-.13,.33-.35,.33h-4.29v2.84h.77s.26-.29,.68-.79c.48-.62,.77-.92,.86-.92,.26,0,.66,.31,1.23,.9,.55,.59,.84,.95,.84,1.08,0,.24-.13,.35-.35,.35h-4.03v.84c1.19,.26,2.02,.55,2.55,.86,.53,.35,.79,.77,.79,1.21s-.18,.81-.53,1.17c-.24,.26-.55,.4-.92,.4s-.68-.31-.95-.92c-.22-.55-.55-1.08-.95-1.61v5.43c0,.29-.4,.51-1.17,.64-.33,.04-.57,.07-.73,.07-.42,0-.62-.24-.62-.7,.11-.79,.18-1.94,.18-3.43v-.2c-.62,.64-1.17,1.12-1.65,1.43-.57,.46-1.23,.86-1.96,1.19l-.33-.18c1.83-2.16,3.1-4.2,3.81-6.18h-.55c-1.25,0-2.13,.02-2.66,.07l-.35-.86c.7,.13,1.69,.18,3.01,.18h.68v-2.84h-.95c-1.25,0-2.13,.04-2.66,.09l-.33-.86c.68,.13,1.67,.18,2.99,.18h2.95c.11-.66,.22-1.25,.31-1.83,.07-.62,.13-1.34,.2-2.22,.66,.2,1.3,.37,1.92,.55Zm-1.89-3.87c.55,.02,.84,.15,.84,.42,0,.09-.18,.22-.51,.37-.35,.15-.53,.35-.53,.57v1.1h.51s.29-.29,.68-.79c.48-.62,.77-.92,.86-.92,.26,0,.66,.31,1.23,.9,.55,.59,.84,.95,.84,1.08,0,.24-.11,.35-.33,.35h-6.71c-1.28,0-2.16,.04-2.66,.09l-.35-.88c.7,.13,1.69,.18,3.01,.18h.59v-1.03c0-.57-.07-1.19-.18-1.8,.92,.09,1.83,.22,2.71,.37Zm-2.33,4.22c.44,.35,.66,.64,.66,.9,0,.55-.13,.99-.37,1.32-.33,.33-.68,.48-1.08,.48-.22,0-.35-.04-.44-.15-.11-.07-.2-.4-.29-.99-.09-.7-.31-1.45-.66-2.2l.26-.26c.92,.35,1.56,.64,1.92,.9Zm9.44-1.65V7.48h2.49s.24-.24,.68-.73c.57-.66,.95-1.01,1.12-1.01s.66,.37,1.47,1.12c.51,.46,.77,.75,.77,.86,0,.24-.15,.35-.44,.35h-1.54v11.27c0,.26-.4,.48-1.14,.62-.35,.04-.59,.07-.75,.07-.4,0-.59-.24-.59-.68,.09-.81,.15-1.96,.15-3.46v-7.81h-2.22v.26c0,1.98-.13,3.74-.35,5.24-.29,1.36-.77,2.62-1.47,3.76-.62,.92-1.43,1.85-2.49,2.77l-.42-.18c.86-1.52,1.43-2.93,1.74-4.27,.37-1.63,.57-4.07,.57-7.33s-.09-5.57-.24-6.98c1.08,.33,1.96,.66,2.64,.99,.66-.24,1.21-.48,1.61-.73,.64-.31,1.32-.81,2.02-1.47,.73,.57,1.32,.99,1.76,1.3,.66,.48,.99,.84,.99,1.03,0,.18-.13,.26-.35,.26l-1.12-.09c-1.76,.29-3.39,.46-4.88,.53Z"/><path class="cls-1" d="M55.99,6.65c.51,.33,.77,.73,.77,1.17,0,.48-.22,.92-.62,1.36-.29,.31-.66,.44-1.1,.44-.33,0-.62-.31-.84-.95-.31-.88-.84-1.74-1.58-2.57l.26-.44c1.5,.31,2.53,.64,3.1,.99Zm3.78-1.41c-.88,2.95-1.54,5.26-1.98,6.91-.4,1.63-.59,2.75-.59,3.32,0,.35,.02,.73,.07,1.14,.22,.84,.35,1.47,.35,1.94s-.11,.75-.33,.92c-.22,.24-.55,.37-1.03,.37-.66,0-1.14-.13-1.47-.37-.22-.18-.33-.48-.33-.92,0-.24,.09-.57,.26-1.04,.04-.35,.07-.64,.07-.86,0-.48-.09-.88-.22-1.17-.18-.29-.66-.55-1.5-.79l.09-.53c.88,0,1.47-.07,1.76-.2,.26-.15,.48-.48,.64-.99l3.78-7.83,.44,.09Zm-1.91-3.72c.53,.35,.79,.77,.79,1.23,0,.42-.2,.81-.55,1.21-.26,.29-.59,.42-.99,.42-.37,0-.68-.31-.95-.92-.35-.86-.95-1.69-1.8-2.51l.24-.44c1.54,.33,2.64,.66,3.26,1.01Zm4.82,1.36c.53,.4,.79,.75,.79,1.06,0,.59-.18,1.08-.51,1.47-.31,.4-.66,.59-1.06,.59-.18,0-.35-.04-.48-.18-.13-.11-.26-.53-.42-1.23-.2-.79-.7-1.76-1.5-2.88l.35-.26c1.34,.53,2.29,1.01,2.82,1.43Zm4.38-2.31c.57,.02,.88,.18,.88,.46,0,.09-.2,.22-.55,.37-.4,.15-.57,.35-.57,.57V7.13h1.54c.22-.26,.4-.46,.53-.64,.44-.48,.77-.75,.95-.75,.22,0,.73,.29,1.5,.84,.7,.57,1.08,.95,1.08,1.14,0,.18-.18,.37-.53,.64-.46,.31-.68,.57-.68,.84v8.49c0,.79-.4,1.41-1.17,1.83-.62,.33-1.14,.51-1.58,.51-.18,0-.35-.29-.48-.86-.22-.7-.99-1.25-2.35-1.72l.09-.44c1.14,.13,2.05,.18,2.75,.18,.18,0,.26-.22,.26-.68v-2.16h-6.45v5.24c0,.26-.37,.48-1.1,.64-.33,.04-.57,.07-.7,.07-.53,0-.77-.24-.77-.7,.11-1.65,.18-3.1,.18-4.38v-5.15c0-1.08-.07-2.4-.18-3.96,1.06,.26,2.07,.59,2.99,1.03h1.65V2.13c0-.64-.07-1.3-.18-1.98,.99,.11,1.96,.24,2.9,.42Zm1.65,9.73v-2.57h-6.45v2.57h6.45Zm0,3.46v-2.84h-6.45v2.84h6.45Zm2.4-11.82c.86,.31,1.3,.59,1.3,.9,0,.18-.2,.29-.59,.35-.4,.09-.64,.2-.7,.33-.73,.97-1.72,1.85-2.99,2.66l-.44-.35c.68-1.41,1.14-2.97,1.39-4.73,.73,.26,1.41,.55,2.05,.84Z"/><path class="cls-1" d="M82.9,13.66c0,1.74-.09,2.93-.24,3.54-.2,.7-.51,1.17-.95,1.47-.29,.13-.57,.22-.86,.22-.48,0-.9-.15-1.21-.42-.31-.26-.44-.59-.44-1.03,0-.24,.29-.53,.86-.88,.62-.35,1.12-.73,1.47-1.17,.33-.4,.62-1.01,.86-1.83l.51,.09ZM89.06,.53c.81,.18,1.23,.35,1.23,.57,0,.13-.22,.26-.62,.37-.35,.04-.53,.13-.57,.24-.48,.33-1.14,.64-1.94,.95h5.54c.24-.26,.46-.53,.68-.75,.31-.35,.53-.55,.68-.55,.24,0,.68,.24,1.34,.68,.75,.62,1.14,1.01,1.14,1.21s-.18,.42-.53,.64c-.29,.26-.42,.53-.42,.75v3.34l.18,4.38c0,.29-.42,.48-1.21,.62-.35,.04-.59,.07-.77,.07-.4,0-.59-.22-.59-.68v-.33h-8.69v.24c0,.29-.37,.51-1.1,.64-.33,.04-.57,.07-.7,.07-.53,0-.77-.22-.77-.7,.11-1.65,.18-3.1,.18-4.38v-2.24c0-1.06-.07-2.38-.18-3.94,1.01,.24,1.96,.55,2.84,.95h1.56c.24-.7,.37-1.56,.42-2.57,.92,.15,1.69,.31,2.29,.44Zm-2.38,12.87c.86,.13,1.3,.29,1.3,.51,0,.29-.22,.51-.62,.64-.26,.11-.42,.31-.42,.57v1.8c0,.48,.15,.75,.46,.81,.59,.09,1.52,.13,2.79,.13,.66,0,1.23-.04,1.69-.13,.31-.07,.53-.18,.66-.31,.09-.09,.2-.33,.33-.68,.15-.42,.33-.99,.51-1.72l.51,.09c.04,.79,.09,1.28,.09,1.47,0,.48,.24,.84,.75,1.03,.64,.26,.97,.51,.97,.68,0,.4-.26,.75-.79,1.01-.42,.2-.86,.33-1.34,.4-.86,.13-1.98,.22-3.37,.22-2.16,0-3.61-.09-4.31-.22-.59-.13-.99-.4-1.19-.77-.18-.26-.24-.75-.24-1.41v-1.8c0-.92-.09-1.8-.26-2.68,.7,.09,1.54,.2,2.49,.35Zm6.54-7.75V3.26h-8.69v2.4h8.69Zm0,2.93v-2.31h-8.69v2.31h8.69Zm0,2.84v-2.22h-8.69v2.22h8.69Zm-2.02,2.13c.44,.33,.66,.7,.66,1.14,0,.4-.18,.79-.53,1.14-.26,.26-.57,.4-.95,.4-.26,0-.48-.29-.68-.88-.24-.81-.68-1.61-1.3-2.38l.18-.35c1.25,.31,2.13,.62,2.62,.92Zm6.73,1.41c.81,.73,1.23,1.39,1.23,1.96,0,.53-.2,.92-.55,1.23-.22,.22-.51,.33-.84,.33-.31,0-.59-.11-.81-.31-.22-.15-.4-.57-.55-1.25-.22-.97-.77-2.11-1.65-3.43l.26-.18c1.28,.53,2.24,1.08,2.9,1.65Z"/></svg>