<?xml version="1.0" encoding="UTF-8"?><svg id="_層_1" xmlns="http://www.w3.org/2000/svg" viewBox="0 0 99.33 20.35"><defs><style>.cls-1{fill:#7c7047;}</style></defs><path class="cls-1" d="M7.33,6.93c.51,.04,.77,.15,.77,.37,0,.09-.15,.2-.46,.33-.33,.15-.48,.33-.48,.53v.42h2.22s.26-.26,.66-.75c.44-.57,.73-.88,.81-.88,.22,0,.59,.29,1.1,.86,.53,.57,.79,.9,.79,1.03,0,.24-.13,.35-.35,.35H3.01c-1.25,0-2.13,.04-2.66,.09l-.35-.88c.7,.13,1.69,.18,3.01,.18h1.98v-.24c0-.57-.07-1.14-.18-1.74,.86,.09,1.69,.2,2.51,.33ZM3.98,15.62c.55,.22,.84,.46,.84,.7,0,.13-.15,.2-.44,.22-.31,.04-.46,.07-.51,.11-.99,.66-2.2,1.28-3.61,1.83l-.26-.26c.95-1.01,1.67-2.09,2.16-3.28,.62,.22,1.23,.46,1.83,.68ZM3.72,1.36H7.92c.31-.33,.59-.62,.88-.86,.22-.22,.4-.35,.57-.35s.57,.2,1.21,.59c.75,.53,1.12,.88,1.12,1.06,0,.2-.18,.4-.51,.59-.24,.18-.35,.37-.35,.59v.95c0,.62,.02,1.45,.09,2.51,0,.29-.35,.48-1.06,.62-.31,.04-.55,.07-.68,.07-.4,0-.59-.2-.59-.59v-.18H3.46v.24c0,.29-.33,.51-.99,.64-.31,.04-.51,.07-.64,.07-.48,0-.7-.22-.7-.7,.04-.66,.09-1.34,.09-2.05v-1.21c0-1.01-.07-1.98-.18-2.93,.88,.24,1.78,.55,2.68,.95Zm6.67,8.82c.7,.46,1.06,.79,1.06,.97,0,.15-.13,.31-.37,.44-.24,.15-.38,.31-.4,.44v2.05c0,.26-.33,.44-.99,.55-.31,.04-.51,.07-.64,.07-.42,0-.62-.18-.62-.53v-.42h-.86v4.03c0,1.06-.35,1.76-1.06,2.09-.66,.31-1.17,.48-1.52,.48-.13,0-.26-.24-.35-.68-.13-.7-.68-1.28-1.63-1.72l.09-.35c.64,.13,1.19,.18,1.63,.18,.35,0,.53-.2,.53-.59v-3.43h-1.47v.24c0,.26-.33,.44-.99,.55-.31,.04-.51,.07-.64,.07-.46,0-.68-.2-.68-.62,.04-.37,.09-.79,.09-1.28v-1.3c0-.48-.04-1.06-.09-1.72,.81,.22,1.67,.55,2.55,.95h3.89c.24-.31,.46-.59,.66-.81,.18-.2,.35-.31,.55-.31,.22,0,.64,.22,1.25,.66Zm-1.78-6.67V1.98H3.46v1.54h5.15Zm0,2.22v-1.63H3.46v1.63h5.15ZM3.79,13.14h4.64v-1.89H3.79v1.89Zm7.06,2.97c.44,.33,.68,.73,.68,1.17,0,.35-.18,.7-.48,1.03-.2,.22-.46,.33-.81,.33-.31,0-.57-.29-.79-.84-.29-.79-.79-1.58-1.52-2.33l.18-.35c1.32,.31,2.22,.64,2.75,.99Zm3.94,1.92c-.92,.73-2.6,1.43-4.97,2.09l-.26-.44c1.61-.79,2.88-1.65,3.81-2.58,1.39-1.34,2.49-2.93,3.32-4.73,.81,.44,1.5,.81,2.02,1.12,.66,.35,.99,.64,.99,.86,0,.31-.2,.44-.59,.44l-.77-.09c-1.5,1.63-2.66,2.75-3.54,3.32ZM17.78,1.45c.7,.37,1.06,.66,1.06,.86s-.2,.31-.55,.33c-.44,0-.68,.07-.75,.2-.66,.62-1.34,1.14-2.07,1.58-.84,.57-2.16,1.17-3.94,1.76l-.18-.35c1.01-.75,1.89-1.56,2.68-2.46,.88-1.03,1.52-2.02,1.87-2.95,.7,.4,1.32,.75,1.87,1.03Zm.68,5.74c.7,.4,1.06,.68,1.06,.88s-.2,.31-.55,.31c-.44,0-.68,.07-.73,.2-.7,.68-1.45,1.3-2.24,1.83-.92,.64-2.35,1.3-4.29,1.96l-.18-.33c1.12-.81,2.11-1.69,2.99-2.66,.99-1.12,1.67-2.18,2.07-3.19,.7,.4,1.32,.75,1.87,1.01Z"/><path class="cls-1" d="M31.88,1.56c1.06,.22,1.58,.44,1.58,.66,0,.18-.24,.35-.68,.51-.4,.11-.59,.26-.62,.44,0,1.32-.02,2.51-.02,3.52h4.84V2.31c0-.64-.07-1.3-.18-1.98,.99,.11,1.96,.24,2.9,.4,.57,.04,.88,.2,.88,.46,0,.11-.18,.24-.53,.37-.4,.18-.59,.35-.59,.57V6.69h2.24s.29-.26,.77-.84c.66-.79,1.08-1.21,1.3-1.21,.2,0,.79,.44,1.76,1.3,.59,.53,.9,.88,.9,1.01,0,.24-.18,.35-.53,.35h-13.77c-.04,2.02-.11,3.43-.18,4.2h6.23c.31-.37,.62-.7,.92-.99,.22-.24,.42-.37,.62-.37,.18,0,.62,.22,1.3,.62,.79,.53,1.19,.9,1.19,1.1,0,.22-.18,.42-.48,.64-.26,.2-.37,.42-.37,.64v3.37c0,.7,.02,1.67,.09,2.9,0,.29-.4,.51-1.19,.64-.37,.04-.64,.07-.79,.07-.4,0-.59-.24-.59-.7v-7.3h-6.98c-.18,1.28-.44,2.33-.79,3.17-.42,.92-.95,1.8-1.61,2.6s-1.58,1.63-2.75,2.49l-.35-.33c.88-1.01,1.56-2.16,2.09-3.45,.4-.88,.73-2.13,.97-3.81,.13-1.32,.22-4.07,.22-8.21,0-.88-.07-2.05-.18-3.45,.79,.15,1.58,.31,2.38,.46Z"/><path class="cls-1" d="M56.25,3.17h.24V1.98c0-.59-.07-1.21-.15-1.83,.92,.09,1.83,.22,2.71,.37,.53,.04,.81,.18,.81,.42,0,.09-.18,.22-.51,.37-.35,.15-.53,.35-.53,.57v1.28h.51s.22-.2,.53-.59c.37-.44,.59-.68,.68-.68,.2,0,.53,.24,.97,.68,.44,.48,.66,.77,.66,.86,0,.24-.09,.35-.24,.35h-3.1v2.66h.86s.24-.26,.64-.73c.46-.55,.73-.84,.81-.84,.22,0,.59,.29,1.08,.81,.48,.55,.73,.88,.73,.99,0,.24-.11,.35-.33,.35h-2.9c.42,.24,.79,.44,1.12,.62,.62,.33,.92,.57,.92,.75,0,.2-.15,.31-.44,.33-.35,0-.55,.07-.59,.2-.33,.48-.66,.9-1.01,1.28-.29,.31-.68,.64-1.17,.95h1.14s.22-.2,.53-.55c.37-.42,.59-.64,.68-.64,.18,0,.48,.22,.9,.66,.42,.44,.64,.7,.64,.79,0,.24-.09,.35-.26,.35h-3.26v2.49h.51s.26-.24,.66-.73c.44-.53,.73-.81,.81-.81,.22,0,.57,.29,1.06,.81,.48,.55,.75,.88,.75,.99,0,.22-.13,.33-.35,.33h-3.43v4.82c0,.26-.4,.48-1.14,.64-.35,.02-.59,.04-.75,.04-.46,0-.68-.24-.68-.68,.09-.84,.15-2.02,.15-3.61v-1.21h-.77c-1.25,0-2.13,.04-2.66,.09l-.33-.86c.68,.13,1.67,.18,2.99,.18h.77v-2.49h-.24c-1.28,0-2.16,.04-2.66,.09l-.35-.86c.68,.11,1.69,.15,3.01,.15h1.41c.35-.59,.66-1.23,.92-1.94,.29-.77,.48-1.5,.62-2.18h-3.48c-1.25,0-2.13,.04-2.66,.09l-.33-.86c.68,.13,1.67,.18,2.99,.18h.77V3.79h-.24c-1.28,0-2.16,.02-2.66,.07l-.35-.86c.68,.13,1.69,.18,3.01,.18Zm.35,5.1c.51,.4,.77,.73,.77,1.01,0,.48-.13,.88-.35,1.17-.29,.31-.59,.46-.95,.46-.29,0-.48-.04-.62-.18-.15-.07-.29-.4-.37-.99-.11-.7-.42-1.45-.9-2.2l.26-.24c1.03,.37,1.76,.7,2.16,.97Zm9.22-6.47h3.06c.31-.35,.51-.59,.64-.75,.37-.35,.62-.55,.73-.55,.22,0,.64,.26,1.3,.77,.62,.48,.95,.84,.95,1.03s-.18,.37-.53,.53c-.35,.15-.51,.29-.51,.42-.37,1.98-.66,3.21-.88,3.7-.2,.44-.48,.77-.86,.99-.37,.22-.68,.31-.92,.31-.18,0-.35-.24-.48-.75-.2-.57-.92-1.19-2.18-1.85l.09-.42c.99,.13,1.72,.18,2.16,.18,.18,0,.31-.11,.4-.35,.09-.31,.24-1.19,.46-2.66h-3.78v6.95h3.78c.24-.26,.44-.51,.59-.73,.33-.35,.55-.55,.68-.55,.18,0,.62,.26,1.32,.77,.66,.48,1.01,.86,1.01,1.12,0,.13-.15,.26-.44,.35-.37,.13-.57,.31-.59,.51-.33,1.76-.73,3.08-1.21,3.94-.22,.35-.44,.7-.68,1.03,.92,.79,1.91,1.43,3.01,1.89l-.18,.44c-.64,.24-1.06,.57-1.23,.97-.24,.48-.44,.75-.57,.75-.18,0-.51-.24-.95-.73-.48-.44-.99-1.03-1.5-1.83-.11,.09-.2,.18-.29,.26-.88,.71-1.8,1.32-2.77,1.85v.26c0,.26-.35,.48-1.06,.64-.31,.02-.53,.04-.66,.04-.53,0-.79-.24-.79-.68,.11-1.54,.18-2.93,.18-4.12V4.55c0-1.03-.07-2.29-.18-3.78,1.03,.26,2,.59,2.88,1.03Zm1.3,14.83c.2-.26,.37-.53,.55-.79-.22-.44-.42-.95-.59-1.52-.35-1.01-.66-2.46-.88-4.36h-.75v8.58c.64-.62,1.19-1.25,1.67-1.92Zm.55-3.83c.24,.53,.53,1.01,.84,1.45,.09-.22,.15-.42,.24-.64,.42-1.21,.66-2.42,.73-3.65h-2.82c.26,1.03,.62,1.98,1.01,2.84Z"/><path class="cls-1" d="M81.8,7.31c.24-.26,.46-.51,.68-.77,.31-.35,.53-.53,.68-.53,.22,0,.59,.24,1.14,.73,.62,.53,.92,.86,.92,.99,0,.22-.18,.4-.48,.57-.31,.22-.46,.44-.46,.64v1.3c.62,.46,1.41,.73,2.35,.81,1.08,.09,3.17,.11,6.29,.11,1.89,0,3.98-.11,6.31-.33l.09,.33c-.53,.13-.97,.64-1.32,1.5-.04,.4-.15,.57-.33,.57h-3.63c.33,.07,.57,.13,.73,.18,.9,.18,1.36,.37,1.36,.59s-.2,.4-.55,.53c-.4,.11-.57,.29-.57,.51v.09h1.21s.22-.24,.55-.68c.42-.51,.66-.77,.75-.77,.22,0,.57,.26,1.06,.77,.48,.53,.75,.84,.75,.95,0,.24-.13,.35-.35,.35h-3.96v2.05c0,.84-.29,1.45-.84,1.8-.64,.4-1.28,.62-1.91,.62-.22,0-.37-.2-.42-.59-.13-.66-.97-1.3-2.51-1.91l.09-.42c1.23,.22,2.16,.33,2.75,.33,.35,0,.53-.11,.53-.33v-1.54h-9.97c-1.28,0-2.16,.02-2.66,.07l-.35-.86c.68,.13,1.69,.18,3.01,.18h9.97c0-.37-.07-1.01-.15-1.89h-.26c-1.23,0-2.79-.07-4.69-.2-1.89-.29-3.21-.99-4-2.11-.09,0-.18,.07-.24,.15-.57,.75-1.28,1.43-2.09,2.07,0,.53-.09,.77-.24,.77-.13,0-.29-.13-.42-.44-.35-.64-.75-1.43-1.14-2.38,1.14-.13,2.05-.24,2.66-.35v-2.84c-1.06,0-1.87,.07-2.4,.18l-.35-1.03c.73,.18,1.54,.26,2.42,.26Zm.59-3.74c.4,.29,.59,.62,.59,.99,0,.35-.15,.66-.44,.97-.18,.22-.44,.31-.75,.31-.26,0-.51-.24-.68-.73-.26-.68-.68-1.36-1.3-2.02l.18-.33c1.14,.26,1.94,.53,2.4,.81Zm1.87-2.44c.4,.26,.62,.57,.62,.92,0,.37-.15,.73-.46,1.03-.22,.24-.48,.35-.81,.35-.29,0-.53-.24-.73-.73-.26-.7-.7-1.36-1.34-2.02l.18-.35c1.21,.26,2.07,.53,2.55,.79Zm2.77,15.67c.57,.29,.86,.62,.86,.99,0,.42-.2,.84-.55,1.23-.26,.26-.59,.4-.99,.4-.42,0-.77-.26-1.06-.79-.4-.75-1.08-1.5-2.05-2.2l.26-.44c1.67,.26,2.86,.55,3.52,.81ZM90.33,.62c.44,.18,.66,.37,.66,.57,0,.4-.18,.75-.51,1.1-.13,.15-.26,.24-.4,.29h2.27c.18-.4,.33-.77,.46-1.1,.11-.4,.22-.9,.31-1.47,.62,.18,1.23,.33,1.83,.48,.55,.18,.84,.35,.84,.55s-.18,.33-.48,.37c-.33,.07-.51,.13-.53,.22-.26,.31-.57,.55-.92,.75-.13,.09-.24,.15-.35,.2h2.2s.22-.24,.57-.68c.4-.53,.64-.79,.73-.79,.22,0,.57,.26,1.06,.79,.48,.53,.75,.84,.75,.95,0,.22-.13,.33-.35,.33h-2.4c.22,.13,.46,.29,.75,.48,.7,.46,1.06,.79,1.06,.99,0,.13-.13,.29-.4,.44-.26,.13-.42,.29-.46,.42v4.73c0,.24-.35,.42-1.03,.53-.31,.04-.55,.07-.68,.07-.4,0-.59-.18-.59-.53h-5.76c-.09,.26-.42,.44-.99,.55-.31,.04-.51,.07-.64,.07-.48,0-.7-.22-.7-.68,.04-.68,.09-1.36,.09-2.07v-1.89c0-1.01-.07-1.98-.15-2.93,.88,.24,1.76,.55,2.66,.95h.71c.18-.35,.31-.73,.4-1.12h-2.05c-1.28,0-2.16,.04-2.66,.09l-.35-.86c.68,.13,1.69,.18,3.01,.18h1.08c-.15-.09-.29-.24-.42-.51-.26-.53-.7-1.03-1.36-1.56l.18-.35c1.25,.15,2.13,.31,2.62,.46Zm4.36,5.48v-1.21h-5.76v1.21h5.76Zm0,1.8v-1.21h-5.76v1.21h5.76Zm0,1.8v-1.21h-5.76v1.21h5.76Zm-.35-5.41c.24-.35,.46-.66,.66-.92,.07-.09,.13-.15,.18-.2h-2.55c-.44,.44-.92,.81-1.45,1.12h3.17Z"/></svg>