<?xml version="1.0" encoding="UTF-8"?><svg id="_層_1" xmlns="http://www.w3.org/2000/svg" viewBox="0 0 99.33 20.2"><defs><style>.cls-1{fill:#7c7047;}</style></defs><path class="cls-1" d="M2.42,10.56c.24-.26,.46-.51,.68-.77,.31-.35,.55-.53,.68-.53,.22,0,.62,.26,1.19,.75,.64,.53,.97,.86,.97,.99,0,.22-.15,.42-.44,.59-.26,.26-.42,.48-.42,.68v3.61c.62,.7,1.43,1.1,2.4,1.19,1.1,.13,3.21,.2,6.38,.2,1.91,0,4.05-.13,6.42-.44l.09,.44c-.57,.13-1.06,.7-1.43,1.67-.09,.42-.2,.64-.37,.64h-5.44c-1.23,0-2.79-.09-4.71-.24-1.89-.4-3.23-1.28-4.03-2.68-.09,0-.15,.07-.22,.2-.53,.84-1.19,1.63-1.94,2.4,0,.57-.13,.86-.35,.86-.13,0-.26-.18-.42-.48-.4-.73-.79-1.58-1.21-2.62,1.08-.22,1.91-.42,2.49-.59v-5.26c-1.06,0-1.87,.07-2.4,.18l-.35-1.03c.73,.18,1.54,.26,2.42,.26Zm1.69-5.04c.53,.33,.79,.73,.79,1.17s-.18,.81-.53,1.17c-.24,.26-.55,.4-.92,.4s-.68-.29-.95-.9c-.35-.84-.95-1.67-1.8-2.46l.18-.33c1.54,.31,2.62,.62,3.23,.97Zm.64-4c.55,.33,.84,.7,.84,1.14,0,.4-.18,.75-.48,1.08-.22,.26-.53,.37-.88,.37-.42,0-.77-.29-1.06-.86-.4-.79-1.08-1.56-2.05-2.31l.18-.35c1.65,.31,2.79,.62,3.45,.92Zm6.23-.73c.59,.18,.9,.37,.9,.57,0,.22-.18,.35-.53,.4-.35,.04-.55,.11-.59,.2-.4,.84-.86,1.56-1.34,2.18,.22,.35,.4,.66,.55,.97,.46,.92,.79,1.98,1.01,3.17,.18,.92,.29,1.76,.29,2.55,0,1.63-.15,2.84-.44,3.59-.33,.84-.73,1.45-1.21,1.85-.44,.4-.79,.57-1.01,.57-.18,0-.35-.26-.51-.84-.26-.64-1.06-1.19-2.42-1.65l.09-.44c.9,.13,1.5,.18,1.8,.18,.66,0,1.08-.2,1.25-.64,.2-.4,.31-1.25,.31-2.62,0-.35-.02-.68-.02-1.01-.57,.7-1.08,1.23-1.54,1.58-.48,.44-1.03,.81-1.63,1.14l-.26-.09c1.47-1.96,2.51-3.83,3.12-5.63-.07-.37-.13-.77-.2-1.17-.04-.15-.07-.31-.11-.44-.7,.7-1.58,1.43-2.64,2.18l-.26-.26c.95-1.14,1.67-2.2,2.18-3.17,.04-.13,.11-.24,.15-.35-.48-1.06-1.12-1.89-1.89-2.51l.35-.33c.75,.66,1.39,1.28,1.92,1.89,.29-.75,.53-1.54,.75-2.42,.66,.18,1.3,.37,1.94,.55Zm3.21,1.43h1.72s.29-.29,.68-.79c.48-.62,.77-.92,.86-.92,.26,0,.66,.31,1.23,.9,.55,.59,.84,.95,.84,1.08,0,.22-.11,.33-.33,.33h-3.01v5.26s.22-.24,.55-.68c.42-.53,.66-.79,.73-.79,.22,0,.59,.26,1.08,.79,.48,.53,.73,.84,.73,.92,0,.24-.11,.35-.33,.35h-2.75v6.27h.18s.26-.29,.66-.79c.48-.62,.79-.92,.88-.92,.26,0,.66,.31,1.23,.9,.55,.59,.84,.95,.84,1.08,0,.24-.13,.35-.35,.35h-5.68c-1.25,0-2.13,.04-2.66,.09l-.33-.88c.68,.13,1.67,.18,2.99,.18v-6.27c-.9,.02-1.56,.04-1.98,.09l-.33-.86c.57,.11,1.34,.18,2.31,.18V2.82c-1.12,0-1.92,.04-2.4,.09l-.35-.86c.7,.13,1.69,.18,3.01,.18Z"/><path class="cls-1" d="M44.2,.97c.75,.51,1.12,.86,1.12,1.08,0,.18-.15,.33-.46,.48-.29,.18-.44,.33-.48,.46v1.98c0,.26-.35,.44-1.03,.55-.31,.04-.55,.04-.68,.04-.42,0-.62-.15-.62-.51v-.09h-11.24v3.28c0,1.28-.04,2.42-.13,3.48,.68,.09,1.61,.13,2.79,.13h.51v-3.19c-1.25,0-2.13,.04-2.66,.09l-.33-.86c.68,.13,1.67,.18,2.99,.18v-.77c0-.57-.07-1.19-.18-1.8,.92,.09,1.83,.2,2.71,.35,.55,.04,.84,.18,.84,.42,0,.09-.18,.22-.51,.37-.35,.18-.53,.35-.53,.57v.86h2.49v-.68c0-.62-.07-1.23-.18-1.89,.95,.09,1.87,.2,2.77,.35,.55,.04,.84,.18,.84,.42,0,.11-.18,.24-.48,.4-.37,.18-.55,.4-.55,.64v.77h.62s.26-.29,.66-.77c.48-.57,.79-.86,.88-.86,.24,0,.64,.29,1.17,.84,.53,.57,.81,.92,.81,1.03,0,.24-.13,.35-.35,.35h-3.79v3.19h1.3s.29-.31,.73-.88c.51-.66,.81-1.01,.9-1.01,.26,0,.7,.33,1.32,.97,.62,.66,.92,1.03,.92,1.17,0,.24-.15,.35-.44,.35h-7.61c.18,.46,.48,.97,.9,1.52,.4,.55,.81,1.01,1.25,1.36,.33-.26,.66-.55,.97-.86,.59-.53,1.08-1.12,1.47-1.76,.68,.44,1.32,.84,1.91,1.19,.55,.4,.84,.68,.84,.86s-.11,.26-.33,.26l-1.21-.09c-.75,.29-1.78,.57-3.08,.84,0,.02,.02,.02,.02,.02,.62,.44,1.36,.81,2.29,1.1,.86,.31,1.98,.57,3.34,.79l-.09,.53c-.62,.09-1.1,.46-1.41,1.12-.2,.51-.35,.77-.46,.77-.22,0-.75-.18-1.54-.53-.84-.4-1.65-.92-2.46-1.63-.79-.66-1.43-1.47-1.89-2.4-.42-.79-.81-1.83-1.17-3.1h-2.4v4.31c1.14-.13,2.22-.26,3.26-.44l.09,.24c-1.94,1.25-4,2.13-6.18,2.71-.24,.02-.35,.09-.35,.22-.02,.09-.04,.18-.07,.31-.04,.2-.09,.31-.18,.31-.31,0-.66-.53-1.08-1.54-.13-.29-.31-.73-.57-1.39,.9-.04,1.78-.11,2.66-.2v-4.53c-.97,.02-1.65,.04-2.05,.09l-.15-.4c-.04,.46-.11,.9-.15,1.3-.26,1.34-.73,2.6-1.36,3.74-.57,.9-1.32,1.83-2.29,2.75l-.44-.18c.73-1.52,1.23-2.9,1.5-4.22,.31-1.63,.48-4.05,.48-7.28,0-3.65-.09-6.29-.24-7.92,1.21,.37,2.18,.75,2.93,1.12h10.47c.26-.33,.51-.62,.7-.88,.18-.22,.37-.33,.59-.33,.26,0,.7,.24,1.36,.73Zm-13.4,3.41h11.24V2.05h-11.24v2.33Zm7.99,4.29h-2.49v3.19h2.49v-3.19Z"/><path class="cls-1" d="M55.9,5.41V2.31c0-.42-.07-1.17-.18-2.24,1.21,.18,2,.33,2.38,.44,.92,.18,1.41,.37,1.41,.59s-.2,.4-.59,.53c-.42,.11-.62,.29-.62,.51v3.28h.09s.2-.2,.48-.53c.35-.4,.57-.59,.64-.59,.18,0,.46,.22,.86,.62,.4,.42,.62,.66,.62,.75,0,.24-.09,.35-.26,.35h-2.42v3.45c1.08-.22,2.11-.44,3.1-.7l.18,.35c-1.1,.73-2.2,1.36-3.28,1.89v6.69c0,.84-.29,1.45-.84,1.8-.64,.4-1.28,.62-1.91,.62-.18,0-.31-.2-.35-.55-.09-.62-.77-1.21-2.05-1.78l.09-.42c.97,.11,1.67,.15,2.16,.15,.33,0,.51-.11,.51-.33v-5.11c-.35,.13-.68,.26-.99,.37-.18,.07-.31,.22-.37,.44-.07,.09-.13,.2-.18,.35-.13,.22-.26,.33-.44,.33s-.42-.55-.68-1.67c-.07-.31-.18-.81-.35-1.52,1.03-.13,2.05-.29,3.01-.46v-3.92c-1.25,0-2.13,.04-2.66,.09l-.35-.86c.7,.13,1.69,.18,3.01,.18Zm7.75-.57v1.17c0,.48,.15,.75,.48,.81,.64,.09,1.63,.13,2.97,.13,.86,0,1.58-.04,2.18-.15,.42-.07,.7-.18,.86-.35,.11-.11,.26-.35,.44-.75,.18-.48,.4-1.12,.62-1.94l.53,.09c.02,.88,.04,1.43,.04,1.65,0,.55,.15,.92,.46,1.12,.4,.31,.62,.55,.62,.77,0,.42-.29,.75-.84,1.01-.44,.22-.92,.35-1.41,.4-.88,.15-2.05,.22-3.5,.22-2.25,0-3.72-.07-4.47-.24-.62-.11-1.01-.35-1.23-.75-.18-.26-.26-.73-.26-1.43V2.9c0-.9-.09-1.78-.24-2.66,.7,.09,1.54,.2,2.46,.35,.88,.13,1.32,.29,1.32,.51,0,.26-.22,.48-.62,.64-.26,.11-.42,.31-.42,.57v1.94c.68-.31,1.36-.64,2.05-1.03,1.36-.7,2.49-1.45,3.37-2.27,.7,.44,1.34,.86,1.96,1.23,.57,.42,.88,.73,.88,.9,0,.24-.13,.35-.35,.35l-1.21-.18c-1.58,.53-3.83,1.06-6.69,1.58Zm.57,5.9h4.4c.26-.26,.48-.53,.68-.75,.31-.35,.55-.55,.7-.55,.24,0,.68,.24,1.34,.68,.75,.62,1.14,1.01,1.14,1.21s-.15,.42-.46,.64c-.26,.26-.4,.53-.4,.75v2.31l.18,4.38c0,.26-.42,.48-1.21,.64-.35,.04-.62,.07-.77,.07-.4,0-.59-.24-.59-.7v-.86h-5.35v.95c0,.26-.4,.48-1.14,.64-.35,.04-.59,.07-.75,.07-.53,0-.77-.24-.77-.7,.11-1.72,.18-3.24,.18-4.56v-1.19c0-1.14-.09-2.51-.26-4.14,1.12,.29,2.16,.66,3.08,1.12Zm5.02,3.52v-2.93h-5.35v2.93h5.35Zm0,3.7v-3.1h-5.35v3.1h5.35Z"/><path class="cls-1" d="M82.83,3.26h5.15c-.02-1.21-.11-2.29-.26-3.26,.68,.09,1.56,.22,2.66,.4,.86,.13,1.3,.29,1.3,.46,0,.24-.24,.44-.7,.62-.35,.11-.51,.31-.51,.57v1.21h4.55c.07-.02,.35-.35,.84-.97,.59-.73,.95-1.1,1.06-1.1,.31,0,.77,.35,1.43,1.06,.66,.7,.99,1.12,.99,1.28,0,.22-.15,.33-.44,.33h-8.43v2.51h4.38c.22-.2,.37-.35,.51-.48,.42-.35,.7-.55,.88-.55,.22,0,.71,.26,1.45,.79,.68,.53,1.03,.9,1.03,1.1,0,.15-.18,.35-.48,.62-.44,.31-.64,.57-.64,.84v9.37c0,.73-.4,1.3-1.17,1.69-.62,.31-1.14,.46-1.58,.46-.15,0-.29-.29-.42-.84-.18-.66-.88-1.23-2.07-1.67l.09-.42c.99,.18,1.78,.24,2.4,.24,.22,0,.35-.22,.35-.68V6.95h-11.77v12.54c0,.26-.37,.48-1.1,.64-.33,.04-.57,.07-.7,.07-.46,0-.68-.24-.68-.7,.04-.77,.09-1.52,.09-2.31V8.49c0-1.08-.07-2.13-.18-3.17,.97,.26,1.94,.59,2.95,1.03h4.18V3.85h-5.5c-1.19,0-2.16,.07-2.93,.18l-.35-1.03c1.32,.18,2.53,.26,3.63,.26Zm9.68,4.88c.57,.31,.88,.53,.88,.7,0,.2-.15,.31-.44,.33-.35,0-.55,.07-.59,.18-.29,.37-.59,.7-.92,.99-.26,.26-.62,.51-1.06,.73h1.56s.22-.2,.53-.55c.35-.42,.57-.64,.66-.64,.18,0,.48,.22,.92,.66,.42,.44,.64,.7,.64,.79,0,.24-.09,.35-.26,.35h-4.05c0,.88,0,1.67,.02,2.4h1.45s.22-.24,.55-.68c.4-.51,.64-.77,.73-.77,.22,0,.59,.26,1.08,.77,.48,.53,.73,.84,.73,.95,0,.24-.11,.35-.33,.35h-4.2c.02,1.78,.07,3.12,.15,4.03,0,.2-.22,.35-.62,.46-.53,.09-1.01,.13-1.45,.13-.33,0-.53-.15-.59-.42,.04-1.08,.07-2.49,.09-4.2h-.95c-1.28,0-2.16,.02-2.66,.07l-.35-.86c.7,.13,1.69,.18,3.01,.18h.95v-2.4h-.59c-1.28,0-2.16,.04-2.68,.09l-.33-.86c.68,.11,1.69,.15,3.01,.15h2.13c.31-.51,.59-1.08,.86-1.72,.29-.7,.48-1.39,.62-2.05,.57,.33,1.08,.62,1.52,.84Zm-4.78,.35c.4,.33,.59,.7,.59,1.12,0,.35-.15,.66-.44,.97-.2,.22-.46,.33-.77,.33-.26,0-.46-.26-.64-.81-.26-.75-.68-1.5-1.25-2.2l.18-.35c1.1,.31,1.89,.62,2.33,.95Z"/></svg>