<?xml version="1.0" encoding="UTF-8"?><svg id="_層_1" xmlns="http://www.w3.org/2000/svg" viewBox="0 0 25.82 70.58"><defs><style>.cls-1{fill:#e7e5d6;}.cls-2{opacity:.8;}.cls-3{fill:#898058;}</style></defs><g class="cls-2"><path class="cls-1" d="M24.82,25.27c0,6.58-5.33,11.91-11.91,11.91h0c-6.58,0-11.91-5.33-11.91-11.91V12.91C1,6.33,6.33,1,12.91,1h0c6.58,0,11.91,5.33,11.91,11.91v12.36Z"/></g><path class="cls-3" d="M12.91,38.18c-7.12,0-12.91-5.79-12.91-12.91V12.91C0,5.79,5.79,0,12.91,0s12.91,5.79,12.91,12.91v12.36c0,7.12-5.79,12.91-12.91,12.91ZM12.91,2C6.89,2,2,6.89,2,12.91v12.36c0,6.02,4.89,10.91,10.91,10.91s10.91-4.89,10.91-10.91V12.91c0-6.02-4.89-10.91-10.91-10.91Z"/><path class="cls-3" d="M14.22,69.27c0,.72-.59,1.31-1.31,1.31h0c-.72,0-1.31-.59-1.31-1.31v-29.78c0-.72,.59-1.31,1.31-1.31h0c.72,0,1.31,.59,1.31,1.31v29.78Z"/></svg>