<?xml version="1.0" encoding="UTF-8"?><svg id="_層_1" xmlns="http://www.w3.org/2000/svg" viewBox="0 0 224.02 33.3"><defs><style>.cls-1{fill:#5d6732;}.cls-2{fill:#040000;}</style></defs><path class="cls-2" d="M4.46,2.09h4.25c.5-.54,1.01-1.01,1.51-1.4,.36-.36,.68-.54,1.01-.54,.29,0,.97,.36,2.05,1.01,1.22,.86,1.87,1.48,1.87,1.8s-.29,.65-.86,.97c-.47,.29-.68,.61-.68,.97v.72c0,1.12,.04,2.63,.14,4.5,0,.47-.61,.79-1.76,1.01-.54,.07-.94,.11-1.19,.11-.61,0-.94-.32-.97-.97H3.92v22.07c0,.4-.58,.68-1.66,.9-.5,.04-.83,.07-1.01,.07-.86,0-1.26-.32-1.26-.97,.14-2.52,.25-4.68,.25-6.59V6.59C.25,4.93,.14,2.92,0,.54c1.58,.4,3.1,.9,4.46,1.55Zm5.36,3.53V3.1H3.92v2.52h5.9Zm0,3.64v-2.66H3.92v2.66h5.9Zm3.89,4.97c.79,.29,1.19,.61,1.19,.97,0,.14-.22,.22-.61,.25-.43,.04-.65,.07-.68,.14-.29,.22-.54,.4-.83,.58,.79,.4,1.37,.76,1.73,1.04,.43,.43,.68,.76,.76,1.04,.58,0,1.12-.04,1.66-.04,.29-.22,.58-.47,.83-.68-.47-.11-.86-.5-1.22-1.15-.5-1.15-1.44-2.23-2.77-3.31l.29-.43c1.08,.22,2.02,.47,2.81,.68,.36-.68,.68-1.4,.97-2.12-.32,.04-.54,.04-.68,.04-.76,0-1.12-.36-1.12-1.12,.07-1.22,.14-2.45,.14-3.67v-1.12c0-1.73-.11-3.42-.29-5.08,1.58,.47,3.2,1.08,4.86,1.84h4.72c.32-.36,.58-.65,.79-.94,.68-.65,1.15-1.01,1.44-1.01,.36,0,1.12,.43,2.3,1.22,1.08,.83,1.62,1.4,1.62,1.73,0,.25-.29,.58-.79,.94-.68,.47-1.01,.9-1.01,1.29V30.09c0,1.08-.65,1.94-1.87,2.52-1.01,.43-1.83,.68-2.48,.68-.25,0-.47-.43-.65-1.22-.29-1.01-1.3-1.87-3.02-2.56l.14-.72c1.44,.29,2.59,.43,3.53,.43,.36,0,.54-.32,.54-.97v-8.06c-.43,.43-.9,.61-1.4,.61-.36,0-.58-.07-.72-.25-.18-.07-.32-.54-.47-1.4-.04-.14-.07-.29-.07-.43-1.8,.9-3.71,1.58-5.65,2.02-.29,.04-.4,.11-.4,.22-.04,.07-.07,.14-.07,.22,.43,.07,.86,.11,1.33,.18,1.12,.14,1.69,.32,1.69,.58,0,.36-.29,.61-.83,.79-.4,.14-.58,.4-.58,.76v1.83h2.38v-1.69c0-.9-.11-1.69-.25-2.38,.79,.11,1.8,.25,2.99,.4,1.08,.14,1.62,.32,1.62,.58,0,.32-.29,.58-.83,.72-.4,.14-.58,.36-.58,.68v3.53c0,.36-.47,.61-1.33,.76-.43,.07-.76,.07-.9,.07-.5,0-.72-.18-.72-.58v-1.12h-2.38v4.64c0,.32-.47,.58-1.37,.76-.43,.04-.72,.07-.9,.07-.58,0-.83-.18-.83-.54v-7.74c0-.97-.11-1.8-.29-2.52,.22,.04,.47,.07,.76,.07-.18-.29-.36-.65-.54-1.15-.11-.22-.25-.58-.4-1.01-.04,.5-.18,.94-.4,1.22-.4,.4-.83,.58-1.26,.58-.25,0-.43-.07-.54-.22-.14-.07-.25-.54-.32-1.33-.04-.22-.07-.4-.07-.58-1.91,1.19-3.85,2.05-5.87,2.56-.14,.04-.22,.07-.25,.11,.65,.07,1.37,.18,2.2,.29,1.08,.14,1.66,.32,1.66,.58,0,.32-.29,.58-.86,.72-.36,.14-.54,.36-.54,.68v1.83h1.91c0-.29,.04-.58,.04-.86,0-1.04-.11-2.41-.29-4.07,.94,.14,1.87,.32,2.81,.5,1.22,.25,1.84,.5,1.84,.76,0,.22-.25,.43-.72,.58-.43,.14-.65,.32-.68,.54v1.69c0,2.05-.29,3.46-.79,4.21-.5,.86-1.37,1.58-2.59,2.2-1.19,.54-2.77,.97-4.75,1.33l-.29-.43c1.33-.5,2.45-1.04,3.35-1.66,.83-.58,1.44-1.48,1.8-2.7,.11-.29,.18-.68,.22-1.12h-1.84v.72c0,.36-.47,.61-1.37,.76-.43,.07-.76,.07-.9,.07-.47,0-.68-.18-.68-.58v-3.78c0-.54-.04-1.04-.11-1.48-.36-.25-.68-.83-1.04-1.76-.14-.32-.4-.9-.68-1.69,1.01-.04,2.02-.11,2.95-.18,1.76-1.55,3.13-3.2,4.07-5,.86,.29,1.69,.58,2.48,.86Zm-2.99-2.59c.79,.32,1.22,.65,1.22,1.01,0,.14-.22,.25-.61,.29-.43,.04-.65,.07-.68,.14-.83,.36-1.76,.65-2.84,.94,.07,.07,.14,.11,.22,.11,.54,.29,.83,.65,.83,1.08,0,.54-.25,1.04-.72,1.55-.32,.36-.76,.54-1.26,.54-.32,0-.61-.29-.83-.94-.29-.86-.83-1.73-1.55-2.59l.25-.54c.72,.14,1.37,.29,1.87,.4,.65-.94,1.15-1.91,1.51-2.92,.86,.32,1.73,.65,2.59,.94Zm1.37,4.93c-.94,.58-1.91,1.12-2.95,1.62,1.15-.07,2.27-.22,3.35-.36-.11-.43-.25-.86-.4-1.26Zm13.89-6.3h-6.08c-.07,.22-.22,.36-.43,.47,.47,.18,.9,.32,1.33,.47,.83,.32,1.26,.68,1.26,1.04,0,.18-.25,.29-.68,.32-.43,.07-.68,.14-.72,.22-.72,.4-1.55,.76-2.48,1.04,.14,.11,.29,.18,.4,.22,.68,.47,1.04,1.01,1.08,1.58,.79-.86,1.44-1.76,1.98-2.7,.94,.36,1.87,.68,2.77,1.01,.86,.36,1.3,.76,1.3,1.12,0,.14-.22,.22-.65,.25-.43,.04-.68,.07-.76,.14-.29,.18-.54,.32-.79,.43,.94,.43,1.62,.79,2.05,1.12,.14,.14,.29,.29,.43,.36v-7.09Zm-3.42,6.16c-1.15,.65-2.34,1.22-3.64,1.73,1.51-.04,2.92-.11,4.21-.22-.14-.5-.36-1.01-.58-1.51Zm3.42-10.8V3.1h-6.05v2.52h6.05Zm0,3.64v-2.66h-6.05v2.66h6.05Z"/><path class="cls-2" d="M44.93,1.01c.86,.04,1.33,.25,1.33,.68,0,.14-.29,.36-.83,.61-.58,.25-.86,.58-.86,.94V7.31h1.12c.07-.04,.43-.47,1.12-1.26,.79-.94,1.26-1.4,1.4-1.4,.4,0,1.04,.47,1.94,1.37,.86,.94,1.3,1.51,1.3,1.73,0,.36-.18,.54-.54,.54h-8.46c-.07,2.38-.18,4.46-.29,6.19h2.7c.65-.58,1.08-1.01,1.37-1.26,.5-.36,.83-.58,1.01-.58,.36,0,1.04,.36,2.05,1.08,1.15,.86,1.76,1.48,1.76,1.87,0,.29-.29,.58-.83,.9-.43,.22-.61,.43-.61,.65-.04,4.1-.29,7.34-.72,9.79-.5,2.23-1.12,3.6-1.76,4.21-.5,.47-1.15,.83-1.98,1.12-.79,.22-1.48,.36-1.98,.36-.25,0-.47-.43-.65-1.26-.22-1.12-1.19-2.02-2.88-2.81l.14-.58c1.51,.22,2.52,.29,3.1,.29,.65,0,1.15-.43,1.51-1.3,.25-.79,.5-2.2,.72-4.21,.29-2.74,.43-5.15,.43-7.31h-3.46c-.11,1.26-.22,2.34-.36,3.24-.32,2.16-.72,4.03-1.19,5.65-.5,1.66-1.12,3.1-1.91,4.32-1.01,1.58-2.12,2.95-3.35,4.1l-.43-.72c.5-.9,.97-2.12,1.44-3.71,.47-1.51,.86-3.28,1.22-5.33,.32-1.87,.54-3.85,.68-5.87,.22-2.48,.32-5.43,.32-8.85-1.55,.04-2.66,.07-3.38,.14l-.58-1.4c1.15,.22,2.77,.29,4.93,.29h1.26V3.35c0-.94-.11-1.94-.25-2.95,1.51,.14,2.99,.36,4.43,.61Zm14.43,.32c1.37,.36,2.09,.72,2.09,1.04,0,.4-.4,.65-1.19,.76-.47,.07-.76,.18-.86,.29,1.19,2.7,2.41,4.79,3.67,6.23,1.51,1.66,3.02,2.77,4.54,3.42l-.11,.83c-1.15,.36-1.94,1.15-2.38,2.34-.29,.9-.65,1.33-1.01,1.33-.25,0-.79-.68-1.66-2.12-.86-1.4-1.69-3.24-2.48-5.47-.54-1.48-1.01-3.02-1.37-4.61-.86,2.3-1.73,4.21-2.59,5.72-1.26,2.38-2.92,4.68-4.97,6.91l-.43-.58c.86-1.8,1.8-4.28,2.84-7.45,.79-2.59,1.55-5.83,2.2-9.72,1.4,.43,2.63,.79,3.71,1.08Zm.32,23.47c1.87,.76,3.28,1.58,4.14,2.45,.72,.72,1.12,1.48,1.12,2.27,0,.65-.25,1.26-.76,1.76-.43,.58-.97,.9-1.62,.9s-1.87-1.08-3.74-3.24c-1.87-1.98-4.36-3.74-7.38-5.33l.43-.86c3.24,.61,5.87,1.3,7.81,2.05Zm-.29-9.14c.97,.58,1.69,1.15,2.16,1.8,.36,.5,.58,1.08,.58,1.66,0,.79-.29,1.48-.86,2.05-.54,.72-1.19,1.04-1.94,1.04-.25,0-.76-.86-1.48-2.66-.76-1.62-1.73-3.06-2.88-4.36l.43-1.01c1.66,.43,2.99,.94,4,1.48Z"/><path class="cls-1" d="M90.61,1.08c1.01,.32,1.51,.65,1.51,1.01s-.29,.58-.86,.65c-.58,.07-.9,.22-.97,.36-.18,.36-.36,.68-.54,.97h4.21s.32-.32,.94-1.04c.79-.97,1.33-1.48,1.58-1.48s1.01,.58,2.23,1.66c.76,.68,1.15,1.12,1.15,1.3,0,.36-.22,.54-.58,.54h-6.37c.68,.29,1.26,.58,1.69,.86,.86,.61,1.33,1.19,1.33,1.69,0,.94-.36,1.69-1.04,2.23-.4,.4-.9,.58-1.51,.58-.25,0-.47-.11-.65-.36-.18-.14-.32-.61-.43-1.4-.18-1.01-.58-2.23-1.15-3.6h-1.98c-.61,.94-1.26,1.73-1.94,2.45-1.12,1.15-2.59,2.38-4.39,3.6l-.4-.4c1.33-1.76,2.38-3.38,3.09-4.89,.72-1.58,1.3-3.46,1.8-5.65,1.12,.32,2.2,.65,3.28,.94Zm14,.14c1.04,.32,1.58,.65,1.58,1.01s-.29,.58-.86,.65-.9,.22-.97,.36c-.14,.29-.25,.58-.4,.83h5.04s.36-.36,1.04-1.12c.9-1.01,1.48-1.55,1.76-1.55,.25,0,1.01,.58,2.3,1.73,.79,.72,1.22,1.19,1.22,1.37,0,.36-.25,.54-.72,.54h-6.84c.79,.25,1.4,.47,1.83,.68,.9,.5,1.37,.94,1.37,1.3,0,.86-.22,1.55-.61,2.05-.5,.5-1.08,.76-1.66,.76-.5,0-.86-.07-1.08-.25-.29-.07-.5-.58-.68-1.44-.18-1.01-.68-2.05-1.51-3.09h-2.02c-.58,1.01-1.19,1.87-1.84,2.59-.86,1.01-1.94,1.98-3.24,2.99,1.08,.79,1.66,1.33,1.66,1.62,0,.32-.25,.65-.76,.94-.36,.32-.5,.65-.5,1.01v2.95c0,1.12,.04,2.63,.14,4.5,0,.47-.61,.83-1.8,1.04-.54,.07-.94,.07-1.15,.07-.68,0-1.01-.36-1.01-1.12v-.29h-5.62v5.69c1.94-.18,3.78-.4,5.54-.65-.5-.94-1.19-1.91-2.02-2.92l.54-.43c2.3,.97,3.92,1.84,4.86,2.59,.86,.72,1.33,1.37,1.33,1.91,0,.83-.25,1.51-.72,2.09-.43,.58-.94,.86-1.51,.86-.36,0-.68-.11-.94-.25-.22-.22-.5-.9-.79-2.05-.11-.36-.25-.72-.4-1.08-2.77,1.73-5.69,2.99-8.71,3.85-.4,.04-.58,.18-.58,.4-.04,.11-.07,.29-.11,.5-.07,.29-.14,.47-.29,.47-.5,0-1.12-.86-1.76-2.52-.22-.43-.5-1.19-.94-2.27,.86-.04,1.69-.07,2.56-.14v-10.55c0-3.02-.14-5.29-.43-6.88,1.37,.32,2.99,.9,4.79,1.69h4.07c.5-.58,.97-1.12,1.44-1.55,.36-.36,.65-.58,.94-.58,.22,0,.68,.22,1.4,.61,.94-1.51,1.66-2.92,2.16-4.21,.58-1.58,1.08-3.46,1.51-5.69,1.15,.36,2.27,.68,3.35,.97Zm-15.3,14.51h5.62v-3.1h-5.62v3.1Zm0,4.64h5.62v-3.64h-5.62v3.64Zm23.9-9.65c1.12,.86,1.69,1.48,1.69,1.76s-.29,.61-.83,1.04c-.68,.5-1.01,.94-1.01,1.37v12.24c0,1.22-.65,2.12-1.87,2.74-1.01,.5-1.84,.76-2.48,.76-.22,0-.43-.47-.61-1.33-.25-1.08-1.22-1.98-2.92-2.74l.14-.72c1.37,.29,2.52,.43,3.38,.43,.29,0,.43-.36,.43-1.12V12.49h-4.21v19.55c0,.43-.58,.79-1.73,1.04-.5,.07-.9,.11-1.12,.11-.76,0-1.12-.4-1.12-1.15,.07-1.22,.14-2.41,.14-3.64V14.9c0-1.73-.11-3.42-.29-5.08,1.48,.43,2.99,1.01,4.54,1.69h3.2c.36-.4,.61-.72,.83-.97,.65-.76,1.15-1.15,1.44-1.15,.36,0,1.15,.47,2.38,1.33Z"/><path class="cls-1" d="M124.49,21.49h5.04v-1.26c0-2.3-.11-4.32-.29-6.05,1.08,.11,2.41,.29,4.07,.58,1.15,.14,1.73,.4,1.73,.68,0,.36-.36,.68-1.08,.9-.5,.14-.76,.43-.76,.79v4.36h3.35c.07,0,.47-.43,1.12-1.22,.79-.94,1.3-1.44,1.44-1.44,.4,0,1.04,.47,1.91,1.4,.86,.94,1.33,1.48,1.33,1.69,0,.4-.22,.58-.58,.58h-8.57v1.26c1.73,.36,3.13,.72,4.21,1.08,1.4,.5,2.45,1.04,3.1,1.62,.54,.5,.83,1.01,.83,1.51,0,.54-.22,1.01-.58,1.4-.36,.47-.76,.72-1.22,.72-.5,0-1.4-.75-2.77-2.27-1.01-.97-2.2-1.87-3.56-2.66v6.73c0,.43-.58,.79-1.66,1.04-.5,.07-.83,.11-1.01,.11-.86,0-1.3-.4-1.3-1.15,.18-2.16,.29-4.1,.29-5.9v-.43c-1.01,.79-2.09,1.48-3.17,2.09-2.48,1.37-5,2.34-7.52,2.99l-.14-.4c1.87-.94,3.64-2.12,5.26-3.53,1.58-1.26,2.92-2.66,4-4.21h-3.46c-2.09,0-3.53,.07-4.39,.14l-.54-1.4c1.12,.18,2.77,.25,4.93,.25ZM128.92,.94c1.08,.32,1.62,.65,1.62,1.01,0,.4-.32,.65-.94,.72-.65,.14-.97,.29-1.04,.43-.14,.25-.25,.47-.4,.68h15.59s.43-.43,1.15-1.29c.97-1.19,1.62-1.8,1.94-1.8,.29,0,1.15,.68,2.59,1.98,.86,.83,1.33,1.33,1.33,1.55,0,.36-.25,.54-.72,.54h-22.46c-.79,1.3-1.66,2.41-2.63,3.35-1.3,1.37-3.02,2.74-5.11,4.14l-.43-.43c1.66-1.94,2.92-3.78,3.78-5.47,.86-1.76,1.62-3.89,2.27-6.34,1.19,.32,2.34,.65,3.46,.94Zm-2.77,11.3h15.19c.5-.5,.9-.94,1.19-1.29,.5-.54,.94-.83,1.37-.83,.36,0,1.12,.47,2.27,1.37,1.19,.9,1.8,1.48,1.8,1.73,0,.43-.4,.86-1.15,1.33-.65,.47-.97,.86-.97,1.19,0,2.38,.07,4.39,.25,5.97,.22,1.48,.65,2.84,1.29,4.07,.4,.94,.72,1.37,1.01,1.37,.32,0,.72-.72,1.22-2.2,.4-1.08,.79-2.12,1.15-3.17l.72,.43-.58,4.93c0,.65,.14,1.26,.47,1.91,.32,.79,.5,1.29,.5,1.58,0,1.19-.61,1.84-1.84,1.98-.83,0-1.8-.47-2.92-1.37-.97-.79-1.8-1.84-2.52-3.28-.79-1.44-1.37-3.13-1.69-5-.4-2.2-.58-5.44-.58-9.75h-16.2c-1.87,0-3.13,.07-3.78,.14l-.58-1.4c1.23,.22,2.7,.29,4.36,.29Zm.47,4.46c.61,.54,.94,1.15,.94,1.84,0,.61-.25,1.19-.76,1.69-.36,.4-.79,.58-1.33,.58-.4,0-.72-.43-1.01-1.37-.36-1.26-1.01-2.48-1.94-3.71l.29-.54c1.8,.5,3.1,1.01,3.82,1.51Zm4.75-8.71h11.81c.07,0,.4-.43,1.04-1.22,.76-.94,1.19-1.44,1.33-1.44,.4,0,1.01,.47,1.83,1.4,.83,.94,1.26,1.48,1.26,1.69,0,.4-.18,.58-.54,.58h-16.74c-2.09,0-3.53,.07-4.36,.14l-.58-1.4c1.15,.18,2.77,.25,4.93,.25Zm7.88,7.7c1.12,.4,1.69,.79,1.69,1.15,0,.22-.29,.4-.79,.47-.5,.11-.83,.25-.9,.4-1.01,.94-2.38,1.84-4.1,2.66l-.54-.43c.97-1.58,1.62-3.38,1.94-5.33,.97,.36,1.87,.72,2.7,1.08Z"/><path class="cls-1" d="M172.51,1.04c1.15,.36,1.73,.65,1.73,.9,0,.32-.36,.5-1.01,.58-.07,.04-.14,.04-.14,.04,2.02,1.51,4.14,2.7,6.33,3.53,2.7,1.01,5.4,1.69,8.06,2.05l-.14,.72c-1.01,.32-1.69,1.01-2.09,2.05-.25,.79-.54,1.19-.86,1.19-.5,0-1.69-.47-3.49-1.44-1.91-.94-3.71-2.16-5.36-3.67-1.37-1.22-2.56-2.45-3.49-3.74-2.05,2.2-4.18,3.96-6.33,5.29,1.04,.14,1.87,.18,2.48,.18h3.67c.22-.32,.47-.79,.76-1.44,.4-.79,.65-1.22,.79-1.22,.25,0,.72,.47,1.37,1.4,.65,.86,1.01,1.4,1.01,1.69,0,.36-.14,.54-.4,.54h-7.2c-.72,0-1.66,.07-2.81,.14l-.32-.86c-1.01,.65-2.09,1.26-3.2,1.84,1.01,.29,2.09,.65,3.31,1.15h10.08c.5-.61,1.01-1.15,1.51-1.66,.36-.4,.68-.61,1.01-.61,.29,0,.97,.36,2.05,1.04,1.22,.86,1.87,1.48,1.87,1.76,0,.36-.25,.68-.72,1.04-.36,.32-.54,.68-.54,1.08v2.52c0,1.15,.04,2.7,.14,4.64,0,.14-.07,.29-.18,.36,.86,.58,1.66,1.08,2.41,1.51,.94,.72,1.44,1.22,1.44,1.51,0,.4-.22,.58-.58,.58l-1.26-.29c-1.19,.58-2.74,1.15-4.68,1.76,.11,.07,.22,.11,.32,.11,1.87,.79,4.61,1.37,8.28,1.76l-.14,.86c-.94,.25-1.55,.86-1.91,1.84-.22,.72-.43,1.12-.61,1.12-.94,0-2.23-.36-3.85-1.01-2.12-.79-3.82-1.69-5.04-2.63-1.33-.9-2.45-2.12-3.31-3.64-.86-1.33-1.51-2.81-1.98-4.39h-4.39v6.19c2.2-.25,4.32-.54,6.33-.86l.29,.58c-3.53,2.16-7.24,3.67-11.19,4.64-.43,.07-.61,.18-.61,.4-.07,.14-.11,.29-.14,.5-.07,.32-.22,.5-.43,.5-.5,0-1.12-.9-1.8-2.66-.22-.5-.58-1.3-1.01-2.41,1.66-.07,3.24-.18,4.79-.32v-10.51c0-2.59-.11-4.61-.32-6.05-1.87,.94-3.92,1.8-6.16,2.66l-.29-.54c2.56-1.37,5.33-3.31,8.32-5.76,2.41-1.98,4.57-4.46,6.48-7.45,1.19,.36,2.23,.68,3.17,.9Zm4,14.97v-3.1h-11.41v3.1h11.41Zm0,4.21v-3.24h-11.41v3.24h11.41Zm-2.77,4.75c.58,.58,1.33,1.08,2.27,1.51,.43-.4,.83-.86,1.22-1.37,.65-.76,1.26-1.55,1.76-2.41-.14,.04-.22,.07-.29,.07-.58,.07-.97,.11-1.22,.11-.65,0-.97-.36-.97-1.12v-.54h-6.12c1.08,1.62,2.2,2.88,3.35,3.74Z"/><path class="cls-1" d="M216.65,2.74c1.26,.43,1.91,.9,1.91,1.33,0,.25-.29,.43-.86,.54-.58,.07-.9,.22-.97,.43-1.12,1.26-2.56,2.45-4.32,3.53h5.29c.43-.47,.83-.86,1.19-1.15,.47-.54,.83-.83,1.08-.83,.32,0,1.12,.54,2.38,1.58,1.12,.94,1.69,1.58,1.69,1.94,0,.29-.29,.5-.83,.58-.65,0-1.04,.04-1.15,.11-1.15,.86-2.56,1.69-4.21,2.48,.07,.14,.14,.29,.14,.36,0,.25-.25,.5-.72,.79-.47,.25-.76,.5-.83,.76v5.47c0,.47-.65,.79-1.87,1.01-.58,.07-.97,.11-1.22,.11-.65,0-.97-.32-.97-.97v-.72h-3.53v4.64h4.21c.07-.04,.47-.5,1.19-1.37,.83-1.04,1.33-1.58,1.51-1.58,.43,0,1.12,.54,2.05,1.55,.94,1.01,1.44,1.62,1.44,1.84,0,.4-.25,.58-.68,.58h-9.72v4.75h7.74c.07-.07,.5-.58,1.22-1.51,.86-1.15,1.4-1.73,1.58-1.73,.47,0,1.22,.58,2.27,1.66,1.01,1.08,1.55,1.76,1.55,2.02,0,.36-.25,.58-.72,.58h-27c-2.05,0-3.49,.04-4.36,.14l-.58-1.4c1.15,.14,2.77,.25,4.93,.25h9.29v-4.75h-5.47c-2.09,0-3.53,.04-4.36,.11l-.58-1.4c1.12,.22,2.77,.29,4.93,.29h5.47v-4.64h-3.1v.72c0,.47-.61,.79-1.8,1.01-.54,.07-.94,.11-1.15,.11-.76,0-1.12-.36-1.12-1.12,.07-.65,.14-1.4,.14-2.27v-4.21c0-.86-.07-1.87-.14-3.1,1.4,.4,2.81,.9,4.25,1.55h9.93c.43-.58,.83-1.08,1.15-1.51,.29-.36,.61-.58,.97-.58,.43,0,1.15,.4,2.23,1.15,.32,.25,.61,.47,.9,.65,.43-.97,.86-1.94,1.22-2.95h-22.39c-.07,1.22-.14,2.12-.25,2.7-.22,1.01-.61,1.73-1.12,2.16-.32,.25-.65,.36-.97,.36-.76,0-1.37-.22-1.87-.65-.47-.36-.68-.9-.68-1.62,0-.36,.36-.79,1.15-1.29,.79-.5,1.44-1.08,1.94-1.73,.43-.61,.83-1.51,1.12-2.74l.72,.14v1.69h9V3.35c0-1.04-.11-2.12-.29-3.2,1.62,.14,3.2,.36,4.75,.65,.94,.07,1.44,.32,1.44,.76,0,.14-.29,.36-.86,.61-.65,.25-.97,.58-.97,.94v5.47h1.8c1.44-2.12,2.38-4.46,2.84-7.02,1.08,.36,2.09,.76,3.02,1.19Zm-15.48,.65c.72,.61,1.08,1.3,1.08,2.09,0,.65-.29,1.3-.86,1.91-.4,.43-.9,.61-1.55,.61-.43,0-.79-.5-1.08-1.55-.43-1.44-1.15-2.84-2.16-4.21l.29-.54c2.05,.54,3.49,1.12,4.28,1.69Zm11.19,15.73v-5.36h-10.69v5.36h10.69Z"/></svg>