<?xml version="1.0" encoding="UTF-8"?><svg id="_層_1" xmlns="http://www.w3.org/2000/svg" viewBox="0 0 155.22 33.8"><defs><style>.cls-1{fill:#5d6732;}.cls-2{fill:#040000;}</style></defs><path class="cls-2" d="M12.17,11.51c.84,.07,1.28,.26,1.28,.62,0,.15-.25,.33-.77,.55-.55,.26-.8,.55-.8,.88v.69h3.69c.07,0,.44-.44,1.1-1.24,.73-.95,1.21-1.46,1.35-1.46,.37,0,.99,.47,1.83,1.42,.88,.95,1.32,1.5,1.32,1.72,0,.4-.22,.58-.58,.58H5.01c-2.08,0-3.54,.07-4.42,.15l-.58-1.46c1.17,.22,2.81,.29,5.01,.29h3.29v-.4c0-.95-.11-1.9-.29-2.89,1.42,.15,2.81,.33,4.17,.55Zm-5.55,14.43c.91,.37,1.39,.77,1.39,1.17,0,.22-.26,.33-.73,.37-.51,.07-.77,.11-.84,.18-1.64,1.1-3.65,2.12-5.99,3.03l-.44-.44c1.57-1.68,2.78-3.47,3.58-5.45,1.02,.37,2.05,.77,3.03,1.13Zm-.44-23.68h6.98c.51-.55,.99-1.02,1.46-1.43,.37-.37,.66-.58,.95-.58s.95,.33,2.01,.99c1.24,.88,1.86,1.46,1.86,1.75,0,.33-.29,.66-.84,.99-.4,.29-.58,.62-.58,.99v1.57c0,1.02,.04,2.41,.15,4.17,0,.48-.58,.8-1.75,1.02-.51,.07-.91,.11-1.13,.11-.66,0-.99-.33-.99-.99v-.29H5.74v.4c0,.48-.55,.84-1.64,1.06-.51,.07-.84,.11-1.06,.11-.8,0-1.17-.37-1.17-1.17,.07-1.1,.15-2.23,.15-3.4v-2.01c0-1.68-.11-3.29-.29-4.86,1.46,.4,2.96,.91,4.46,1.57Zm11.07,14.65c1.17,.77,1.75,1.32,1.75,1.61,0,.26-.22,.51-.62,.73-.4,.26-.62,.51-.66,.73v3.4c0,.44-.55,.73-1.64,.91-.51,.07-.84,.11-1.06,.11-.69,0-1.02-.29-1.02-.88v-.69h-1.43v6.69c0,1.75-.58,2.92-1.75,3.47-1.1,.51-1.94,.8-2.52,.8-.22,0-.44-.4-.58-1.13-.22-1.17-1.13-2.12-2.7-2.85l.15-.58c1.06,.22,1.97,.29,2.7,.29,.58,0,.88-.33,.88-.99v-5.7h-2.45v.4c0,.44-.55,.73-1.64,.91-.51,.07-.84,.11-1.06,.11-.77,0-1.13-.33-1.13-1.02,.07-.62,.15-1.32,.15-2.12v-2.16c0-.8-.07-1.75-.15-2.85,1.35,.37,2.78,.91,4.24,1.57h6.47c.4-.51,.77-.99,1.1-1.35,.29-.33,.58-.51,.91-.51,.37,0,1.06,.37,2.08,1.1Zm-2.96-11.07V3.29H5.74v2.56H14.29Zm0,3.69v-2.7H5.74v2.7H14.29ZM6.29,21.82h7.71v-3.14H6.29v3.14Zm11.73,4.93c.73,.55,1.13,1.21,1.13,1.94,0,.58-.29,1.17-.8,1.72-.33,.37-.77,.55-1.35,.55-.51,0-.95-.47-1.32-1.39-.47-1.32-1.32-2.63-2.52-3.87l.29-.58c2.19,.51,3.69,1.06,4.57,1.64Zm6.54,3.18c-1.54,1.21-4.31,2.38-8.26,3.47l-.44-.73c2.67-1.32,4.79-2.74,6.32-4.28,2.3-2.23,4.13-4.86,5.52-7.86,1.35,.73,2.49,1.35,3.36,1.86,1.1,.58,1.64,1.06,1.64,1.43,0,.51-.33,.73-.99,.73l-1.28-.15c-2.49,2.7-4.42,4.57-5.88,5.52ZM29.53,2.41c1.17,.62,1.75,1.1,1.75,1.42s-.33,.51-.91,.55c-.73,0-1.13,.11-1.24,.33-1.1,1.02-2.23,1.9-3.43,2.63-1.39,.95-3.58,1.94-6.54,2.92l-.29-.58c1.68-1.24,3.14-2.59,4.46-4.09,1.46-1.72,2.52-3.36,3.11-4.9,1.17,.66,2.19,1.24,3.11,1.72Zm1.13,9.54c1.17,.66,1.75,1.13,1.75,1.46s-.33,.51-.91,.51c-.73,0-1.13,.11-1.21,.33-1.17,1.13-2.41,2.16-3.73,3.03-1.54,1.06-3.91,2.16-7.13,3.25l-.29-.55c1.86-1.35,3.51-2.81,4.97-4.42,1.64-1.86,2.78-3.62,3.43-5.3,1.17,.66,2.19,1.24,3.11,1.68Z"/><path class="cls-2" d="M45.64,2.59c1.75,.37,2.63,.73,2.63,1.1,0,.29-.4,.58-1.13,.84-.66,.18-.99,.44-1.02,.73,0,2.19-.04,4.17-.04,5.85h8.04V3.84c0-1.06-.11-2.16-.29-3.29,1.64,.18,3.25,.4,4.82,.66,.95,.07,1.46,.33,1.46,.77,0,.18-.29,.4-.88,.62-.66,.29-.99,.58-.99,.95v7.56h3.73s.48-.44,1.28-1.39c1.1-1.32,1.79-2.01,2.16-2.01,.33,0,1.32,.73,2.92,2.16,.99,.88,1.5,1.46,1.5,1.68,0,.4-.29,.58-.88,.58h-22.88c-.07,3.36-.18,5.7-.29,6.98h10.34c.51-.62,1.02-1.17,1.54-1.64,.37-.4,.69-.62,1.02-.62,.29,0,1.02,.37,2.16,1.02,1.32,.88,1.97,1.5,1.97,1.83,0,.37-.29,.69-.8,1.06-.44,.33-.62,.69-.62,1.06v5.59c0,1.17,.04,2.78,.15,4.82,0,.47-.66,.84-1.97,1.06-.62,.07-1.06,.11-1.32,.11-.66,0-.99-.4-.99-1.17v-12.13h-11.58c-.29,2.12-.73,3.87-1.32,5.26-.69,1.54-1.57,3-2.67,4.31-1.1,1.32-2.63,2.7-4.57,4.13l-.58-.55c1.46-1.68,2.59-3.58,3.47-5.74,.66-1.46,1.21-3.54,1.61-6.32,.22-2.19,.37-6.76,.37-13.63,0-1.46-.11-3.4-.29-5.74,1.32,.26,2.63,.51,3.95,.77Z"/><path class="cls-1" d="M90.98,5.26h.4v-1.97c0-.99-.11-2.01-.26-3.03,1.53,.15,3.03,.37,4.5,.62,.88,.07,1.35,.29,1.35,.69,0,.15-.29,.37-.84,.62-.58,.26-.88,.58-.88,.95v2.12h.84c.07,0,.37-.33,.88-.99,.62-.73,.99-1.13,1.13-1.13,.33,0,.88,.4,1.61,1.13,.73,.8,1.1,1.28,1.1,1.43,0,.4-.15,.58-.4,.58h-5.15v4.42h1.43c.07-.04,.4-.44,1.06-1.21,.77-.91,1.21-1.39,1.35-1.39,.37,0,.99,.48,1.79,1.35,.8,.91,1.21,1.46,1.21,1.64,0,.4-.18,.58-.55,.58h-4.82c.69,.4,1.32,.73,1.86,1.02,1.02,.55,1.53,.95,1.53,1.24,0,.33-.26,.51-.73,.55-.58,0-.91,.11-.99,.33-.55,.8-1.1,1.5-1.68,2.12-.47,.51-1.13,1.06-1.94,1.57h1.9c.07,0,.37-.33,.88-.91,.62-.69,.99-1.06,1.13-1.06,.29,0,.8,.37,1.5,1.1,.69,.73,1.06,1.17,1.06,1.32,0,.4-.15,.58-.44,.58h-5.41v4.13h.84c.07,0,.44-.4,1.1-1.21,.73-.88,1.21-1.35,1.35-1.35,.37,0,.95,.47,1.75,1.35,.8,.91,1.24,1.46,1.24,1.64,0,.37-.22,.55-.58,.55h-5.7v8c0,.44-.66,.8-1.9,1.06-.58,.04-.99,.07-1.24,.07-.77,0-1.13-.4-1.13-1.13,.15-1.39,.26-3.36,.26-5.99v-2.01h-1.28c-2.08,0-3.54,.07-4.42,.15l-.55-1.42c1.13,.22,2.78,.29,4.97,.29h1.28v-4.13h-.4c-2.12,0-3.58,.07-4.42,.15l-.58-1.42c1.13,.18,2.81,.26,5.01,.26h2.34c.58-.99,1.1-2.05,1.54-3.22,.47-1.28,.8-2.48,1.02-3.62h-5.77c-2.08,0-3.54,.07-4.42,.15l-.55-1.42c1.13,.22,2.78,.29,4.97,.29h1.28V6.29h-.4c-2.12,0-3.58,.04-4.42,.11l-.58-1.43c1.13,.22,2.81,.29,5.01,.29Zm.58,8.48c.84,.66,1.28,1.21,1.28,1.68,0,.8-.22,1.46-.58,1.94-.48,.51-.99,.77-1.57,.77-.48,0-.8-.07-1.02-.29-.26-.11-.48-.66-.62-1.64-.18-1.17-.69-2.41-1.5-3.66l.44-.4c1.72,.62,2.92,1.17,3.58,1.61Zm15.31-10.74h5.08c.51-.58,.84-.99,1.06-1.24,.62-.58,1.02-.91,1.21-.91,.37,0,1.06,.44,2.16,1.28,1.02,.8,1.57,1.39,1.57,1.72s-.29,.62-.88,.88-.84,.48-.84,.69c-.62,3.29-1.1,5.34-1.46,6.14-.33,.73-.8,1.28-1.43,1.64s-1.13,.51-1.54,.51c-.29,0-.58-.4-.8-1.24-.33-.95-1.54-1.97-3.62-3.07l.15-.69c1.64,.22,2.85,.29,3.58,.29,.29,0,.51-.18,.66-.58,.15-.51,.4-1.97,.77-4.42h-6.29V15.53h6.29c.4-.44,.73-.84,.99-1.21,.55-.58,.91-.91,1.13-.91,.29,0,1.02,.44,2.19,1.28,1.1,.8,1.68,1.43,1.68,1.86,0,.22-.26,.44-.73,.58-.62,.22-.95,.51-.99,.84-.55,2.92-1.21,5.12-2.01,6.54-.37,.58-.73,1.17-1.13,1.72,1.54,1.32,3.18,2.38,5.01,3.14l-.29,.73c-1.06,.4-1.75,.95-2.05,1.61-.4,.8-.73,1.24-.95,1.24-.29,0-.84-.4-1.57-1.21-.8-.73-1.64-1.72-2.49-3.03-.18,.15-.33,.29-.48,.44-1.46,1.17-3,2.19-4.6,3.07v.44c0,.44-.58,.8-1.75,1.06-.51,.04-.88,.07-1.1,.07-.88,0-1.32-.4-1.32-1.13,.18-2.56,.29-4.86,.29-6.83V7.56c0-1.72-.11-3.8-.29-6.29,1.72,.44,3.33,.99,4.79,1.72Zm2.16,24.63c.33-.44,.62-.88,.91-1.32-.37-.73-.69-1.57-.99-2.52-.58-1.68-1.1-4.09-1.46-7.24h-1.24v14.25c1.06-1.02,1.97-2.08,2.78-3.18Zm.91-6.36c.4,.88,.88,1.68,1.39,2.41,.15-.37,.26-.69,.4-1.06,.69-2.01,1.1-4.02,1.21-6.07h-4.68c.44,1.72,1.02,3.29,1.68,4.71Z"/><path class="cls-1" d="M126.1,12.13c.4-.44,.77-.84,1.13-1.28,.51-.58,.88-.88,1.13-.88,.37,0,.99,.4,1.9,1.21,1.02,.88,1.53,1.42,1.53,1.64,0,.37-.29,.66-.8,.95-.51,.37-.77,.73-.77,1.06v2.16c1.02,.77,2.34,1.21,3.91,1.35,1.79,.15,5.26,.18,10.45,.18,3.14,0,6.61-.18,10.49-.55l.15,.55c-.88,.22-1.61,1.06-2.19,2.48-.07,.66-.26,.95-.55,.95h-6.03c.55,.11,.95,.22,1.21,.29,1.5,.29,2.27,.62,2.27,.99s-.33,.66-.91,.88c-.66,.18-.95,.48-.95,.84v.15h2.01c.07,0,.37-.4,.91-1.13,.69-.84,1.1-1.28,1.24-1.28,.37,0,.95,.44,1.75,1.28,.8,.88,1.24,1.39,1.24,1.57,0,.4-.22,.58-.58,.58h-6.58v3.4c0,1.39-.47,2.41-1.39,3-1.06,.66-2.12,1.02-3.18,1.02-.37,0-.62-.33-.69-.99-.22-1.1-1.61-2.16-4.17-3.18l.15-.69c2.05,.37,3.58,.55,4.57,.55,.58,0,.88-.18,.88-.55v-2.56h-16.55c-2.12,0-3.58,.04-4.42,.11l-.58-1.43c1.13,.22,2.81,.29,5.01,.29h16.55c0-.62-.11-1.68-.26-3.14h-.44c-2.05,0-4.64-.11-7.78-.33-3.14-.47-5.34-1.64-6.65-3.51-.15,0-.29,.11-.4,.26-.95,1.24-2.12,2.38-3.47,3.44,0,.88-.15,1.28-.4,1.28-.22,0-.48-.22-.69-.73-.58-1.06-1.24-2.38-1.9-3.95,1.9-.22,3.4-.4,4.42-.58v-4.71c-1.75,0-3.11,.11-3.98,.29l-.58-1.72c1.21,.29,2.56,.44,4.02,.44Zm.99-6.21c.66,.48,.99,1.02,.99,1.64,0,.58-.26,1.1-.73,1.61-.29,.37-.73,.51-1.24,.51-.44,0-.84-.4-1.13-1.21-.44-1.13-1.13-2.27-2.16-3.36l.29-.55c1.9,.44,3.22,.88,3.98,1.35Zm3.11-4.06c.66,.44,1.02,.95,1.02,1.54,0,.62-.26,1.21-.77,1.72-.37,.4-.8,.58-1.35,.58-.47,0-.88-.4-1.21-1.21-.44-1.17-1.17-2.27-2.23-3.36l.29-.58c2.01,.44,3.43,.88,4.24,1.32Zm4.6,26.02c.95,.47,1.42,1.02,1.42,1.64,0,.69-.33,1.39-.91,2.05-.44,.44-.99,.66-1.64,.66-.69,0-1.28-.44-1.75-1.32-.66-1.24-1.79-2.49-3.4-3.66l.44-.73c2.78,.44,4.75,.91,5.85,1.35Zm5.48-26.86c.73,.29,1.1,.62,1.1,.95,0,.66-.29,1.24-.84,1.83-.22,.26-.44,.4-.66,.47h3.76c.29-.66,.55-1.28,.77-1.83,.18-.66,.37-1.5,.51-2.45,1.02,.29,2.05,.55,3.03,.8,.91,.29,1.39,.58,1.39,.91s-.29,.55-.8,.62c-.55,.11-.84,.22-.88,.37-.44,.51-.95,.91-1.53,1.24-.22,.15-.4,.26-.58,.33h3.65c.07-.04,.37-.4,.95-1.13,.66-.88,1.06-1.32,1.21-1.32,.37,0,.95,.44,1.75,1.32,.8,.88,1.24,1.39,1.24,1.57,0,.37-.22,.55-.58,.55h-3.98c.37,.22,.77,.48,1.24,.8,1.17,.77,1.75,1.32,1.75,1.64,0,.22-.22,.47-.66,.73-.44,.22-.69,.48-.77,.69v7.86c0,.4-.58,.69-1.72,.88-.51,.07-.91,.11-1.13,.11-.66,0-.99-.29-.99-.88h-9.58c-.15,.44-.69,.73-1.64,.91-.51,.07-.84,.11-1.06,.11-.8,0-1.17-.37-1.17-1.13,.07-1.13,.15-2.27,.15-3.44v-3.14c0-1.68-.11-3.29-.26-4.86,1.46,.4,2.92,.91,4.42,1.57h1.17c.29-.58,.51-1.21,.66-1.86h-3.4c-2.12,0-3.58,.07-4.42,.15l-.58-1.42c1.13,.22,2.81,.29,5.01,.29h1.79c-.26-.15-.48-.4-.69-.84-.44-.88-1.17-1.72-2.27-2.59l.29-.58c2.08,.26,3.54,.51,4.35,.77Zm7.24,9.1v-2.01h-9.58v2.01h9.58Zm0,3v-2.01h-9.58v2.01h9.58Zm0,3v-2.01h-9.58v2.01h9.58Zm-.58-8.99c.4-.58,.77-1.1,1.1-1.54,.11-.15,.22-.26,.29-.33h-4.24c-.73,.73-1.54,1.35-2.41,1.86h5.26Z"/></svg>